<?xml version="1.0" encoding="UTF-8" standalone="no"?>
<!-- Generator: Adobe Illustrator 14.0.0, SVG Export Plug-In . SVG Version: 6.00 Build 43363)  -->

<svg
   xmlns:dc="http://purl.org/dc/elements/1.1/"
   xmlns:cc="http://creativecommons.org/ns#"
   xmlns:rdf="http://www.w3.org/1999/02/22-rdf-syntax-ns#"
   xmlns:svg="http://www.w3.org/2000/svg"
   xmlns="http://www.w3.org/2000/svg"
   xmlns:xlink="http://www.w3.org/1999/xlink"
   xmlns:sodipodi="http://sodipodi.sourceforge.net/DTD/sodipodi-0.dtd"
   xmlns:inkscape="http://www.inkscape.org/namespaces/inkscape"
   version="1.1"
   id="Ebene_1"
   x="0px"
   y="0px"
   width="140px"
   height="46px"
   viewBox="0 0 140 46"
   enable-background="new 0 0 140 46"
   xml:space="preserve"
   inkscape:version="0.91 r13725"
   sodipodi:docname="dbs-logo.svg"><metadata
     id="metadata4290"><rdf:RDF><cc:Work
         rdf:about=""><dc:format>image/svg+xml</dc:format><dc:type
           rdf:resource="http://purl.org/dc/dcmitype/StillImage" /></cc:Work></rdf:RDF></metadata><defs
     id="defs4288"><defs
       id="defs4236"><rect
         height="44.971"
         width="139.999"
         id="SVGID_1_" /></defs><clipPath
       id="SVGID_2_"><use
         id="use4240"
         overflow="visible"
         xlink:href="#SVGID_1_" /></clipPath></defs><sodipodi:namedview
     pagecolor="#ffffff"
     bordercolor="#666666"
     borderopacity="1"
     objecttolerance="10"
     gridtolerance="10"
     guidetolerance="10"
     inkscape:pageopacity="0"
     inkscape:pageshadow="2"
     inkscape:window-width="1270"
     inkscape:window-height="1416"
     id="namedview4286"
     showgrid="false"
     inkscape:zoom="3.9857143"
     inkscape:cx="75.366744"
     inkscape:cy="-22.303555"
     inkscape:window-x="1600"
     inkscape:window-y="0"
     inkscape:window-maximized="0"
     inkscape:current-layer="Ebene_1" /><g
     id="g4318"><path
       clip-path="url(#SVGID_2_)"
       d="m 4.681,14.395 c 2.729,0 4.455,-1.251 4.455,-4.808 0,-3.73 -1.752,-4.829 -4.255,-4.829 l -1.851,0 0,9.637 1.651,0 z M 0,16.95 0,2.207 l 5.155,0 c 4.08,0 7.158,2.025 7.158,7.204 0,5.458 -3.201,7.539 -7.333,7.539 l -4.98,0 z"
       id="path4242"
       inkscape:connector-curvature="0"
       style="fill:#00677f;fill-opacity:1" /><path
       clip-path="url(#SVGID_2_)"
       d="m 20.304,12.017 c -2.605,-0.074 -3.605,0.576 -3.605,1.754 0,0.775 0.526,1.326 1.477,1.326 0.974,0 2.128,-0.528 2.128,-1.729 l 0,-1.351 z m 2.977,1.677 c 0,0.824 0.351,1.076 0.85,1.076 0.273,0 0.478,-0.076 0.703,-0.176 l 0,2.203 c -0.43,0.248 -0.977,0.348 -1.679,0.348 -1.425,0 -2.328,-0.549 -2.626,-1.824 -0.552,1.425 -1.852,1.927 -3.379,1.927 -2.052,0 -3.43,-1.177 -3.43,-3.154 0,-2.578 2.052,-4.005 6.583,-3.753 l 0,-1.231 c 0,-1.125 -0.554,-1.726 -1.579,-1.726 -1.051,0 -1.599,0.652 -1.674,1.754 L 14.122,8.612 c 0.173,-2.453 2.274,-3.505 4.754,-3.505 2.653,0 4.405,1.129 4.405,3.73 l 0,4.857 z"
       id="path4244"
       inkscape:connector-curvature="0"
       style="fill:#00677f;fill-opacity:1" /><path
       clip-path="url(#SVGID_2_)"
       d="m 29.433,16.948 -2.978,0 0,-11.566 2.978,0 0,11.566 z M 27.93,0.002 c 1.076,0 1.929,0.65 1.929,1.8 0,1.102 -0.853,1.754 -1.929,1.754 -1.002,0 -1.854,-0.652 -1.854,-1.754 0,-1.15 0.852,-1.8 1.854,-1.8"
       id="path4246"
       inkscape:connector-curvature="0"
       style="fill:#00677f;fill-opacity:1" /><path
       clip-path="url(#SVGID_2_)"
       d="m 45.564,5.107 c 1.902,0 3.355,1.053 3.355,3.58 l 0,8.261 -2.978,0 0,-7.16 c 0,-1.326 -0.453,-2.154 -1.677,-2.154 -1.128,0 -2.13,0.726 -2.13,2.855 l 0,6.458 -3.002,0 0,-7.16 c 0,-1.326 -0.425,-2.154 -1.654,-2.154 -1.124,0 -2.152,0.753 -2.152,2.855 l 0,6.458 -2.978,0 0,-11.564 2.504,0 0.348,2.229 c 0.629,-1.75 1.905,-2.504 3.58,-2.504 1.526,0 2.778,0.65 3.08,2.527 0.6,-1.75 2.053,-2.527 3.704,-2.527"
       id="path4248"
       inkscape:connector-curvature="0"
       style="fill:#00677f;fill-opacity:1" /><path
       clip-path="url(#SVGID_2_)"
       d="m 56.164,16.897 c -0.65,0.176 -1.199,0.277 -1.752,0.277 -1.603,0 -3.028,-0.78 -3.028,-2.805 l 0,-13.899 2.979,0 0,13.074 c 0,0.726 0.449,1.025 1.051,1.025 0.3,0 0.574,-0.051 0.875,-0.174 l -0.125,2.502 z"
       id="path4250"
       inkscape:connector-curvature="0"
       style="fill:#00677f;fill-opacity:1" /><path
       clip-path="url(#SVGID_2_)"
       d="m 64.621,9.938 c 0.024,-0.174 0.024,-0.275 0.024,-0.426 0,-1.226 -0.725,-2.152 -2.053,-2.152 -1.379,0 -2.252,1 -2.428,2.578 l 4.457,0 z m 0.322,3.328 2.552,0.826 c -0.547,2.33 -2.599,3.156 -4.855,3.156 -3.227,0 -5.429,-2.151 -5.429,-5.933 0,-3.955 2.128,-6.208 5.507,-6.208 3.179,0 4.777,2.129 4.777,5.056 0,0.551 -0.046,1.104 -0.174,1.552 l -7.231,0 c 0.075,1.926 0.975,3.229 2.649,3.229 1.029,0 1.807,-0.399 2.204,-1.678"
       id="path4252"
       inkscape:connector-curvature="0"
       style="fill:#00677f;fill-opacity:1" /><path
       clip-path="url(#SVGID_2_)"
       d="m 76.882,8.437 c -0.377,-0.099 -0.727,-0.15 -1.203,-0.15 -1.424,0 -3.051,0.854 -3.051,3.179 l 0,5.482 -2.98,0 0,-11.566 2.578,0 0.352,3.154 C 73.053,6.509 74.307,4.984 77.182,5.13 l -0.3,3.307 z"
       id="path4254"
       inkscape:connector-curvature="0"
       style="fill:#00677f;fill-opacity:1" /><path
       clip-path="url(#SVGID_2_)"
       d="m 3.031,37.145 2.5,0 c 1.401,0 2.227,-0.527 2.227,-1.9 0,-1.131 -0.7,-1.779 -2.251,-1.779 l -2.476,0 0,3.679 z m 2.076,-5.933 c 1.277,0 2.102,-0.527 2.102,-1.852 0,-1.325 -0.824,-1.854 -2.202,-1.854 l -1.976,0 0,3.706 2.076,0 z m 2.476,0.976 c 2.028,0.228 3.255,1.528 3.255,3.455 0,2.453 -1.626,4.054 -5.233,4.054 l -5.604,0 0,-14.743 5.657,0 c 2.978,0 4.579,1.328 4.579,3.73 0,1.876 -1.074,3.054 -2.653,3.406 l 0,0.098 z"
       id="path4256"
       inkscape:connector-curvature="0"
       style="fill:#00677f;fill-opacity:1" /><path
       clip-path="url(#SVGID_2_)"
       d="m 19.776,32.689 c 0.023,-0.175 0.023,-0.274 0.023,-0.426 0,-1.227 -0.724,-2.154 -2.051,-2.154 -1.378,0 -2.252,1.005 -2.428,2.58 l 4.456,0 z m 0.323,3.331 2.553,0.826 C 22.103,39.172 20.052,40 17.796,40 c -3.229,0 -5.427,-2.154 -5.427,-5.934 0,-3.957 2.125,-6.208 5.503,-6.208 3.18,0 4.78,2.126 4.78,5.054 0,0.553 -0.05,1.104 -0.175,1.553 l -7.231,0 c 0.075,1.928 0.976,3.23 2.652,3.23 1.028,0 1.802,-0.4 2.201,-1.675"
       id="path4258"
       inkscape:connector-curvature="0"
       style="fill:#00677f;fill-opacity:1" /><path
       clip-path="url(#SVGID_2_)"
       d="m 27.659,30.362 c 0.625,-1.729 1.926,-2.504 3.702,-2.504 1.829,0 3.43,1.053 3.43,3.627 l 0,8.211 -2.978,0 0,-7.159 c 0,-1.325 -0.452,-2.154 -1.703,-2.154 -1.201,0 -2.327,0.654 -2.327,2.858 l 0,6.455 -2.978,0 0,-11.562 2.5,0 0.354,2.228 z"
       id="path4260"
       inkscape:connector-curvature="0"
       style="fill:#00677f;fill-opacity:1" /><path
       clip-path="url(#SVGID_2_)"
       d="m 41.762,35.516 c -0.9,1.226 -1.527,1.83 -1.527,1.83 l 0,0.1 c 0,0 0.677,-0.1 2.055,-0.1 l 3.652,0 0,2.351 -9.109,0 0,-1.779 3.854,-5.553 c 0.875,-1.229 1.527,-1.829 1.527,-1.829 l 0,-0.097 c 0,0 -0.677,0.097 -2.054,0.097 l -3.106,0 0,-2.401 8.666,0 0,1.899 -3.958,5.482 z"
       id="path4262"
       inkscape:connector-curvature="0"
       style="fill:#00677f;fill-opacity:1" /><path
       clip-path="url(#SVGID_2_)"
       d="m 91.48,14.842 c -0.594,1.706 -1.779,2.345 -3.513,2.345 -2.071,0 -3.457,-1.059 -3.457,-3.804 l 0,-7.907 1.879,0 0,7.735 c 0,1.803 0.688,2.595 2.196,2.595 1.288,0 2.844,-1.163 2.844,-3.385 l 0,-6.945 1.881,0 0,11.417 -1.61,0 -0.22,-2.051 z"
       id="path4264"
       inkscape:connector-curvature="0"
       style="fill:#00677f;fill-opacity:1" /><path
       clip-path="url(#SVGID_2_)"
       d="m 97.697,7.674 c 0.615,-1.706 1.925,-2.472 3.657,-2.472 1.929,0 3.506,1.037 3.506,3.51 l 0,8.18 -1.874,0 0,-7.71 c 0,-1.46 -0.742,-2.35 -2.152,-2.35 -1.506,0 -2.89,0.792 -2.89,3.411 l 0,6.649 -1.877,0 0,-11.418 1.406,0 0.224,2.2 z"
       id="path4266"
       inkscape:connector-curvature="0"
       style="fill:#00677f;fill-opacity:1" /><path
       clip-path="url(#SVGID_2_)"
       d="m 115,9.752 c 0,-2.154 -1.684,-3.067 -3.019,-3.067 -1.828,0 -3.262,1.237 -3.262,4.647 0,2.843 1.263,4.351 3.236,4.351 1.312,0 3.044,-1.04 3.044,-3.265 l 0,-2.666 z m -0.027,-9.451 1.904,0 0,16.594 -1.656,0 L 115,14.918 c -0.696,1.729 -2.054,2.271 -3.66,2.271 -2.321,0 -4.498,-1.925 -4.498,-5.831 0,-3.881 1.851,-6.155 5.114,-6.155 1.46,0 2.72,0.866 3.017,1.83 l 0,-6.732 z"
       id="path4268"
       inkscape:connector-curvature="0"
       style="fill:#00677f;fill-opacity:1" /><path
       clip-path="url(#SVGID_2_)"
       d="m 56.612,34.836 c 0.277,1.327 1.327,2.276 2.652,2.276 0.981,0 1.727,-0.375 1.727,-1.224 0,-0.854 -0.497,-1.229 -2.251,-1.756 -3.754,-1.148 -4.955,-2.553 -4.955,-4.98 0,-3.43 2.679,-4.53 5.354,-4.53 3.132,0 5.456,1.001 5.785,3.805 l -3.755,1.003 c -0.127,-1.201 -1.05,-1.678 -1.954,-1.678 -0.774,0 -1.451,0.3 -1.451,1.128 0,0.85 0.677,1.249 2.304,1.702 3.353,1.025 4.831,2.102 4.831,4.955 0,3.302 -2.676,4.456 -5.932,4.456 -2.878,0 -4.906,-0.906 -5.757,-3.528 l 3.402,-1.629 z"
       id="path4270"
       inkscape:connector-curvature="0"
       style="fill:#969799;fill-opacity:1" /><path
       clip-path="url(#SVGID_2_)"
       d="m 75.424,39.216 c -1.05,0.525 -2.305,0.775 -3.804,0.775 -2.351,0 -3.953,-1.076 -3.953,-3.881 l 0,-5.128 -1.678,0 0,-2.855 1.703,0 0,-2.455 3.703,-0.424 0,2.879 3.428,0 0,2.855 -3.453,0 0,4.276 c 0,1.206 0.475,1.579 1.376,1.579 0.726,0 1.377,-0.276 2.054,-0.753 l 0.624,3.132 z"
       id="path4272"
       inkscape:connector-curvature="0"
       style="fill:#969799;fill-opacity:1" /><path
       clip-path="url(#SVGID_2_)"
       d="m 80.732,39.69 -3.707,0 0,-11.563 3.707,0 0,11.563 z M 78.879,22.569 c 1.303,0 2.279,0.678 2.279,2.08 0,1.349 -0.977,2.051 -2.279,2.051 -1.201,0 -2.205,-0.702 -2.205,-2.051 0,-1.402 1.004,-2.08 2.205,-2.08"
       id="path4274"
       inkscape:connector-curvature="0"
       style="fill:#969799;fill-opacity:1" /><path
       clip-path="url(#SVGID_2_)"
       d="m 82.747,30.98 0,-2.854 1.703,0 0,-0.701 c 0,-3.429 2.154,-4.656 4.853,-4.656 1.178,0 2.104,0.174 2.955,0.577 l -0.579,3.05 c -0.576,-0.324 -1.122,-0.497 -1.948,-0.497 -0.926,0 -1.576,0.299 -1.576,1.629 l 0,0.599 5.474,0 0,2.854 -5.474,0 0,12.152 -3.705,0 0,-12.153 -1.703,0 z"
       id="path4276"
       inkscape:connector-curvature="0"
       style="fill:#969799;fill-opacity:1" /><path
       clip-path="url(#SVGID_2_)"
       d="m 100.404,39.216 c -1.053,0.525 -2.303,0.775 -3.808,0.775 -2.351,0 -3.956,-1.076 -3.956,-3.881 l 0,-5.211 -1.673,0 0,-2.691 1.702,0 0,-2.536 3.703,-0.424 0,2.879 3.428,0 0,2.855 -3.453,0 0,4.276 c 0,1.206 0.475,1.579 1.377,1.579 0.725,0 1.377,-0.276 2.053,-0.753 l 0.627,3.132 z"
       id="path4278"
       inkscape:connector-curvature="0"
       style="fill:#969799;fill-opacity:1" /><path
       clip-path="url(#SVGID_2_)"
       d="m 109.12,37.511 c -0.352,1.558 -1.377,2.48 -3.579,2.48 -2.056,0 -3.479,-1.053 -3.479,-3.703 l 0,-8.158 3.7,0 0,7.03 c 0,1.252 0.377,2.03 1.425,2.03 1.106,0 1.878,-0.853 1.878,-3.056 l 0,-6.004 3.711,0 0,11.56 -3.205,0 -0.451,-2.179 z"
       id="path4280"
       inkscape:connector-curvature="0"
       style="fill:#969799;fill-opacity:1" /><path
       clip-path="url(#SVGID_2_)"
       d="m 118.864,30.354 c 0.626,-1.727 1.927,-2.504 3.706,-2.504 1.725,0 3.352,1.054 3.352,3.682 l 0,8.159 -3.702,0 0,-6.708 c 0,-1.225 -0.251,-2.025 -1.405,-2.025 -0.951,0 -1.902,0.549 -1.902,2.477 l 0,6.257 -3.704,0 0,-11.565 3.207,0 0.448,2.227 z"
       id="path4282"
       inkscape:connector-curvature="0"
       style="fill:#969799;fill-opacity:1" /><path
       clip-path="url(#SVGID_2_)"
       d="m 132.992,33.51 c 1.022,0 1.551,-0.604 1.551,-1.58 0,-1.074 -0.528,-1.576 -1.551,-1.576 -1.029,0 -1.502,0.576 -1.502,1.576 0,0.904 0.451,1.58 1.502,1.58 m 0,9.009 c 2.325,0 2.953,-0.396 2.953,-1.15 0,-0.625 -0.4,-0.777 -1.229,-0.777 l -2.974,0 c -0.732,0 -1.33,0.25 -1.33,0.752 0,0.778 0.826,1.175 2.58,1.175 m 3.279,-14.016 c 0.477,-0.552 0.576,-0.802 0.851,-1.752 l 2.877,0.95 c -0.125,1.127 -1.229,1.902 -2.152,2.205 0.324,0.549 0.5,1.223 0.5,2.023 0,2.656 -2.401,3.98 -5.481,3.98 -0.525,0 -1.1,-0.05 -1.375,-0.147 -0.352,0.224 -0.453,0.549 -0.453,0.873 0,0.326 0.277,0.604 0.802,0.604 l 3.453,0 c 2.629,0 4.131,1.499 4.131,3.475 0,3.381 -3.478,4.254 -6.884,4.254 -2.93,0 -5.507,-0.673 -5.507,-2.847 0,-1.328 0.928,-2.082 3.084,-2.232 -1.203,-0.074 -1.956,-1.074 -1.956,-2.124 0,-0.902 0.628,-1.979 2.002,-2.382 -1.602,-0.627 -2.453,-1.575 -2.453,-3.454 0,-2.727 2.127,-4.078 5.283,-4.078 1.297,0.001 2.402,0.228 3.278,0.652"
       id="path4284"
       inkscape:connector-curvature="0"
       style="fill:#969799;fill-opacity:1" /></g></svg>