<svg xmlns="http://www.w3.org/2000/svg" width="566.929" height="575.795"><path d="M141.076 68.198c-.155-.295.426-1.211.648-1.414.033-.96.003-4.573-.765-6.774-.154-.577-1.242-.869-.883-1.708.47-2.356-.118-2.205-.118-3.829-.768-1.205-1.505-2.925-2.12-4.182.155-.21.075-1.304.177-1.566-.82-1.99-1.046-3.775-2.646-4.996-.512-.629-.733-1.76-.477-2.388-1.178-1.834-1.004-3.655-2.745-5.175-1.293-.339-1.125-1.532-1.074-2.528-1.33-1.624-2.188-4.148-3.978-5.095-2.069-1.095-.855-1.97-2.466-3.483-.973-1.626-2.05-2.867-4.157-3.523-.086-.513.048-1.016-.239-1.473-1.412-1.473-3.21-2.788-4.395-3.921-.634-.397-1.14.182-1.756-.29-.115-.28-.033-.56-.323-.906-1.532-1.317-3.574-3.028-4.664-3.66-.875-.797-1.529.07-1.83-.518-1.691-1.93-4.735-3.224-6.783-4.22-1.302-.533-1.173-.08-1.949-.338-1.433-1.834-3.286-2.022-5.49-2.388-.92-.578-1.375.447-2.247-.338-1.213-1.095-4.216-2.11-5.947-2.33-1.382-.313-1.578.37-2.645.34-1.067-.033-1.512-1.82-6.484-1.315-.666.315-1.389.41-2.207.358L72.14.08c-2.047-.158-4.892-.16-6.643.697-.3.146-.97-.411-1.75-.438-1.656-.057-3.967.228-5.708.477l-1.313.995c-1.65.18-1.104-.502-1.77-.398-2.267.518-5.553 1.315-6.683 2.747-.298.378-.628-.572-1.412-.418-1.406.278-3.53 1.482-4.813 2.19-.41 1.204-.716 1.393-3.142 1.353-.358-.006-5.167 1.89-5.967 4.618-.47-.044-1.14-.13-1.591 0-1.67 1.015-3.144 2.414-4.535 3.503-.205.68-.065.777-.577 1.353-1.64-.663-4.733 3.165-5.21 3.98-.386.65-.47 1.416-.732 1.952-2.132-.14-2.278 1.128-3.087 2.03-1.041 1.159-1.852 2.213-2.745 3.363.256 1.728-.27 1.454-1.52 1.907-.87 1.991-3.926 4.145-3.02 6.864-.563.682-1.335.334-1.898 1.015-.973 2.253-3.195 4.529-2.222 7.253-.103.576-.506 1.242-1.488.971-.111-.03-1.424 3.735-2.045 5.516-.46 1.31 1.743 3.83-.91 4.09-.525.64-.742 4.748-1.138 6.336-.103.944 1.548 2.082-.156 3.787-.151 3.13.003 6.255.776 8.16-.358.471-.687.879-.841 1.403.666 2.149-.582 4.165 1.876 6.194.051.472-.59.43-.948.691.215 2.31 0 5.764 1.617 6.174.042.494-.27.43-.237.992.798 2.98.431 6.994 3.408 8.138.154.577-.588.5-.69.972.41 1.309.021 2.05 1.23 3.259.776 1.123 1.82 2.125 1.768 3.54-.69.561.259.712.185 1.59.958 1.454 1.895 4.516 3.956 4.13.086 1.23-.478 1.114-.216 1.921.281.863 1.726 2.418 2.87 3.95.434.404 1.552.544 1.768.864.173 2.245 2.362 3.642 3.387 4.9.717.78 1.26 1.992 2.437 1.835.82.209.76.155.863.993 1.661 1.526 2.815 3.677 4.745 4.36.36.128 1.941.152 2.524.389.431.194-.053 1.15.56 1.727 1.793.942 3.498 2.55 5.393 3.389 1.843-.315 2.33-.346 3.052 1.353 2.203.733 4.217 3.136 7.237 2.014.31-.115.237.906.388.971 2.05.88 4.153 1.363 6.406 1.887 1.398.8 5.09 1.27 10.505 2.094 6.299.177 12.57.321 14.892.06 2.611-.105 12.748-2.428 12.95-2.946.824-2.109.883-.707 1.943-.648.452.025 4.414-1.414 7.475-3.475.374-.375.443-1.004.648-1.414.203-.21.708.16.861.473.769 1.034 2.202-.474 3.12-.952 1.078-.863 2.885-1.182 3.14-2.702.354-1.001 1.506-.104 2.12-.471 1.639-1.063 3.52-2.259 4.856-4.101.376-.52.13-.389.302-.907.266-.8 1.755-.78 2.114-.885 1.076-.472 1.695-1.835 2.565-2.463 1.024-.734.556-1.428 1.17-2.424.461-.524 1.202-.156 1.766-.47 1.099-1.442 2.925-3.525 3.826-6.54.358-.471.767-.256 1.413-.353 1.036-1.673 2.891-3.702 2.654-5.817.173-.454 1.704-.367 2.114-2.194.777-3.419 2.59-3.416 1.707-5.714.408-.366.715-.064 1.177-.589.515-1.3 1.047-2.502 1.344-4.088.146-.779.194-1.727.245-2.686 1.28-.68 1.118-1.296 1.472-2.297.942-1.708.39-3.78.235-4.948.648-1.473 1.137-2.743 1.24-3.582-.205-1.728.733-2.698-.651-4.076-.362-.737.348-1.368.706-1.944 0-2.356.442-6.154-.412-7.363m-1.295-5.655c.253.739.471 1.06.53 1.65 0 0-.08.986-.258 1.458-.213.569-.582-3.044-.801-4.227l.411-.177c.326.222.118 1.296.118 1.296m-2.045-10.255s.16.931.358 1.632c.28.995.363 1.586.736 2.468 0 0-.307.057-.378-.379 0 0-.355-1.057-.338-1.015-.545-1.016-1.014-2.09-1.014-2.905 0-.775.636.199.636.199m-2.605-6.648c.377 1.134.56 1.758.974 2.806 0 0 .338.677.239.697s-.259-.06-.259-.06c-1.014-1.647-1.85-4.836-1.63-4.936.218-.1.676 1.493.676 1.493m-3.78-7.822.557.995c.762 1.17.478.575.955 1.791l.179.538s-.107.01-.477-.637c-.445-.775-.968-1.469-1.373-2.29 0 0-.378-.696-.258-.755s.417.358.417.358m-5.688-8.559c.439.185.737.893 1.014 1.274.316.431 1.034 1.732 1.034 1.732.79.672.796 1.015.856 1.074l-.12.1c-.656-.498-.254-.264-.895-.976l-.437-.617c-.602-.7-1.441-1.353-1.525-2.38zm-4.177-5.254c.318.537 1.03.871 1.87 1.87 0 0 .34.708-.02.359-.82-.797-2.108-2.17-3.023-2.966-.267-.232-.14-.497.02-.478.159.02 1.153 1.215 1.153 1.215m-7.757-7.265 1.532 1.612c1.48 1.029 2.941 2.53 2.486 2.19-.955-.715-1.939-1.278-2.65-2.142-.285-.237-.596-.363-.89-.625 0 0-.478-.378-.657-.697s.18-.338.18-.338m-6.782-4.28c.02-.417 1.392 1.036 2.366 1.314.265.076 1.313.916 1.313.916.94.52.557.14 1.154.896 0 0-.414.01-1.074-.359-.978-.547-1.492-1.055-2.631-1.73 0 0-1.148-.618-1.128-1.036m-8.513-4.816c.119-.418 3.063 1.712 4.395 2.369 0 0 1.054.557.935.577-.12.02-1.337-.407-2.785-1.174l-1.431-.637s-1.234-.717-1.114-1.135m-7.52-3.064c.22-.239 2.344.769 2.706.975.437.22.775.2 1.71.677 0 0-.031.172-.855-.04-.76-.195-1.205-.173-1.916-.564l-1.605-.57s-.258-.239-.04-.478m-6.861-1.751c.179-.279 3.36.597 3.36.597-.014-.007.076.224.06.219-.126-.052-.453.008-.815-.02-.845-.067-1.77-.259-2.526-.418 0 0-.258-.1-.08-.378m-9.627-1.234c1.015-.02 2.947.124 4.217.537.452.013.029.297-.298.239-1.691-.299-3.342.06-3.7-.259-.358-.318-.219-.517-.219-.517m-8.592.199c.125-.55 1.334-.255 1.66-.234.223.014 1.666.1 1.781-.005 0 0 1.114.279.716.338-.397.06-3.818.18-3.818.18zm-8.93 1.114c.441-.357 1.547-.215 2.228-.278.548-.051 2.426-.28 2.426-.28.653.215.358 0 .378.16l-.577.12c-.517.035-1.412.264-2.008.398-1.153.258-1.134.199-1.74.256l-.588-.057zm-4.455.936s1.074-.398 1.333-.398-.219.278-.219.278c-.992.635-1.192.543-2.367.836l-1.087.52s-.922-.122-.464-.44c.457-.319 2.804-.796 2.804-.796m-9.248 3.443c.151-.357.129-.064.517-.219a102 102 0 0 1 1.233-.458c.313-.117.763-.557 1.094-.557.312 0 .56-.165.81-.258l-.472.417c-.764.522-1.017.525-1.81.856l-1.193.597c-.105-.266-.264-.177-.18-.378m-7.737 4c.298-.517.779-.564 1.233-.815l.736-.498c.347-.075.656-.319.855-.279 0 0-.36.401-1.253.876l-1.114.796zm-7.001 5.215s1.137-.883 1.571-1.254c.69-.588.955-.915 1.81-1.373l.239-.12-.219.379c-.716.517-1.333.657-1.95 1.612-.312.484-1.391 1.055-1.391 1.055-.175-.107-.165-.155-.06-.299m-5.51 4.737c.1-.179 2.089-2.13 2.546-2.229.458-.1-.616.617-.616.617-.719.77-1.042 1.05-1.71 1.732 0 0-.319.06-.22-.12m-6.12 6.582c.631-1.009 1.038-1.347 1.865-2.183l.119.04s.069.158-.378.696c-.474.571-.835 1.075-1.308 1.662zm-4.928 7.223c.433-1.493 1.351-2.447 2.265-3.432v.433c-.548 1.275-1.79 3.345-1.963 3.345-.172 0-.302-.346-.302-.346m-4.894 9.13c.377-.425.669-1.337.95-1.835.43-.765.495-1.273 1.1-2.093l-.13.647c-.438 1.446-1.208 2.547-1.855 4.037l-.286-.142zm-1.768 4.922.107.388c-.043.648.022.906-.496 2.116l-.474.928c-.048-1.486.863-3.432.863-3.432m-2.395 9.713s.184 2.008-.403 3.311l-.2-.138c-.022-.755.236-1.748.603-3.173m-1.272 9.865.042-1.107.022-.512c.771.325.324 2.18.324 2.18-.043 1.057.216 1.878.026 2.51l-.297.089c-.376-.333.1-1.204-.117-3.16m.366 9.713-.259-2.31.108-.583c.173.216.28.691.28.691-.149.546.116 1.073.195 1.64.108.777.28 2.008.064 2.008-.215 0-.348-.761-.388-1.446m1.683 10.296c-.043-.623-.34-1.404-.475-2.352-.09-.639-.108-.95-.15-1.49l.085-.043c.083-.136.45 1.093.45 1.093l.435 2.77zm1.92 6.109c-.571-.912-.583-2.31-.648-2.353h.022c.81.655.54.432.532.443l.33 1.672zm3.184 7.695c.072.464-.132.257-.251.248l-.56-1.08c-.593-1.235-.494-.952-.907-2.093 0 0 .524.332.928 1.403.2.527.53.821.797 1.319zm3.545 6.961-.28.022c-.105-.108-.09-.126-.41-.712-.191-.35-.388-1.188-.388-1.188.176.342-.042-.429.129 0 .345.864.41.777.918 1.463zm3.268 5.163c-.764-.894-1.09-1.407-1.068-1.515l.194-.108c.54.346.755 1.123 1.209 1.467 0 0 .69 1.016.538 1.08-.15.065-.873-.924-.873-.924m6.784 8.09c-.755-.798-2.367-2.703-3.257-3.82l.388-.151c.35.458.108.583.884 1.015.954.53 1.402 1.826 2.114 2.158l.324.756zm6.794 5.7c-.604-.583-1.577-1.333-2.221-1.88-.47-.398-.72-.838-1.23-1.099l.496.022c1.014.906 2.222 1.942 3.3 2.676l-.043.302zm8.758 5.504c-.717.105-2.263-1.36-2.925-1.761-.42-.255-1.282-.333-1.282-.333l-.345-.777h.216a7.7 7.7 0 0 1 1.618.777l2.545 1.576zm7.786 3.475c-.5.074-1.58-.667-2.135-.95-.756.004-.45-.236-.798-.323a3.9 3.9 0 0 1-1.23-.367l-1.035-.54c.111-.268.032-.142.216-.194.288-.082.675.317.84.302l3.344 1.446.69.26zm54.504-1.795c-.589.884-3.327 1.513-3.885 1.709l.883-.59c1.016-.394 1.047-.518 1.942-1.177zm3.958-1.87c.12-.292 3.093-2.194 4.224-2.194 0 0-4.382 2.579-4.224 2.194m10.562-6.739c-1.143.864-3.861 2.914-3.926 2.806-.064-.107.766-.912.766-.912 1.37-.577 1.59-1.472 2.708-2.12zm3.257-3 .765-1.29c.353-.413.25-.694 1.118-1.356 0 0 .302-.616.857-.514.556.102-2.74 3.16-2.74 3.16m7.635-9.195c.648-.354-.415 1.211-1.164 1.964-.475.477-.929 1.272-1.38 1.835l-.023-.28c.734-1.037 1.92-3.166 2.567-3.52m3.947-5.138c-.569.989-.72 1.29-1.013 1.468 0 0 1.026-2.74 1.85-2.74.475 0-.837 1.272-.837 1.272m4.94-8.44c-.388.56-.758 1.44-1.294 2.417l-.101.628c-.374.646-.31-.045-.31-.045.51-1.056 1.403-3.864 1.403-3.864l.216-.13zm1.984-4.987c-.15-.15.257-1.94.993-2.892 0 0 .176.044.129.194s-.97 2.85-1.122 2.698m1.1-9.67.053 1.268c-.297 1.463-1.227 2.75-1.347 4.064.002.045.432.429.432.475 0 .932-.473 1.08-.928 1.77-.136.37-.397.438-.626.798-.358.568-.97 2.526-1.12 2.979-.204.61.564.222.883.561l-.021.497c-.99.636-1.71 1.075-2.243 2.072-.19.355.366.324-.108 1.338-.14.298-.435-.041-.777.367-.556.666-1.306 1.995-1.503 2.573.042.097.166.255.166.255.11.217.82-.323.755.194-.012.085-.28.648-.28.648-.563.228-1.144.648-1.705.993-.624.384-2.74 3.578-2.74 3.583 0 .144-.65.876-.375 1.102 0 0 1.217-.303 1.11.259-.05.258-.639.506-.639.506-.627.347-1.33.604-1.82.983-1.295 1.446-2.276 2.523-3.718 4.448-.005.038-.338.517-.338.517-.042.388.34.706-.127 1.003l-1.296.824c-1.255.533-2.295 1.885-2.295 1.885l-.707.707c-.39.38-.6.394-.576.452l-.483.668c.083.106 1.004.573.416 1.044-.138.11-.389.063-.798.108-.669.388-1.295.324-1.295.324-.862.021-1.127.702-2.797 2.058-.632.513-2.472 1.178-2.708 1.59-.235.413.648.943.648.943l-.706.294c-1.515-.032-1.976-.024-3.238.707-.728.423-2.067 1.19-2.884 1.473-.154.164-.954.511-.89.9.026.15.9.13 1.008.278l-.274.434-.712-.108c-2.413-.648-3.977.763-6.96 2.148l-.471.883s-.832-.604-1.18-.709l-1-.26-.142.148-.058.133c-.72 1.66-1.976 2.2-3.448 2.455-.712.124-3.56 1.021-4.473 1.297-1.697.511-4.088 1.24-5.822 1.266-1.382.396-1.904.332-3.36.324-1.295-.008-5.031.259-5.031.259-5.78-.367-10.745-.377-17.985-3.97-.89-.415-2.417-.712-3.356-1.237l-.588-.648-.883-.766c-1.729-1.337-2.554-2.122-4.237-2.489-.505-.235-1.017-.682-1.596-.885-.176-.025-.47-.056-.56.194-.082.226.335 1.08-.238.886l-.582-.475s-1.251-2.763-6.45-5.073c-.059.066-.366.151-.366.151-.179.238-.41.972-.69.929-.281-.044-.563-.684-.563-.684l-.033-.067c-.266-.557-.92-1.742-1.281-2.25-1.38-1.295-2.469-2.372-4.444-3.432-.123.005-.425-.138-.539-.021l-.28.28-.345-.345c-.216-.518-.418-.936-.46-1.385-.024-.239-.13-.268-.209-.45-.065-.08-1.273-1.296-1.273-1.296-1.057-1.375-1.639-2.244-2.933-3.108-.15.096-.764.316-.906.302l-.28-.021-.193-.425-.032-.154c-.144-.806-.25-1.32-.466-2.055-.569-1.184-1.575-2.175-2.404-3.313l-.271-.371s-.021-.352-.388-.352l-.625.583-.194-.497c.064-1.532-.065-2.633-.97-3.518-.571-.558-.724-1.471-1.058-2.116-.144-.263-.505.02-.82.043-.335.024-.488-.225-.56-1.1.008-.111-.065-.454-.065-.562 0-1.232-.32-2.116-.776-3.13-.283-.627-.86-1.367-1.036-2.05-.358-.36-.189-.111-.517-.194l-.518-.475c.046-.346.15-.914.15-1.252 0-1.421.022-2.094-.603-3.497l-.475-2.094s-.136-.226-.323-.475l-.734-.28c-.191-.074-.13-.793-.129-.798.162-.549.28-1.181.28-1.728 0-1.08-.356-2.145-.603-3.194 0 0-.293-1.152-.324-1.295-.06-.047-.777-.13-.777-.13-.26-.186-.158-.429-.086-.561.173-.379.475-1.261.475-1.662a7.4 7.4 0 0 0-.173-1.641c-.139-.646-.194-1.533-.431-2.266-.043-.133-.228-.55-.216-.691-.333-.476-.488-.915-.488-1.435 0-.829.409-.816.704-1.608.196-.526.384-3.982.384-4.18 0-.92.241-.893-.082-1.432l-.928-.756c.026-1.035.863-1.975 1.208-2.828.363-.898.52-2.158.524-3.228 0 0 1.439-3.873.7-3.985-.423-.064-.503.037-.685.09l-.129-.475c.453-.712.762-1.135 1.38-1.986 0 0 .444-.887.475-.928.024-.077.54-1.532.54-1.532.334-.96.69-1.656.69-2.655 0-.382-.235-.885-.216-1.188l.094-.436c1.222-.967 2.106-2.197 2.796-4.593l.755-1.317c.05-.243.56-.72.56-1.057 0-.417-.314-.146-.56-.454l-.237-.194.517-.518c1.971-1.07 2.812-3.182 4.034-5.051l.733-1.144c.226-.157.564-.523.647-.69.108-.217.404-.401.29-.663-.1-.232-.477-.16-.676-.219-.094-.028-.194-.336-.1-.378.498-.219.754-.697 1.154-.796 1.458-.864 2.235-2.036 3.282-3.403 0 0 1.272-1.31 1.353-1.414.119-.398-.384-.795-.384-.925 0-.122.98-.826.98-.826 2.466-.776 3.043-1.97 4.853-3.861.12-.717.137-.81.616-1.095l.816-.219c.696-.16 2.685-1.91 4.412-2.944 0 0 .682-.41.76-.48l.138-.497c-.179-.438.063-.651.657-.796 1.318-.321 7.359-2.17 7.2-3.722l.289-.414 2.237-.104c.815-.537 1.481-.702 3.13-1.398 0 0 .927.025 1.086-1.07.633-.233 2.119-.184 2.546-.179 0 0 1.145-.237 1.193-.238.528-.31 1.122-.473 1.699-.623.87-.227 1.324.026 1.344-.95l.915-.199s3.7.1 5.696-.295c0 0 1.444-.163 1.723-.342.477-.378.088-.802.338-.875.365-.107 1.18.333 1.77.636.063.004 2.725-.02 2.725-.02 1.547.118 2.404.263 3.799.06-.06-1.055 1.73-.399 2.386-.04.515.282 2.228.12 2.228.12l2.645.597c.92.129.219-.279.577-.358.806-.18.912-.342 1.352 0 .207.16.891.653 1.114.736 1.67.378 3.392.785 4.873.915l1.432.1.318.318c.451.49.113.174.696.438.47.213 2.576.64 3.003.995.525.157 1.082.279 1.552.577 3.818 2.429 2.114.085 2.406-.02.279-.1 2.01 1.871 2.01 1.871.357.359 1.601.784 3.22 1.755.82.493 2.024 1.464 2.09 1.21.437-1.69 1.94 1.255 2.844 1.812.517.319.895.613 1.293.876-.133-.048 1.98 1.284 2.129 1.493 1.392 1.95 1.492.16 1.69.08.199-.08 1.452 2.01 1.452 2.01-.06.557 1.697 1.82 2.725 2.607.689.525 1.078 1.843 1.432 1.652 1.293-.697 1.094-.737 1.97 1.473.314.794 1.869 2.17 1.869 2.17.676.915.437.835.815 1.213.688.688.36.841 1.253.597l.338.12c.277.395.499 1.449.617 1.89.113.427.818 1.036 1.054 1.374 0 0 2.406 4.08 2.705 4.1s.636-.696.815-.577c.18.12.24 1.294.24 1.294l.099.497c.157 1.226.819 2.219 1.312 3.284.453.982.756 1.513 1.293 2.588 0 1.174.926.588 1.134.776.114-.058.025.547.1.557l.258 1.035c.192 1.294.358 2.522 1.074 3.563l.278 1.055c-.087.579.65.227 1.143.456l-.062-.017c.246.024.165.395.144.59-.017.142-.346.755-.104 1.951.021.106.765 2.415.765 2.415.29 1.429.366 1.96 1.472 2.946 0 0-.083 1.519-.295 2.12-.314.886.295 2.015.295 2.415 0 .36-.312.825-.06 1.178.438.636.337.712.413 1.473.1 1.002-.249 1.946.647 2.474l.471.295c-.101.779-1.201.637-.765 6.008.078.964-.83.636-.236 1.414l.942.766-.332.858c-.354.697-.93 1.022-.963 1.792l-.059 2.416c.013-.401-.232.665-.337 1.555-.111.944 1.445.238.172 2.44-.074.127.092.26.043.431-.093.326-.666.178-.755.432m1.273 2.655s-.174.922-.345.842.302-3.82.604-3.799 0 .82 0 .82l-.006.808c-.08.466-.075.269-.252 1.33zm.928-7.663-.087.734-.215 1.08c-.354-.413-.012-.883.038-1.665.02-.303.038-1.077 0-1.237 0 0-.028-1.1.176-1.413l.53-.413-.054.67c-.412.765-.274 1.075-.388 2.244m.796-7.331s-.648-3.83-.177-3.888c.471-.06.353.824.353.824.03.97-.176 3.064-.176 3.064" style="fill:#000;fill-opacity:1;fill-rule:nonzero;stroke:none" transform="scale(4)"/><path d="m45.908 139.208.056-1.878c-.067.608-.136 1.326-.056 1.878M56.754 30.41c.114.742-.828.256-.228 1.228-.372.543-1.001.909-1.529.592-.67-.678-2.497-1.45-.727-1.764-.6-.742-.06-.879.257-1.142.792.106 1.57-.172 2.227 1.085m20.47.429c-.286.742-1.003 1.376-1.057 2.114-.843.211-1.319-.39-1.741-.972 0-.527 1.798-.742-.043-1.648.423-.686 3-.55 2.84.506m-12.647-.286c.278-.136.557-.52.829-.514.255.005.485.4.599.857.077.31.502.344.485.657a1.25 1.25 0 0 1-.942 1.171c-.171-.184-.344-.436-.514-.428-.514.286-.999.743-1.427-.543.03-.265.235-.239.285-.429-.142-.285-.088-.522.029-.685.169-.104.415.032.656-.086m23.208 1.315c.104 1.161-1.16.897-1.477 1.742-.633.052-.792-.634-1.372-.738-.369-.371-.844-.687-.633-1.268.264-.422 1.16-.106 1.003-.844.897-1.479 2.374-.106 2.479 1.108m-31.601 4.628c.114.064.314.2.114.885.286.257.343-.742.742-.571 1 .571-1.142 1.485-.656 2.114-.97 1.143-1.808.112-2.123-.522-.086-.457.039-.964.581-1.05.057-.342.23-.603.4-.942.461-.198.564-.128.942.086m10.864.89c0 .845-.58.95-.37 1.847-.37.476-1.001.16-1.53.264-.738-.264-.421-1.318-1.213-1.636-.052-.37.053-.634.37-.844 1.002.686 2.11-.898 2.743.369m16.936 1.693v.74c-.79.264.053 1.108-.737 1.372-.423-1.056-2.217.053-1.9-1.531 1.054-.475.474-1.742 1.636-2.111.791.211.157 1.214 1.001 1.53m-11.496-.938c-.263.633-.527 1.372-1.107 1.74-.476.055-.897-.052-1.267-.368-.21-.739-.052-1.003.265-1.636.686.105 1.74-.74 2.109.264m16.205.183c-.633.422-.633 1.794-1.634 1.371-.37-.528-1.318-.421-1.213-1.213.633-.106 1.054-.792 1.741-.898.473.106.95.211 1.106.74m-11.357.737c-.053.37-.422.74-.74.793-1.159.264-1.37-.844-1.792-1.53 0-.37.21-.529.527-.634 1.213-.316 1.213 1.003 2.005 1.372m-15.1 2.376c-.324.347-.78.475-1.15.369-.632-.37-2.258.309-2.047-1.169 1.056-.371.835-1.839 2.004-1.34zm25.307 1.165c0 .687-.264 1.637-1.109 1.637-.421-.528-2.066.346-1.644-.973.686-.74 2.12-1.983 2.753-.664m-5.579 1.292c-.58.686-1.595-.114-2.017.835-.317.053-.686 0-.74-.37.212-.685-.371-1.234.473-1.55.74.369 2.073.134 2.284 1.085m-24.835.987c-.528.474.158 1.478-.633 1.848-1.267.21-.897-1.267-1.583-1.638-.158-.58.527-.685.844-1.002.633-.105 1.002.37 1.372.792m31.63 2.584c.421.159.4.696.4 1.172-1.056.369-1.52.718-2.839.559-.421-.421-.509-.974-.245-1.502.423-.58.984-1.137 1.617-.768.316.845.644.065 1.067.54m-3.798 1.256c-.083.75-.012 2.039-.55 2.2-.528.054-1.102.214-1.42-.314.422-.845-.743-.952-.321-1.638.897 0 1.5-1.145 2.292-.248M55.386 50.65c.475.74.264 1.374-.211 2.007-.527.369-.633-.264-.738-.633-.475-.37-1.424-.16-1.372-1.11.105-.422.528-.686.95-.633.316.528.95.581 1.371.37m33.486 2.931c.315.37.421.845.369 1.373-.37.526-.95.843-1.477.526-.422-.737-1.582-1.318-1.162-2.27.264-.369.634-.369 1.003-.369.423.264.633 1.057 1.267.74m-4.51 3.143c.368.686-.054 1.53-.74 1.636-.737-.37-1.688-1.161-1.898-2.006.738-.95 2.11-.317 2.638.37M56.62 59.521c.158.475-.475.792-.74 1.004-.527-.212-1.002.421-1.37-.16.316-.738-.212-1.53.474-2.11.95-.212 1.794.21 1.635 1.266m31.657-.335c.369.58-.105 1.214-.528 1.53-1.056.212-1.845-.316-2.585-.896.212-.529.37-1.373 1.108-1.478.95-.106 1.214.633 2.005.844m-5.968 1.977c-.053.528-.632.739-1.002 1.003a.756.756 0 0 1-.897-.475c-.263-.634-.105-1.689.738-1.636 1.003-.423.739.74 1.161 1.108m2.158 2.02c-.317 1.266 1.582.58 1.161 1.9-.528.158-.844.686-1.53.475-.95-.423-.58-1.425-.843-2.111.105-.58.948-.633 1.212-.264m5.513 1.984c-.211.633-.264 1.583-1.107 1.74-.422 0-.844-.052-1.108-.474.264-.792.105-1.795.843-2.27.477-.105.95.633 1.372 1.004m-2.129 3.369c.264.95-.95.792-1.372.634-.317-.37-.749-.295-.897-.74l.148-.931c.579.421 1.804.193 2.12 1.037" style="fill:#000;fill-opacity:1;fill-rule:nonzero;stroke:none" transform="scale(4)"/><path d="M63.89 100.678c0 .21-.087.439-.416.373-.812-.966-1.185-.879-1.687-1.463-.052-.263-.082-.442.129-.601.949.106 1.382 1.295 1.975 1.69m.088-1.845c-.316.634-.35.132-.724-.022-.263-.686-1.958-1.118-1.272-1.91.877.285 1.843 1.185 1.996 1.932m-4.82-23.265c.35.027.35.215.269.512-.58.422-1.104.431-1.67-.189 0 0-.35-.27.566-.27.161 0 .484-.08.835-.053m-.162-.566c-.216-.62-.997-.027-.781.054-.106.263.377.35.673.27 0 0 .135-.028.108-.324m-1.504-1.97c.106.528-.355.676-.516 1.026-.377.081-.79-.14-1.159-.404-.105-.633.431-.89.937-.99.317 0 .528.104.738.368m2.608-.24c.053.633-.576.262-.84.683-.37-.052-.593-.072-.857-.441-.157-.37.14-.703.404-.809.58.052 1.24-.225 1.293.566m11.152-6.065c-.264.474-.28.601-.754.97-.633-.105-1.07-.238-1.543-.766.264-.95 1.22-.177 1.893-.5.22-.106.404.296.404.296m-1.966-2.507.172.21c.475.21 1.476-.68 1.74.06.135 1.105-1.197.922-1.778 1.132-1.107-.317-.136-1.78-1.454-1.78-.528.053-.987-.263-1.41-.526-.072-1.01 1.087-.983.979-1.172s-.89.108-.727-.566c2.262-.997 1.95 1.428 2.478 2.642m24.696-35.64s-.207.228-.04-.18c.068-.514.403-.785.528-1.29.1-.032-.132-1.819.066-3.142l.166-1.158c-.277-.834-.377-2.343-.52-3.429-.165-1.588-.406-2.823-.604-4.279-.043-.313-.335-.521-.33-.827l.264-.628c.623-.673.86-1.125 1.09-1.82.068-.202.015-1.216-.066-1.422a21 21 0 0 0-.495-.497c-.686-.844-2.314-.364-2.314-.364-.533.39-.778.325-.86.927-.06 1.033.26 2.041.562 2.315l.496.033h.066c-.661 1.688-.424 2.906-.793 4.467-.671 2.83-1.455 6.847-.356 9.508l.091.338-.43-.385c-1.02-.292-2.324-1.8-3.008-2.58-.35-.4-.662-.284-1.014-.567l-.228-.182.515-.079c.168-.095.253-.08.496-.066.254.015.363.728.86.563.069-.023.561-.133.495-.827-.562-.464-1.124-.526-1.124-.96 0-.21.158-.495.199-.694.043-.23 0-.45 0-.63 0-.342-.893.166-.662-.164.399-.57-.561-.563-.561-.563l.826-.728c.447-.407.552-.318.552-.793a1.4 1.4 0 0 0-.094-.486c-.194-.507-.926-1.03-.987-1.268-.017-.067.86-.595.86-.661 0-.357.275-2.016-.1-2.515-.099-.132.573-.386 1.463-1.1l.105-.607c.062-.232.108-.425.108-.595 0-.186-.22-.975-.37-1.128-.204-.357-.486-.466-.812-.592-.275-.108-.42-.047-.659-.311 0 0-.03-.96-.03-1.189 0-.457-.064-.691-.333-.995-.914-.686-2.652-.218-2.652-.218l-.03.008c-.393.211-.276.238-.525.74 0 0-.16.522-.165.53.014.114.24-.03.231.066-.103 1.153-1.288 1.091-1.533 1.602 0 0-.123.245-.127.248q-.078.255-.077.487c0 1.072.051 2.129 1.728 2.582l.078.05.394.225c-.27.164-1.56.769-1.157.86-.53 1.157.231 2.183.76 2.547l.364.1-.8.643c-.232.528-.357.833-.357 1.374 0 .307.277.466.396.794.23.132.408.506.458.673a.6.6 0 0 1 .023.152c0 .185-.419.17-.514.333-.095.17-.132.43-.132.43l.033.066c-.246.2.494.808.166.86-.57.092-2.215-.154-2.215.298 0 .025-.002.669 0 .695.342.285 1.948.12 2.38.1.424-.02.34-.213.793.098l-.826 1.059c-.699.919-2.102 2.15-2.797 2.982l-.111.17-2.306-2.488s-1.228-1.143-1.856-1.857c-.034.03-.515.026-.515.026-.58-.453-1.364-.656-1.636-.32-.064.08.695.21.58.35-.319.394-.342.458-.713.772l-.972.943c-.684.6-1.398 1.771-2.297 2.28l-.11.006-.06-.09c-.652-.942-1.774-2.148-2.528-2.968l-.856-.857.143-.314c.496.243 1.321.074 1.72.107.335.03.544-.226.694-.364.073-.067-.117-.496-.1-.661-.28-.092-1.86-.32-2.487-.38-.49-.047.339-.547.339-.547.343-.274.358-1.305.132-1.62-.141-.173-.562-.653-.562-.828 0-.307.682-.6.826-.86.114-.206-.132-.841-.1-1.033l.005-.031.015-.028c.074-.144-.02-.3-.02-.43 0-.352-.108-.643-.352-.967-.227-.301-.494-.017-.494-.356q0-.075.016-.148c.054-.263.93-.414.666-1.572.166-1.31-.514-1.402-.364-1.489.629-.364 1.323-.132 1.895-2.186l.116-.54c.067-.21-.507-.76-.77-.963-.5-.384-1.185-.214-1.185-.938 0-.177.209-.666.047-1.256.022-.676-.453-.834-1.231-1.032 0 0-.764-.243-.75-.237-.33-.124-.646-.038-.852.056-.434.197-.96.66-1.129 1.11a1.5 1.5 0 0 0-.043.376c0 .197.026.403.052.605.025.194.267.811.115 1.003s-.752.34-1.09.397c-.153.344-.257.55-.257 1.119 0 .233.064 1.068.142 1.3.14.364.379.39.708.429.358.041.738.092.966.679l.04.104s-.74.239-.4 1.865c.057.278.043.574.134.85.027.16.204.307.373.449l.31.118c-.078.328-.066.199-.3.271-.594.183-.372 1.026-.472 1.403-.32 1.205.384 1.266.774 1.54l.12.085-.046.14c-.19.565-.671.094-.671.73 0 .265-.159 1.67-.087 1.933l.044.156-.145.073c-.27.135-1.232.178-1.531.154-.794-.067-.401.415-.628.86-.199.926 1.131.344 1.785.231.498-.084 1.355.265 1.355.265s-1.189 1.353-1.785 1.985c-.562.595-1.157 1.422-2.035 2.257l-.058.097-.325-.395-3.34-3.314.085-.543c-.027-.082-.43-.416-.43-.48 0-.124 1.948.431 2.547.377.325-.029.262-.758.307-.894q.002 0 .002-.014c0-.052-.055-.249-.551-.702-.385 0-.923.158-1.051-.016a.5.5 0 0 1-.096-.313c0-.176.4-.44.463-.628.074-.218.06-.358.06-.507 0-.2-1.08-.755-1.08-.755l.18-.218c.364-.44 1.073-1.095 1.073-1.523 0-.329-.698-.94-.77-1.296-.073-.367.507-.656.507-1.044 0-.31-.163-.327-.03-.657.004-.037-.08-1.385-.08-1.385l.172-.015c.252-.021.519-.111.714-.391.129-.185.537-.537.573-1.084-.003-.041-.011-.084-.011-.127 0-.198-.057-.437-.023-.655.036-.22.07-.446.07-.661q0-.255-.093-.482l-.215-.125c-.752-.428-1.614-.06-1.375-1.075-.445-.593-.567-1.612-1.373-1.851h-1.58c-.429.21-.25.58-.583.971 0 .026-.372.227-.372.253 0 2.126-.388 1.313-.746 1.82-.272.387-.12 1.083-.12 1.523 0 .385.298.54.806.926l.214.016c.18.079.52.224.52.572 0 .079-.246.267-.287.368 0 0-.507.03-.507.597 0 .325-.238.759-.179 1.104.24.836.73 1.17.73 1.421 0 .347-.44.577-.64.878-.239.358-.372.578-.372.881 0 .261.11.509.416.749.227.086.894.5.958.785a.5.5 0 0 1 .012.105c0 .264-.168.36-.463.447-.164.048-.313.186-.313.286l.085.429.025.122-.19.14c-.27.201-.723.072-.731.357 0 .003-.14.24-.14.243 0 .038.271.48.397.586.656.179.828.143 1.284.257l.2.171-.314.515c-.57.628-1.142 1.8-1.827 1.885-.171.743-.314 1.086-.97 1.4l-.528.196.091-.452c.143-.703.349-2.18.349-2.836 0-1.234-.16-1.546-.37-2.765-.214-1.25-.313-2.6-.477-3.974-.022-.182.003-.368.01-.556l-.224-2.07c-.001-.173-.011-.345-.005-.515.082-1.909.769-1.193 1.058-2.526-.02-.848-.707-1.383-1.488-2.135-.663-.044-1.23.07-1.655.32-.472.43-.884 1.267-.88 1.814 0 0 0 .135.008.129.147.491.147 1.206.863 1.414l.3.353-.005.113c-.07 1.684-.348 2.586-.683 4.28-.375 1.898-.6 3.49-.847 5.553-.294 2.457.206 3.15.837 4.471l.105.558-.342.6c-.18.56-.658 1.68-.658 2.226 0 .384.188.769.43 1.116 0 0 .285.2.456.215 0 0-.021.323.057.442.154.015.828.543.828.543l.428.543c-.542-.114-1.065-.013-1.256-.457-.14-.325-.355-.347-.542-.257-.13.063-.47.373-.545.69a.7.7 0 0 0-.023.177c0 .387.279.731.54.875.08-.02.513-.028.513-.028.368-.119 1.028 0 1.428.171l-.081.297-.022.498s.027.27.242.27l.135 1.59s-.27 2.372-.108 2.857.027 2.21.027 2.21.243.674.162.836c-.507 1.014-.27.89-.081 1.482.189.593 0 7.17 0 7.17s-.189 4.34-.108 5.473c.071.997.081 4.043.081 4.043s.296 2.345.162 2.669c-.501 1.203-.027 3.477-.027 3.477s.161 1.348.027 1.671c-.76 1.826-.081 2.318-.081 2.318s.162.513.054.674c-.603.904-.027 1.86-.027 1.86l.027 1.618s.458 6.873-.377 6.927-.404-4.69-.404-4.69.458-2.776.134-4.044c-.323-1.267.027-5.364.054-5.957s-.08-1.67-.08-1.67V56.86l.134-1.645-.108-4.07v-8.33c.108-1.482-.242-.916-.161-1.482.19-1.337-.027-2.4-.027-2.4l.107-3.476-.161-.378c-.607.047-1.024.566-1.158 1.564.184 2.432.269.835.188 3.423-.052 1.677.116 4.05.08 6.426-.095 6.28-.168 20.048-.217 24.553-.036 3.291.108 4.09.108 9.655 0 .958.015 3.936.022 4.875v.054l-.027.046c-.593 1.029-1.219 2.35-1.219 3.434 0 .405.083.802.279 1.182.572.838.858 1.621.858 2.455 0 1.122-.481.745-.615 1.519-.11.637.1.485-.526 1.669-.172.325.373-.307-.351 2.371-.173.64.175 1.493.175 1.493 1.163.747 1.185 2.394 1.185 3.119 0 .498-.768.351-1.25 2.46l-.571.46c-.46.634-.307.592-.307 1.318 0 .161.012.707.065.878.461.878 1.317.791 1.317 1.603 0 .42.038.548-.022.967-.058.407-.117.822-.117 1.213 0 .25.024.488.087.71.144.924.237 8.887.237 9.764 0 .884-.05 1.772-.103 2.726l.072 3.526c-.264.856.1 2.967.263 4.523.044.417-.11.176-.176.571-.121.728.17 1.03-.215 1.728l-.772-.367-.7.03c-.19.048.052.161-.057.26-.008.02-.019.043-.019.062 0 .076.414.187.6.33l1.31.505c.36 1.037-.193.989-.193.989.06.254-1.18 2.94 5.348 4.435 1.782.627 2.937.52 4.625 1.206 5.228 1.205 13.61.964 21.175 1.133 2.578-.241 5.131-.94 7.613-1.47 1.952-.845 3.325-.727 5.276-1.52 0 0 2.083-3.271 1.493-3.64a1.48 1.48 0 0 1-.698-1.326c.192-3.664-.223-5.197-.145-5.52.65-2.7-.602-3.448.12-8.004 0-6.77-.096-5.16-.15-12.221l.367-.46.627-.072c.216-.217 1.47-1.326 0-2.555-.11-.49.281-.566.048-.989-.506-.916-.301-1.459-.193-2.11.037-.22.39-.595.448-.808.096-.48.481-.794.78-1.144.238-.278.11-.673.218-.976 0 0 .47-.326.47-1.158 0-.814.11-1.56-.109-2.422s-.434-1.629-.434-2.496c0-.845-.506-1.048-.108-1.916.016-.046.673-.865.673-.865.126-.36.508-1.63.508-1.97a1 1 0 0 0-.223-.646c-.594-.278-2.765-1.635-2.765-2.016 0-.09-1.076-2.393-.83-2.495.433-.18 1.083 3.11 2.637 3.472.315.073.163-.934-.078-1.103l-.083-.058-.001-.101c-.002-.176.069-.532.069-.709 0-1.473.197-1.853.134-3.558-.004-.15.09-2.732.086-2.886-.029-1.085-.2-.6 0-2.514.1-.966-.485-1.314-.114-2.429l-.172-1.228c.007-.66.372-1.257.302-2.665-.11-2.213.12-2.662-.114-5.016.114-.598.153-1.229.153-1.87 0-.702-.38-4.318-.426-5.02s0-2.992 0-3.685c0-.293-.248-.204-.228-.486-.072-.769.366-.645.228-1.2-.257-1.028.056-1.755-.028-3.628-.087-1.914 0-6.283 0-8.2 0-1.15.171-1.657.114-2.628v-2.543c-.145-.41-.229-1.939-.229-2.37 0-.145-.286-.772-.286-.772.143-.372 1.296-.278 1.628-.286.726-.018.634-.279.838-.976a.4.4 0 0 0 .035-.16c0-.137-.09-.248-.234-.41l-.209-.296c-.227-.102-.346-.022-.553.159-.208.18-.406.544-.857.336l-.096-.045-.016-.104c-.058-.36.088-.742.178-1.19a4.2 4.2 0 0 0 .063-1.32c-.046-.349.05.36.002-.002-.047-.361-.19-.78-.58-.968l-.142-.114zm-3.644 108.787c-.758 1.595-.996 1.498-2.487 1.753-.733.122-1.491.252-2.166.557-.96.203-1.892.573-2.834.85-1.748.516-3.466 1.162-5.252 1.189-1.424.398-2.94.509-4.44.5-1.334-.006-3.5-.14-4.88.132l-.164-.015c-6.837-.63-12.533-.9-18.38-4.379l-.094-.055s.095-3.58-.256-4.459-.085-16.284-.415-21.456l-.003-.045.017-.042c.128-.31-.304-2.363-.17-2.742.132-.373.33-.527 1.075-.78l.483.121 2.26.176s2.875-.22 5.947-.264c3.411-.048 7.303.189 8.338.396.265.053.608-.261 1.25-.264 4.038.461 9.524-.125 15.734.307.615-.008.916-.17 1.514-.175.362-.003.721.332 1.075.33.648-.006 1.016-.457 1.624-.462.662-.006 1.581.45 2.179.445l.09-.001.058.067c.12.81.16.916.16 1.771 0 .414-.04.844-.083 1.293l-.095 1.54.113 6.934c.041 3.878-.072 7.1-.072 10.872 0 1.682.062 2.276.024 4.75zM55.442 103.97c-.096.372-.342.498-.527 1.01-.103.286-.072.988-.263 1.208-.57.659-.88 1.196-1.234 1.476-.719.566-.509-.11-.509-.11.668-.949 1.116-2.536 1.743-3.605 0 0 .876-2.016 1.173-2.15s.359.166.359.166c-.211.475-.588 1.407-.742 2.005m2.743-4.04c.044.79-.68 2.328-.702 4.37l-.44 1.647s-.014.498-.328.35c-.659-.307-.483-1.558-.483-1.558.483-1.383.483-1.91.548-2.262.066-.351.831-1.8.784-2.577 0 0 .226-.233.401-.277s.22.307.22.307m-1.69-1.735c.044-.768 1.64-2.404 1.997-2.986.351-.571 1.25-1.274 1.558-1.647.001-.001 1.338-1.296 1.01-1.405-.207-.069-1.603 1.12-2.301 1.44-.624.586-1.035 1.37-1.671 2.205-1.624 1.844-1.756 3.052-3.38 6.148-.043.835-.252 1.142-.482 1.691 0 0-.439 1.537-.724 1.559-.286.022-.088-.856-.088-.856.682-3.636.592-2.482 1.031-4.633.637-2.306 3.138-5.402 3.862-6.17.567-.603 1.448-1.077 1.47-1.362s-.5-.119-.614-.154c-.217-.067-.514.578-.693.674 0 0-.8.82-.93.71-.133-.11-.103-.334-.103-.334l.634-.803c.334-.385 1.706-1.806 1.618-2.004s-1.03-.373-1.03-.373-.286-.22.109-.395.762.123 1.031.088c.53-.071.84-.274 1.443-.12.987.253 1.84.861 2.282 1.628l.026.044v.054c0 .608-.123.658-.416 1.006-.232.28-.46.462-.717.65 0 0-3.408 3.808-4.154 4.928 0 0-2.085 3.847-2.106 3.535-.088-1.251 1.306-2.563 1.338-3.118m11.143-45.592c-.465.23-.851.52-1.37.051l-.302-.193c.517-.373.88-.508 1.294-.399.173.045.45-.241.543-.27.035-.017.073.553.054.566zm-1.5 1.457c.471-.18.968-.322 1.47-.347l2.134-.708s1.971-.486 2.613-.081c.728.458-2.295.593-2.29.593l-2.394.586c-.487.066-.812.348-1.269.492-.357.137-1.09.449-1.4.593 0 0-.103 0-.51.013-.406.015-.164-.358-.164-.358l.038-.019a9 9 0 0 1 1.771-.764m3.658-2.7 1.708.019s.555-.207.824-.126c.27.08-.054.647-.054.647l-.518.196-.825-.147s-.165-.211-.461-.184c-.753.068-.674-.404-.674-.404m9.226 21.493c.036.651.036.904.686 1.23l.506.325s.17-.005.398.145c.318.208.546.517.686 1.085.026.103.29.361.129.526l-.31.45-.397-.65c-.403-.698-1.329-1.076-1.915-1.447-.679-.427-.506-.434-.867-1.52-.139-.311.071-.523.071-.81q0-.135.005-.263.005-.126.005-.246c0-.391-.406-.84-.803-1.103-.13.072-1.384-1.19-1.384-1.19l-.603-.726c-.164-.759-.362-1.085-.253-1.664s.253-.29.253-.29c.14.173.124.181.206.796.083.615.723 1.795 1.239 1.953.783.24 2.196 1.182 2.196 2.154 0 .09-.013.187-.027.284.292.295.159.587.18.961zm-1.265-4.484 2.132 1.7s.26.605.262.626l.005-.002.075.32c.055.156.309 1.117.525 1.913l1.843 1.446.615 1.736s.18.94.903 1.953c.753 1.054-.525.468-.686.144-.615-1.23-1.41-3.471-1.41-3.471l-.433-.181-.362-.47-.903-.687c-.34-.087-.542-2.568-.687-3.038a489 489 0 0 0-1.59-1.41l-.253-.326zm-.398-4.446.192-.065c.25-.083.284.153.373.265l.122.14s.154.414.074.549c-.081.135-.27-.027-.27-.027zM65.742 66.4c-.492-.246-.686-.54-.816-1.278l-.168-1.628.108-.943c.226 0 .545 2.9.647 3.019l.157.332.089.083zm8.938 7.264c.128-.168.637-.116 1.742-1.302.178-.191.727-1.078 1.104-.755l.23.957-.23.148c-.186.063-.22.305-.458.486-.495.376-1.562.728-2.358.738l-.147-.122zm1.486 2.23c1.02.709 2.385.868 2.385.868 1.464-.117 2.686 1.354 3.397 2.242.643.802 2.53 1.59 2.53 1.59l1.734.218c1.4.454 1.409 1.482 2.42 3.001 1.035.614 1.065.89 1.446 1.808 0 0 .785 2.13.687 2.242-.506.579-.362.29-.362.29-.578-2.025-2.493-3.761-2.854-3.87s-1.917-1.691-2.602-2.35c-.529-.141-.756-.336-1.229-.579-.49-.253-1.202-.367-1.951-.94s-1.59-2.893-4.3-2.784c-1.34.053-1.833-.554-2.79-1.63l-.049-.058s.03-.55.03-.593c0-.236.036-.512.312-.678l.654.427zm4.12-6.835-.145-.325c.002.003.506.036.506.036.527.333 1.228 1.12 1.228 1.519 0 2.531.904 2.17 2.24 3.58l.329.924.54 1.788.83.868s.362 1.085-.036 1.085-.397-.94-.397-.94-.687-.435-.976-.94c-.29-.507-.29-2.17-.929-2.906-.252-.29-.625-.675-.625-.675.325.163-.732-.327-.867-.904-.138-.585-.517-1.876-.867-2.314-.007-.01-.825-.787-.831-.796m-14.69 5.978-.012-.5s.452-.716.655-.668c.202.047.095.465.095.465l-.13.143-.298.465zm21.655 1.633c-.06-.215-.212-.415-.371-.628-.236-.312-.777-.88-.777-1.305v-1.338l-.795-.832s1.012.18 1.157.47c.144.29-.109 1.736.578 2.242s1.15 1.121 1.337 1.808l1.3 1.447s-.072.434-.614.036-1.373-1.157-1.77-1.013c-.398.145-.253.29-.253.29l-.072.578s-.398.181-.398-.795c0-.58-1.156-1.23-1.3-1.772-.145-.543.071-1.628-.398-2.315s-1.012-1.12-.578-1.157c.433-.036.758.94.758.94s.579 1.591.542 2.025 1.084 1.302 1.084 1.302.958 1.552.57.017m-6.116 9.638c-.578.543-1.325.412-1.752.09l-.1-.074.023-.122c.023-.11.076-1.232-.972-.454-.098 0-1.572.108-2.2.19 0 0-.215-.197.177-.335.225-.08.216-.271 1.319-.235.452.015.832-.463 1.5-.832.816-.45 1.025-.778 1.916-.988l.45-.06s.75.52 1.138.488c.669-.054.98-.553 1.735.307 0 0-.233.653-.74.886-.451.206-1.013.235-1.013.235-.217 0-1.4.965-1.481.904m.614.579.054.38c-.238.148-.433.542-1.012.904-.158.241-.096.574-.27.56-.301-.02.016-.563-.579-.633l-.885-.687-.036-.596c.394-.343.646.664 1.156.723.583.068.59-.372.705-.651zm-18.772-.217-.454-.257c-.641-.187-1.425-.177-1.462.474 1.41.145 1.38.332 1.863.245 0 0 .067-.1.197-.209zm1.662 4.34c.394 0 1.105.564 1.536.813l.975.524.036.163-.596-.036c-.349.127-1.361-.721-1.391-.741l-.795-.633zm-7.073-20.157c.65-.313 1.119-.716 1.71-.42l.034.018.025.028c.184.203.419.332.668.467.338.186.991.53 1.258.963l.028.048-.086.513c.003.368-.216.324.835.97.054.809-.617.249-.862.755-.156.322.222.437.108.917-.081.341-.35.7-.431 1.428-.62-.053-.535.357-.674.512-.882.552-1.966.836-2.874.185l-.032-.006-.027-.014c-1.044-.603-3.774-3.317-2.589-3.99-.063-.323.108-.836.289-1.2l.003-.076.678-.153c.51-.959.62-1.025 1.94-.944zm8.038 5.867.506-.431c.115-.108.265-.988.56-.962.297.027.259.378.259.378v.624s-.5.723-.905.697c-.404-.027-.42-.306-.42-.306m7.478-14.762c-.081 1.455.485 1.806.485 1.806.134 1.159-.057 2.04-.647 3.585-.332.87-.673 1.51-1.697 1.455-.297-.016-.44.275-.673.297-1.9.18-2.69-1.618-3.556-3.208l-.862-1.482-.04-.953c-.057-.283-.121-.54-.121-.8 0-.911.107-1.266.646-1.86.343-.377.35-.781.485-.916.134-.566-.062-.693-.189-.809 0 0-.484.135-.538.027-.054-.107.484-.7.484-.7l.308.02-.011.546c1.185.188 2.894.155 3.906.054.808-.081.862-.755 1.778-.647l.627.099.53.278c-.05.089 1.078 1.24 1.078 1.564 0 .224-.338.469-.43.296-1.455-2.723-3.097-1.494-3.018-.782.054.486 1.003.778.943 1.052zm-.593-.054c.054-.404-1.316-.38-1.544-.38l-.853.164v-.216c.212-.16 1.22-.725 1.208-.788-.265-.047-.491-.115-.885-.128 0 0-.358.072-.489.101-.385.219-.52.42-.52.649 0 .2.019.257.336.733.161.242.307.485.35.781.587.358 1.244.15 1.814-.266zm-7.076-3.737c-.116-.037.429-.35.429-.35s.256-.395.533-.388c.276.006.312.206.312.206l-.533.532s-.626.038-.741 0m6.16 15.84s-.277-.005-.404.054c-.23.105-.336.306-.458.323-.188.027-.754-.62-.754-.62.136-.08-1.463-1.156-1.463-1.156l-.235-.342.417.035c.392.223 1.187.432 1.362.681.145.206.627.453.862.513l.781-.108s.297.755.674.755h-.108c.134.188.475.181.623.107.373-.188.71.087.966.297.206.171.128.997.01 1.1l-.121.117-.118.082-.384.018c-.259.027-.496-.065-.707-.24-.12-.1-.34-.162-.35-.323.054-.323.189-.835-.135-.862-.323-.027-.458-.431-.458-.431m-.39 10.664c.085.047.19.161.166.27-.024.108-.1.628-.187.678l-.338-.027v-.182c0-.093.018-.93.359-.74m-1.612 1.565c.761-1.555.478.156.904.163.544.01 1.37.06 1.626 0 .83-.192.67-.504 1.416-.225l.03.207-.635.663c-1.19-.113-1.263.277-2.672.24l-.678-.298s-1.11-.479-1.057-.66c.055-.18 1.066-.09 1.066-.09m3.198-2.947c-.046-.017-.008-.16-.008-.282 0-.167.442-.38.5-.511.058-.137.094-.23.094-.305 0-.063-.053-.112-.115-.164-.904-.23-.705-.926-.586-1.04l.027-.025.034-.014c.388-.174.672-.234.814-.66.163-.49-.129-1.195.493-1.294l.198-.031s1.188.257-.077 2.463c.05.032.002.248.036.253.344.055 1.048-1.139 1.391-1.464l.253.09c-.199 1.292-.36 1.5-1.12 2.82 0 0-.09.228-.298.316-.188.081-1.2.01-1.635-.153m3.034-.84c.114-.728.586-.804.586-.804s.337-.705.472-.709c.34-.01.09.942-.217 1.38-.185.266-.117.364-.151.634l-.274.312-.303.178c-.256.066-.916.153-.907.04.01-.114.275-.293.275-.293zm1.736-.3c-.199-.053-.199-.27-.199-.27l.262-.671.389-.143.199.108s.108.398-.036.561c-.145.163-.416.47-.615.416m2.331 3.075c-.018-.181 1.518-.76 1.518-.76l.307-.144.486.052-.324.381s-1.969.651-1.987.47M77.042 64.76l.107 1.213s.1 2.072-.08 1.86c-.041-.047-.35-.448-.432-.89-.133-.726-.053-1.644-.134-1.886-.35-1.043-1.374-.917-1.455-1.402s-.404-1.59-.215-1.617c.188-.027.7 1.213.7 1.213.104.111.79.628.879.628l.145.126zm-5.522 5.364c.835-.566 1.75-.566 3.178.539l.054.863c.02.433.17.628-.17 1.055l-.037.046-.056.019c-.968.322-1.38-.123-2.835.308-.618-.412-.808-1.32-.862-1.752-.054-.43-.512-.781-.512-.781l.189-.162c.283-.034.72-.025 1.05-.135M73 56.62c.127.04.36.614.451.728l-.046.405c-.159.057-.504.075-.738.016l-.128-.032-.02-.133c-.03-.223.328-.054.455-.202.161-.189-1.254-.793-1.132-.755l-1.589-.135s.189-.566.97-.458S73 56.62 73 56.62m-7.865-5.526.166.37v.396l-.37.108-.038-.389.08-.404zm4.068-.216-.377-.161.027-.54h.188l.323.405zm.79 6.748.96-.116s.243-.081.432.135c.188.215-.728.485-.728.485l-1.589-.027-1.158-.323-.35-.35v-.432h.592l.943.566.566.108zm-1.733-1.922c-.594.252-1.024.27-1.643.485-.528.184-.9.267-1.508.485l-.27-.323c.135-1.24 1.665-1.13 2.505-1.267l.97-.54.62-.08.08-.054c.162-.054.465-.124.471-.126a1.6 1.6 0 0 1 .573-.137c.524-.108 1.407-.33 1.73-.249.324.08.54.431.674.647.135.216-.7.243-.7.243-.319.145-.992.275-1.347.27-.15-.004-.669.099-.808.107-.093.019-.62.135-1.266.431zm-3.044 16.011c.14-.151.323-.504.323-.674 0-.184-.141-.69-.225-.942a7 7 0 0 1-.162-.754c0-.008-.007-.013-.007-.02-.01-.305.34-.36.34-.36.19.27.064.293.063.376a1.6 1.6 0 0 0 .314.81c.175.21.566.1.566.405 0 .178-.252.534-.444.743.007.052.015.103.015.153 0 .405-.057.248-.242.567-.177.305-.353 1.826-.81 2.068 0 0-.186-.012-.432.162-.646.458.233 1.135-.458 1.51-.346.188-.593-.107-.97-.189-.325-.07-.996.27-.727-.135.275-.412.827-.19.827-.19l-.013.009-.49-.6h.484c.296.08 1.778-.729 1.509-1.888-.053-.228.485-.62.538-1.051zm-.752-18.268c-.132.375-.64.564-1.01.702l-.204-.036-.189-.242-.134-.216.404-.189c.295-.215.476-.541.85-.624l.14-.031.072.123c.131.217.11.399.07.513m-.094 12.64s.496 1.046.254 1.127c-.243.081-.64-.39-.64-.39l-.141-.688s.053-.512.296-.566c.242-.054.23.518.23.518m-4.326 2.232-.646.242c-.377.02-.647-.027-1.212-.323-.681-.357-.808-.431-1.701.32l-.135.196-.454.023c-.43-.027-.913.112-1.077.27-.62.592-.512 1.105-.512 1.105-.178.43-.258.13-.62.566-1.05 1.267-1.265 2.237-.13 3.574l.939 1.332h-.324l-1.385-1.321c-.65-.036-.507.613-.581.54-.278-.277.108-.594.323-.945-.808-.62-.11-3.181-.565-4.716.27-.595.277-.156.842-.664l.151-.206.434-1.152 1.24-.54c1.131-1.093 1.508-1.374 2.558-1.105.474 0 .952-.142 1.563-.08 2.451.647 3.717.862 5.094 3.21l.032.052-.004.06c-.057 1.144.005 1.3.379 2.187l.115.274-.068.767c-.133 0-.727 0-1.131.35-.182.158.559 1.07.377 1.078-1.293.054-1.358-1.047-1.4-1.159-.135-.35 1.67-.431.876-1.053l-.116-.028-.028-.117c-.059-1.632-1.33-1.454-1.971-1.983-.374-.307-.863-.754-.863-.754m-7.919 9.758-.078-1.579.051-.55.377-.782.943.727c.216.243.186.29.889.917l1.513 1.16-.05.13c-.142.37-.385.368-.628.677-.235.302-.417.5-.565.863-1.077 1.437-.863 1.941-.755 2.345s-.296 1.51-.296 1.51.27.701.27 1.456c0 .403-.31.938-.35.781-.243-.916-.758.069-.998-.188-1.077-1.16-.271-1.203-.269-1.968-.019-.34.163-.727-.35-1.24-.025-.025.227-.035.27-.485.092-.995.043-2.882-.028-2.939-.316-.252-.242-.916.054-.835m11.193 10.327c.176.198.176.352-.022.44-.236.105-.438-.066-.438-.066s-.355-.184-.132-.308c.222-.123.394-.29.592-.066m-10.18-.065c.265.214.487.33.92.878 1.164 1.471 1.722 1.523 2.678 1.411l.315-.001-.072.28c-.047.184-1.117 1.124-1.516 1.274-.299.443-.605 1.088-.965 1.428-.493.46-.505.834-.768 1.01l-.329-.443c-.023-.567.064-.975-.055-1.382-.122-.414-.258-.876-.258-1.311 0-.486.773-.663 1.541-.531-.07-.53-.595-.426-.987-.769l-.79-.57-.203-1.347zm7.02 14.624c.286.373.02.468-.057.861-.132.675-.353 1.397-.688 2.235 0 0-.857.616-1.02.473-.165-.143.34-1.548.34-1.548.34-2.066.72-7.006.943-6.873.224.132.351 1.646.351 1.646.066 1.142.185 2.287.131 3.206m1.624-1.515c.196.633 1.12.878 1.506 1.646.067.133.254-.042.438-.225-.237-.667-.963-1.619-1.593-1.992-.592-.197-.35.571-.35.571m-.526-.351s.131-.725-.154-1.098-.154-.769-.154-.769c-.003-.01.088-.439.088-.439-.197-.527-.137-.904-.175-1.954-.044-1.208.131-1.186.482-1.713-.008-.067.33-.725.33-.725s.085-.3.307-.241c0 0 .263 0 .126.352-.152.393-.313 1.164-.016 1.618l.173.267c.945.244 1.297.64 2.086.684.31-.24.64-1 .878-1.296.329-.408.395-.593.529-.87l.364-.147.073 1.566c-.659.79-.673 2.078-1.075 2.833 0 0-.549 2.48-.527 2.854.022.373-.401 1.623-.59 2.88l-.016.108-.102.044c-.25.106-.28.951-.28 1.316 0 0-.307.834-.46.57-.154-.263-.124-.901-.124-.901-.009-.504-.204-.963-.469-1.492-.088-.175.417-.483-.066-.527-.482-.044-.482.637-.636.571s-.154-.944-.154-.944c-.365-.405-.357-.98-.329-1.471l-.087-.835zm4.915 4.677s-1.188 1.168-1.318.935.062-.552.062-.552c.137-1.212.159-2.337.685-3.172.224-1.273.395-2.59.461-3.645.395-.483.647-1.514.966-2.262l.46-.285c-.152.867-.352 1.876-.394 2.854-.104 2.38-.549 4.568-.922 6.127m2.523-5.358c.307 1.866-.307 4.7-.307 4.7s-.943 1.514-1.01 1.119c-.065-.395.132-.85.132-1.164 0-.607.044-1.405.211-1.937-.043-.285.053-.216.053-.478 0-.97.234-1.94.504-2.81 0 0 .253-1.214.478-1.398s.389.07.389.07c-.077 1.13-.594 1.024-.45 1.898m-1.038-11.703.506.127.885.018c.958.18.794.383 1.717.777.598.255 2.14.961 2.796 1.085l.42.398.307.868c.56.578.922 1.172.452 1.555-.127.542-1.397.479-2.006.434-.488-.037-.811-.157-1.066-.109l-.885.018c-1.066-.072-.323.702-1.626.163l-1.301-.253s-.307-.145-.74-.253l-.903-.35-.164-.16s.235-.358.669-.16l.849.344.885.127c.229-.057-.132-.455.127-.525 1.608-.434.216-.524-.163-.633-1.156-.307-1.31-.76-2.024-1.066-.632-.271-.81-.234-1.373-.724l-.343-.596.325.036c.287.041 1.158.79 1.59.94 1.933.67 2.656 1.121 2.891.778-.099-.288-.614-.633-1.825-.995 0 0-1.228-.271-2.439-1.446l-.74.072-.037-.47c.506-.036 1.265-.29 2.421.705.158.136.307-.036.47-.126-.163-.507.325-.579.325-.579m1.988 1.754c.126-.307-1.193-1.157-1.988-.904-.446.142 1.861 1.211 1.988.904m6.423 11.882c.23.306.008.604.294 1.461.494 1.482 2.014 2.852 1.615 2.974-.505.154-1.404-1.274-1.404-1.274s-.517-1.454-1.295-2.986c-.467-.921-1.116-1.657-1.558-2.723-.702-1.69-1.119-3.952-.921-3.952s.592 1.054.592 1.054.944 3.14 2.677 5.446m-.811 5.037-.152.033c-1.315.3-2.219.177-2.899-.657l-.482-1.178c-.112-.486-.448-2.222-.448-2.222l-.017-.08c-.202-1.13-.44-1.337-.416-2.429.035-1.536.047-5.773.047-5.773.674.249.696.404.812.966.084.414.153 1.164.416 1.889 0 0 .351 2.745 1.712 4.874.909 1.424 2.809 2.921 1.429 4.42zm5.366-2.39c-.982.306-1.207 1.15-1.504 1.18-.297.028-.658-.763-.658-.763-.876-.767-.462-.496-1.208-1.813 0 0-.531-1.066-.527-1.054-.57-1.537-2.131-3.543-2.236-5.28l-.043-.692.401.565c.482.68.61 1.105.89 1.85.407 1.086.842 2.376 1.778 3.184.404-.127.462-1.196.462-1.647q-.002-.23-.025-.514c-.013-.178-.028-.36-.028-.528q-.001-.183.028-.33c-.093-1.648-.587-2.123-1.117-3.613-.346-.975-.62-2.527-.834-3.535-.068-.07-1.229-1.383-1.602-1.713-.098-.086-1.777-.68-1.777-.68-.22-.308 1.92-.81 2.72.175.769.944.977-.266.747-.9-.184-.507-.746-.396-.57-.55.074-.064.263-.372 1.272.374 1.8-.703 1.997-.351 1.997-.351s1.097 1.163.856 1.295c-.242.132-1.807-.546-2.436-.417-.966.198.067.447-.11.571-.22.154-.658.33-.373.637s1.185.598 1.185 1.076c0 .267-.044.768.132 1.098.121.227.385.347.241.527-.878 1.098-.229 1.199.284 1.488l.22.334s.045 1.428.155 1.581-.045.637.021 1.955c.066 3.205-1.228 4.172-.796 4.744.264.35.582.3.95.262.505-.834 1.14-.801 1.14-1.69l.242-1.384c-.293-.086-.23-.507-.087-.769.12-.22.256-1.26.256-1.26l.029-3.263c.241-.615.285-.615.154-.79-1.072-1.432-.637-1.606-.856-1.735-.746-.44-1.13-.858-1.426-1.54 0 0-1.054-.568-.725-.612s.99.106.99.106c.336.137.562.418.832.618.943.396 1.736 1.853 2.589 3.228.328 1.139.636 2.847.636 4.238 0 .64.175 1.384-.076 2.012-.925 1.016-1.487 2.117-1.767 3.083a3.8 3.8 0 0 1-.426 1.243m8.927-1.121c0 .54-.733.946-.785.913-.349.122-.145-2.077-.66-2.004-.532.076-.608 1.573-.997 1.9l-.037.05-.283 1.424c-.377.267-.482.456-.903.69l-.365.223s-.254.178-.482.05c-.228-.126.558-2.155 1.09-2.409.115-.055-.073-.31.153-.685.217-.363 1.47-2.951 1.47-3.374 0-.038.198-.72.198-.72.309-1.132.384-1.352.613-2.324.236-1.001.445-2.223.988-3.12l.406-.736h.177c.009.172-.126.516-.126.685 0 .874-.2 1.705-.456 2.613-.431 3.146 0 6.817 0 6.824m1.902-2.258s-.102.28.126 1.04c.228.761-.355 2.638-.355 2.638s.178.812-.278.787c-.658-.036-.076-.178-.812-.254-.735-.076.33-1.116.457-1.37.127-.253.076-.659.076-.659s.304-.431.152-.787c-.152-.355-.355-1.192-.355-1.192l-.001-1.094c-.328-2.077.454-6.05.533-6.567.153-.989-.507-2.105-.304-2.942.084-.344.532-.152.66-.28.126-.126-.28-.912-.28-.912l-.304-.051c-.11.043-.81.888-.608 1.37-.217.328-.487.022-.608.152 0 0-.301.239-.305.228-.988 1.193-1.233 3.33-1.673 4.77-.516 1.694-.77 4.114-2.585 7.127 0 0-1.47 1.54-1.742 1.957-.254.389-.516.79-.949 1.061l-.421.263.125-.481c.18-.693.703-1.262 1.258-1.866.466-.51 1.446-1.971 1.729-2.583.774-1.839.593-2.222 1.19-4.109.96-3.024.812-5.86 3.017-7.711l.107-.535c-.428-.36-.169-.999-.47-1.428-.386-.55-.74-1.23-1.3-1.483-.108.11-.506-.732-.506-.488 0 .016-.237.145-.235.163-.036.054.036.18.036.18.24.22.418.72.513 1.007 0 0 .19.261.11.333-.081.07-.34-.077-.34-.077-.248-.055-.627-1.32-1.489-.995-.082.04 0 .383 0 .456 0 .063.843.9.91 1.057 0 0 .422 1.022.206.986-.127.108-.994-1.591-1.807-1.392-.528.129 1.873 2.49 1.536 2.658-.633-.127-1.157-1.41-2.205-1.628-.903.127 1.57 2.378 1.012 2.604-.27.072-1.01-1.234-1.807-1.537-.777.018 1.753 2.332 1.41 2.784-.167.005-2.114-2.26-2.331-1.808-.47.308 2.168 3.255 1.698 3.942-.398.26-.538-.717-.903-1.248-.185-.267-.524-.162-.777-1.012-.189-.282-.426-.303-.632-.524a23 23 0 0 0-1.464-1.429l.506-.596 1.049-1.494c.707-.765 1.59-1.482 2.095-2.376l1.21-.217c.127-.18-.09-.361-.91-.473l-.024-.095.061-.077c.422-.078.591-.019 1.036.03.325.037-.271.435.199.507s.94-.778.614-.85-.656-.126-.777-.362c-.372-.164-.405-.637-.632-.958-1.133-1.428-2.796-1.21-2.796-1.21-.912-1.015-1.166-.304-1.318-.736-.152-.431-1.451-2.194-1.451-2.194l-.343-.217c-.05-.035-1.198-.098-1.247-.127-.064.01-1.229-.18-2.006-.398l-.542-.397-.018-.018-1.138-.742c-.441 0-.718-.578-1.229-.397-.407.143-1.072.354-1.499.425l.003.025c-.671-.017-.538.291-.527.309.095 0 .542.362.542.362l-.289 1.41c-.976.434-1.12 1.661-2.182 3.123l-.23.316-.024.018c-1.369 1.015-2.37.669-3.611.1l-.422-.191-.023-.002-.829-.93c-1.062-.952-1.655-1.814-2.4-1.567a.9.9 0 0 0-.157.489c0 .247.41.994.122 1.609.083.048.29.358.29.358.201.098.85.233 1.01.474l-.216.542-.073.29c-1.77.144-1.517.542-2.312.397-.24-.12-.975-.541-1.193-.76l-.036-.325.348-.052c.293-.099.57-.225.622-.528a.5.5 0 0 0 .044-.201c0-.333-.377-.485-.653-.629-.551.02-1.233-.423-1.582-.726-.456-.396-.75-.624-1.261-.157.285.499.575 1.033.748 1.606.428 1.424.207 2.528 1.987 2.46l1.77.36c1.065-.122 1.724-.689 2.53.073l.29.579s-.29.325-.181.976c.065.393-.96.18-1.376.072-.662-.172-1.72-.104-2.274.362l-.29-.29h-1.155c-1.596 0-2.33-.364-3-2.241-1.166-1.985-.361-4.014.217-4.448l.392-1.284.034-.03c1.598-1.362 2.8-.275 2.97-.53.434-.651 1.178-.48 2.02-1.174l.04-.033.052-.01c1.936-.52 2.573.41 3.49 1.325.809.806 1.41 2.097 2.818 2.025.514-.348 1.067-1.245 1.301-1.808.362-.868 1.518-1.483.145-1.591 0-.108.361-.217.361-.217s-.18-.217-.506-.579c-.133-.533 1.02-1.522 1.518-1.736.253.037 1.192.29 1.192.29.091.18.542.289.65.578l-.071.326c-1.725.433-1.627.398-2.06.723-.325.362.18.325.18.325.736-.096.614-.006 1.301-.253l1.265-.687 1.59.326 1.843 1.374-.108-.072.27.054c.434.036.807.093 1.163.276.165-.003 2.412.527 2.47.754l.27.579s.904 1.573 1.88 1.88c.975.308 1.354.109 1.914.452s1.572 1.61 1.572 1.61l1.229 1.12c1.066 1.248 2.89 2.658 3.035 3.671l.555.058c.261.061.256.138.408.366l.279.457.71.482c-.152.475-.026.177-.254.33l-.026.075.076.33c.051.229-.283.606-.202.964.057.252.323.564.456.735l.163.535.014.15c.168.566.087 1.196-.101 1.573-.457.913-1.166 4.465-.887 5.86l.203.457zm1.216-90.176-.372.286-.497-.167-.017-.49.343-.258.371.2s.2.229.171.429m-5.225 14.313-.904-.593-.437-.264-.065-.66h.304l.446.517 3.597 3.057s.258.898-.6.143c-.713-.628-1.827-2-2.34-2.2m-1.313-4-.543.2-.828-.314-.114-.457.743-.057.4.057.37.257m.2 1.6-.77-.171-1.028.143-.657-.315v-.257l.885.057 1.4-.028s.456.428.17.571m6.053 22.57v-1.628s.228-.629.171-1.029-.228-2.628-.228-2.628l.057-.515.057-1.37c-.123-.397-.114-1.115.2-1.572l.514 1v1l-.172 1.571-.17.914.17 2.829.029 1.714v35.741s-.457.828-.657.257c-.2-.572 0-1.971 0-1.971l.029-11.343V45.61m1.048-15.79.027.032.011.042c.095.349.046.716-.138 1.006-.169.27-.437.45-.755.508l-.07.013-.06-.034a1.35 1.35 0 0 1-.687-1.03 1.05 1.05 0 0 1 .393-.933l.043-.037.057-.006c.503-.063.876.076 1.18.44m-1.46-11.086.203-.645.086.621c-.19 1.259-.092 2.133-.066 3.176.017.705.198 3.507-.298 3.606-.496.1-.408-1.624-.408-1.624.11-1.684-.054-3.41.483-5.134m-8.701-7.99-.037-.116.085-.086c.243-.244.773-.156 1.074-.201.428-.064.591-.132.694-.43l-.397-1.29.243-.5h.583c.166.084.213.263.247.394l.038.117-.053.253-.066.331c-.064.437-.925 1.23.893 1.588l.33-.085c.418.063.891.133 1.112.62l.049.105-.07.094c-.556.754-1.143.455-1.573.237-.455-.232-.729-.344-1.076.042l-.092.087-.541-.147c-.564-.136-1.202-.291-1.443-1.014m1.938 8.267q-.265-.088-.334-.274c-.071-.188.033-.366.115-.508l.088-.183.049-.115.068-.029c.418-.18.587.15.658.289l.06.1.084.199-.034.09c-.091.23-.228.581-.754.431M86 15.936c-.323.047-.76.052-1.007-.186a.56.56 0 0 1-.171-.424l.003-.055a.8.8 0 0 1-.04-.205c0-.356.317-.52.524-.626l.3-.198.092-.071h.06c.225 0 .364.163.467.282l.117.12.084.117.013.38c.03.278.075.699-.441.867m-4.352 16.046-.057.17c-.045.248-.083.76-.457.944-.453.15-.681-.043-.889-.253l-.228-.204-.078-.067-.01-.074c-.051-.415.275-.635.537-.812l.258-.197.05-.04.417-.039c.43-.122.287.165.462.354l.09.095zm-11.245-.415c.515-.1.918.156 1.03.653l.006.035-.007.036c-.051.365-.278.486-.503.693l-.174.105-.093-.013c-.365-.053-.435.163-.778-.303l-.194-.206-.01-.06c-.077-.465.259-.85.722-.94m13.072-4.614-.143.343-.428.543c-.6.514-.885.943-1.57 1.457-.185.14-.192.144-.343.257 0 0-.17.829-.742.114-.571-.714-3.397-3.942-3.397-3.942s-.4 0-.457-.257c-.136-.615-.457-.629-.457-.629-.343.086-.38.176-.4.198L74.31 26.41s-.942.8-1.884 2.086c-.426.581-.857 1.143-.857 1.143s-.37.171-.628 0c-.257-.172-.171-.2-.171-.2l.057.143-1.48-1.952-.632-.633-1.086-1.015.029.085-.628-.971-.546-.597c-.545-.798-1.139-.089-1.196.026s-1.684 1.771-2.227 2.485-1.37 2.257-1.741 1.972c-.34-.262 1.256-1.915 1.256-1.915s2.255-2.514 2.598-2.914.4.2.4.2l.651-.138.267-.293s.415.138.424.146l.457.768.57.632v.028l1.052 1.22.633.634 1.741 1.517h.257l2.256-2.8 1.085-1.228 1.427-.371s.171-.058.37.4l2.2 2.457s-.115.4.456.57c.571.172.628.43.857.715.228.286.542.6.828.314 0 0 .342-.314.628-.571.147-.148 1.37-1.714 1.37-1.714l.171-.115-.142.172.37-.571 1.314-1.457s.171-.315.485 0c.314.314-1.142 1.714-1.142 1.714l-.4.4zm-17.557-12.58-.039.003-.037-.011c-.477-.136-.715-.596-.774-.949l.038-.125.098-.275c.042-.194.022-.399.42-.449h.066l.398.001c.25.084.652.27.838.595l.026.046v.053c0 .54-.45.805-1.034 1.11zm.941 2.143-.294.574-.094.06c-.306.19-.56.249-.871.056a.73.73 0 0 1-.359-.711l.002-.03.01-.029c.168-.401.552-.628.936-.55.336.066.669.252.669.63zm-1.76 3.463c.098-.292.46-.323.639-.353.102-.017 1.04-.066 1.164.115.047.07.456.029.405.208l-.37.19-.015.023c-.333.523-.807.335-1.121.21l-.418-.118-.253-.063zm-.38 1.915c.108-.27.431-.106.709-.124.348-.02 1.456.079 1.644.416l.083.151-.138.103c-.426.047-1.54-.078-1.79-.18l-.324-.094-.265-.069zm.47-14.662.09-.806c.34-.137.29-.323.387-.239.23.2.477.06.46 1.539v.361l.495.31-.776-.03c-.225-.124-.454-.45-.507-.687zm-.716 2.687-.06-.597c.564-.226 1.225-.089 1.73.03.511.12 1.94-.15 1.76.388 0 0 .012.623-.417.746-.196.125-.388.179-1.581-.329-.417-.066-.7.146-.925.09zm-3.388 21.538.038.047.005.062c.033.435-.082.768-.427.978-.317.194-.502.182-.854-.035l-.048-.03-.026-.05c-.271-.546-.138-1.066.235-1.304.349-.224.69-.153 1.077.332m-3.742-16.346c-.155.326-.39.61-.694.688l-.146.038c-.337.067-.69-.294-.83-.44l-.095-.098-.013-.051c-.013-.523.257-.881.636-1.262l.067-.004.246-.005c.224-.022.629.125.795.51l-.001-.004.001.005v-.001q.09.196.09.368 0 .136-.057.256m-.28 3.44c-.116.055-.19.093-.223.17l-.04.095-.103.02c-.377.077-.89-.428-1.08-.744l-.046-.078.029-.086c.112-.337.38-.759.765-.84.177-.037.447-.017.729.294l.024.027.013.033c.194.486.107 1.028-.068 1.11m-2.202-8.015-.024-.073.032-.07c.178-.395.648-.103.856-.089.242.017.157-.248.204-.482.015-.154-.286-.44.072-1.097.212-.388-.48-.442.236-.819.292-.072.313.106.45.25l.103.107.013.052c.102.41-.066.637-.235 1.007-.12.26-.266.628-.21.776.039.108.199.208.441.288l.695.021c.43-.028.784.064 1.226.586l.072.085-.035.105c-.093.281-.286.423-.566.49a.59.59 0 0 1-.569-.162c-.294-.294-.64-.167-1.084-.22-.328-.038-.984.21-1.677-.755m.616 10.088.2-.134c.563.056 1.323-.22 1.704.035l.171.429s-.743.61-.388.667c.645.104.79.714-.582.475-.152-.026-1.314-.275-1.314-.514s.465-.23.465-.23zm.248 3.558c.057.114-2.055 2.657-2.055 2.657-.257.714-.971 1.229-1.17 1.4-.2.172-.258-.029-.258-.029s1.428-1.97 1.685-2.257c.257-.285 1.627-2 1.627-2l.343.115.257-.202.342.202 1.428 1.628h-.029l3.142 3.462-.005.005c.002 0 .026.018.026.018l-.194.372-.172-.057c-.023-.016-.33-.327-.33-.327-.754-.787-2.325-2.558-3.038-3.387h-.029l-1.43-1.646M76.8 58.479c-1.022-.665-2.3-2.584-2.768-3.872l-.015-.043.005-.043c.168-1.784.461-3.401 1.59-4.814.128-.47-.234-.846-.701-.991-.859.032-1.31-.28-1.828.301-.462.517.485 1.025-.97.863-.329.084-.65.554-.862.431-.357-.207-1.001.206-1.104-.215-.091-.375.053-1.528-.183-1.654-.169-.09-.705-.35-1.03-.233-.44.24-.739-.114-.808.35-.215 1.456.458 1.672-.377 1.995l-.165.125-.054-.016c-.212.133-.792.034-.993.106-.204.074-.224.198-.527.137l-.117-.02-.088-.303c-.13-.463-.076-.623-.318-1.054-.297-.404-1.402-.403-1.644.216 0 .091.027 1.212.027 1.212s.404.782-.404.917c-.237.04.088.354-.134.405-.593.134-1.212.97-1.374.997s.114-.831.09-.876c-.076-.148-.378-.306-.635-.312-.92-.23-1.774.436-2.49 1.092a.25.25 0 0 0-.05.216c.054.221.344.455.599.586 2.62.022 3.313 2.215 4.565 3.673l.192.498-.01.07c-.475.76-.055 1.379-.348 2.331l-.213 1.91s-1.027-.643-1.888-1.586c-.749-.82-1.423-.882-1.509-1.16-.35-1.132-2.086-3.439-1.966-5.418.054-.89-.19-1.931-.054-2.884.673-4.717 3.838-8.374 8.646-9.165 2.039-.186 3.434.146 5.037.7.71.247 1.196.318 1.994.513l1.347.862s.474.35.97.647c.86.517 1.924 2.193 2.397 3.181 0 2.426.915 2.723 1.05 4.69.09 1.315-.571 3.12-1.078 4.233.021.085-.19-.003-.215.296-.043.508-.205 1.024-.458 1.267-.673.647-1.131-.162-1.131-.162zm1.562 1.132c0 .015.36-.632.485-.566 1.239-1.698 1.885-4.477 1.885-6.9 0-1.855-.322-2.616-.916-4.233-1.152-2.167-2.413-3.46-4.464-4.71l-.698-.426c-.067-.017-1.922-.767-1.922-.767-2.128-.58-4.513-1.414-6.815-.593-3.478.922-7.295 3.633-8.188 7.467-1.308 3.873-.604 8.741 1.993 11.86.535.756 1.32 1.44 2.155 1.78.862.35 1.266.943 1.266.943l.161.323c.094.804.195.152-.188.728l-.261 1.14-.251.019c-2.633-1.601-6.572-1.968-8.27-.189-.347.191-.741.145-.942.405-.046.046-.916 1.213-1.105 1.24s-.296-1.348-.296-1.348c.62-1.105.11-7.063.11-9.96 0-5.28-.083-8.626-.083-14.084 0-.846-.054-1.76-.054-2.615 0 0 .05-2.979-.054-3.289-.099-.292-.232-.22-.43-.566-.128-.222-.009-.516.234-.703l.054-.041h.067c.345 0 1.382.052 1.606-.487.143-.714-.598-1.2-.942-1.229h-.4l-.171-.2c.171-.171.449-.362.554-.48l.147-.144c-.03-.123-.102-.776-.102-.776-.088-.338-.2-.16-.2-.543 0-.115-.073-.26-.055-.383l.008-.048.029-.038c.168-.23.504-.3.676-.53.2-.686 1.427-2.229 2.426-3.372l.457-.285c.71.134 1.042.741 1.542 1.6l.972.919.057.079-.372.716c.257 2.914-.286 4.4.485 4.685l.386.223-.041.148c-.084.291.111.917.426 1.343.342.458.685 0 2.141.343.298.07.314-.8.257-1.4.196-.072-.185-.001-.114-.285.085-.343 1.185-.308 1.18-.397-.004-.084.219-.318.048-.718-.088-.204-.89.176-.743.029.1-.1.657-.772.383-1.575l-.023-.024-.014-.029c-.023-.045-.545-1.2-.545-1.2 1.484-1.715 1.97-2.486 3.136-3.917l.623-.524h.073l.793.212s2.34 1.903 2.426 2.857c.029.314.183 1.851.343 1.4l-.685.171-.286.514c-.371.743-.656.675-.656 1.458 0 .098.38.695.4.8.158.335.236.586.485.857.383.42.677.183.677.794a1.7 1.7 0 0 1-.047.332c.032.06.083.416.083.416.371.972 1.109.889 1.5.927l.264-.037c.596-.08.882-1.036 1.201-1.584.097-.543.118-.876.66-1.42.172-.171.058-1.313.058-1.971 0-.368-.425-.484-.628-.857-.088-.232.501-.949.628-1.086a43 43 0 0 0 1.342-1.514c.413-.487.8-1.01.8-1.01.684.01.97-.49 1.427-.476.768.024 1.412 1.461 1.998 2.143l-.565-.035-.017.095-.008.079c0 .205.158.349.4.554l.74.668.09.089-.1.134c-.569.587-.54.587-.454 1.159 0 0-.537 2.422-.547 2.55.046.084.116.105.374.092.249-.013.71-.264.9.117l.03.061-.01.066c-.021.1-.002.2-.03.288-.288.911.567 1.235.968 1.454.542-.143 1.741-.372 1.941-1.057-.045-.117-.371-.473-.371-.572 0-.388.175.025.408-.179.245-.212.398-.357.398-.56a.6.6 0 0 0-.052-.223l-.055-.129.104-.093c.348-.318.74-1.044.74-1.357 0-.251-.068-.476-.135-.636-.363-.432-.733-.753-.79-1.26v-.103s1.123-1.83 2.265-2.402c.539-.27 0-1.143 1.428-1.429 0 0-.028-.249.285-.285.485-.058 1.17 1.057 1.17 1.057l2.77 2.428c.09.426-.239.78-.286 1.172-.07.573 0 1.97.971 2 0 0 1.485.056 1.428.4-.057.342-1.6.256-1.6.256l-.573-.624c-.27-.077-.995.034-1.204.555.241.84.565 1.061 1.407 1.155 0 0 .174.079.228.086.2.028.216.086.428.086l.025.32c.118 2.022.261 2.336.033 3.965l.142 2.428v12.428c.027 8.043.29 17.46-.019 25.252l-.013.326-.284-.161c-1.613-.924-1.994-3.227-2.539-4.79-.729-2.09-.765-3.122-3.27-3.203l-.24.124-1.143-.692c-.344-.458-.19-.574-.086-1.142.154-.848.049-1.659-.966-1.95-.309-.13-.768-.355-1.12-.41-.778-.122-1.763-.13-2.172-1.04l-.145-1.79c.377-.998-1.805-2.238-2.15-2.624-.624-.697.773-1.853.773-1.853l.353-.188zm-27.066 42.01c-.08-.499-.197-1.123-.11-1.624.164-.934.88-2.022.944-3.821.013-.383.075-.763.057-.95-.024-.699-.24-.752-.342-1.158-.043-.172-.137-.322-.13-.497l-.007-.987.385-.08c.38 1.227.958 1.828 1.112 2.947.195 1.42-.9 2.723-1.404 4.502-.176.483.11 1.603.11 1.603s-.132 1.23-.44.878c-.115-.132-.114-.437-.175-.813M49.231 11.17v-.87l.136-.044c.25-.084.418.125.508.237l.1.125c.092.185-.18.551-.18.551zm-.388 13.227c.04-.028.238-1.164.268-1.732.048-.904.372-2.704.418-3.94.037-.278.108-.752.209-1.015.244-.363.102-.456.149.388-.092.29.001.402-.07.679q-.046.33-.047.678c0 .417.037.843.073 1.263s.059.981-.076 1.35c-.416 1.142.305 1.877 0 2.359l-.447.507zm1.573 6.846-.05-.009-.334-.097c-.315-.075-.709-.168-.808-.615-.108-.365-.014-.706.259-.937.319-.268.811-.333 1.173-.155.293.145.45.43.433.78l-.003.063-.04.052c-.042.051-.052.164-.062.275-.02.225-.056.643-.568.643m28.947-8.035c.006-.03.116-.393.087-.453a.63.63 0 0 0-.293-.29h-.635c-.406.016-.197-.1-.541-.253l-.127-.057.01-.14c.025-.3.044-.55.044-.692 0-.084.365-.583.365-.583.098-.708-.324-.66-.657-.687 0 0-.507-.128-.507-.5 0-.37.543-1.228.685-1.713.19-.646.559-.786.559-1.2 0-.328-.157-.623-.543-.917l-.087-.067.01-.11c.034-.357.28-.641.465-.864.124-.147.233-.29.295-.45l-.068-.375c-.1-.602-.083-1.147-.55-1.4l-.331-.232 1.588-.844c.462-.413.472-.275.727-.88q.114-.253.113-.48c0-.628-.85-1.403-1.47-1.931 0 0-.925-.246-.965-.444l-.024-.122.1-.075c.15-.113.197-.453.197-.675a3 3 0 0 0-.1-.675c-.513-.628-1.167-.995-2.076-1.17-1.15.07-1.722.41-1.809 1.057-.248.615-.116.8-.116 1.012 0 .618.362.399-.084.709-.462.32-1.36-.238-1.38.375q-.014.115-.013.222c0 .692-.969 2.168.887 3.05.15.276.357.316.708.36l.569.133s1 .246.669.61-1.19 0-1.19 0c-.485.29-.557.179-.557.791 0 .228.04.461.123.686.03.145.13.215.29.318.161.1.871.627.871.917 0 .076-.467.043-.503.14l-.02.06-.053.036c-.667.458-.706 1.265-.706 1.95v.203l.211.318c.13.22 1.434.687.972 1.065l-.52.05-.205.176c-.365.313-.24.186-.24.491l.003.06c.201.678 1.094.22 1.094.546 0 .448-1.002.03-1.058.232l.033.529.33.695c-.308.205-1.125.163-1.394.208-.287.046-.514.114-.719.321l.04.077c.09.181-.02.531.156.65.96.232 1.488.067 1.984.034.338-.023-.095-.476.397-.794.543-.353 1.762-.223 2.347.231 0 0 .152.58.158.592l.998.17c.884.114.794.098 1.455 0zM75.14 6.844c.121-.24.39-.373.757-.373l.19.008.135.419c.02.34.066 1.257.099 1.588l-.47-.047c-.231-.23-.858-1.024-.71-1.595zm-1.299 3.693-.132-.198-.02-1.251.202-.04c1.206.166 2.82.379 3.884.728l.43.563-.86.727c0 .307-1.093-.163-1.983-.628-.76-.397-.974.19-1.52.099zm2.744 10.685c-.231.133-1.5-.129-1.5-.129v-.568l.372-.088.83.157c0 .014.53.496.298.628m.33-4.863c-.047.292-.39.641-.809.92l-.076.05-.088-.024c-.61-.175-.986-.48-1.087-.881l-.016-.062.024-.06c.163-.409.659-.727 1.104-.709.355.013.698.156.816.535zm-.394-1.711-.033.012h-.036c-.572 0-1.173-.335-1.196-.954-.087-.313.139-.52.306-.671l.194-.206.073-.085.07-.01c.49-.061.945.294 1.083.846l.066.067c.075.598-.069.828-.527 1z" style="fill:#000;fill-opacity:1;fill-rule:nonzero;stroke:none" transform="scale(4)"/><path d="M86.49 128.133c0-3.086-.17-6.329-.312-8.824.01-1.567.255-3.416.313-5.11-.104-.844.747-2.435-.026-3.113-2.696.316-6.265.31-8.216.467-2.527.332-4.122 1.1-5.37 1.802-1.156.65-1.898 1.121-2.402 1.752-.154.194-1.608-2.133-2.926-2.238-2.425-.465-.504-.405-5.36-.416-.55-.001-.927-.244-1.6-.34-2.597-.373-3.287-.797-4.592-1.196-1.093-.334-2.031-.426-2.356-.46-.427-.047-.134 2 .206 3.25.013 1.286-.151 2.65.156 3.735-.276.496-.362 5.55-.012 6.647-.35 1.689-.197 4.737-.23 7.085-.173 1.144-.68 1.864-1.019 2.665-.003.393.12.667.093.996-.03.343-.241.53.225.901.598.211 1.324.332 1.94.526 3.88 1.404 8.15 2.114 12.264 1.61 1.615-.361 3.06 1.447 4.987 1.11 4.337-1.374 8.504-.893 12.43-1.52 1.133-.843 1.856-.133 2.699-1.084-.338-3.079-.241-6.606-.892-8.245m-31.225-3.068c.186-2.446-.234-4.944-.011-4.935l-.012-1.262c-.243-.351-.098-3.86-.366-4.55-.034-.089.002-.19.003-.285l.004-.209c-.073-.292-.002-.494-.189-.757-.022-.032.057-.203.059-.24l.281-.024c.124.308.454.597.454.938l-.001.026c.034.136.026.317.019.451-.022.373.065.44.065.713 0 .096.143.844.143 2.292.04.4.173.69.153.724l-.197.987.033.987s-.11 5.627-.285 5.506c0 0-.123.034-.154-.362zm7.376 10.967-1.95-.044-2.237-.724c-1.49-.285-1.304-.57-2.203-1.381l-.657-.033-.022-.483c.635-1.776.628-2.746.855-4.562.646-5.187.789-9.85.115-14.746l-.06-.4s.034-.17.22-.326c.185-.156.656-.123.656-.123 2.102.782 1.841 1.218 6.534.98l3.083.441c.568.242 1.024.183 1.277.41.254.228.797.955.456 1.026-.21.044-1.236-.54-1.236-.54-.546-.077-2.703-.26-3.143.112l-.001.03c-.024.611 1.866.327 3.002.74 0 0 2.585.91 2.557 1.108-.028.2-5.082-.747-5.082-.747-.246-.04-.324.001-.341.015 0 0-.012.022-.027.075-.02.047-.147.09-.147.132 0 .168.398.275.412.284.867.284 1.596.425 2.514.625l1.322.242s.767.256.696.384-4.633-.39-4.802-.398c-.187.169-.308.14-.308.303q.001.064.02.136c.032.039.198.168.246.229.494.093 1.14-.053 1.676.043.795.142 3.622.568 3.622.781s-.966.143-.966.143l-1.392.07c-1.138-.112-2.074-.34-3.094-.086-.01.035-.024.072-.024.104a.4.4 0 0 0 .07.222c.083.13.236.22.386.222l.758.008c1.322.44 2.083.036 3.166.513l.613.397-.256.27c.078-.015-2.272-.199-2.6-.27-.988-.218-2.215-.185-2.23.327.285.383 1.388.196 2.146.34.596.115 1.816.575 2.372.783l1.46.181-.04.383c-.665.088-1.685-.245-2.343-.294-.952-.071-3.592-.455-3.694-.128-.142.455 1.28.408 1.904.44.318.017.234-.022.454.086l.796.227s2.585.384 2.585.626c0 .241-1.42.07-1.42.07-.739.223-1.832.093-2.458.015-.739-.093-1.847-.085-1.974.242-.038.097.29.407.523.409.795.132.683-.052 1.593-.068l2.7.469s.965.013.866.184c-.1.171-2.304.103-3.026.115-1.733.028-2.642-.086-2.756.497-.023.195.395.388.497.453.076.006 5.534.193 5.498.713-.037.52-2.884 0-2.884 0-.937-.015-2.385.022-3.253.142-.327.483.015.725.015.725.397.128 4.43.182 4.955.142.313-.023 1.031.166 1.337.228 0 0 .262.02.33.209.068.188-.372.174-.372.174-.313-.161-.92-.154-1.364-.154h-.032c-.517 0-4.707-.139-4.942.123q-.123.135-.122.377l.002.044c.008.591 1.225.563 1.774.521 0 0 .767-.003.743-.006l3.68.107.017.393-3.01-.011a27 27 0 0 0-2.77.156c0 .064-.54.256-.483.654s.554.324.682.327c.876-.159 1.69-.204 2.5-.185 0 0 2.723.131 2.784.384.062.252-3.58.355-4.588.455-1.19.117-1.487-.18-1.635.617l.226.226c.151 0 6.509-.147 6.594.337.068.388-5.12.264-5.483.241-.559-.035-1.18.029-1.193.484.073.303.295.46.412.483 0 0 4.943-.313 5-.128s-2.571.47-2.571.47c-.626.212-1.333.171-2.046.198-.888.034-.753.27-.81.384 0 .121.313.412.313.412l.511.114 2.571-.114h2.032c.162-.163 1.562-.085 1.59.071.029.157-.251.28-.454.313-.926-.087-2.209.242-3.6.264s-3.617-.428-3.617-.428zm22.714-1.454-.455.567c-.493.099-.154.568-.723.691-5.447-.022-7.52-.362-11.159.686l-.036.011-.5.005c-.527-.043.11-.702-.196-1.151l-.021-2.04-.064-.082.007-.074c.132-1.713.044-1.956.044-3.738 0-.595-.073-1.186-.076-1.776 0 0 .131-4.135.175-3.598l-.154-8.676.33-.394c.217.005.931-.11 2.18-.987 2.111-.524 1.732-.307 2.521-.767.325.221 5.36-.791 6.006-.494.28.129.174.217.275.524l.015.036-.003.038c.08 1.01.13 2.228.185 3.153.23 3.85.12 7.44.537 11.22l.57 3.959c.132.888.346 1.008.415 1.714l.138 1.053-.01.12zm-.238-17.896c-.082.235.193 4.002-.024 4.026-.216.024-.388-1.002-.36-.868l-.097-3.688c-.003-.008-.071-.363-.074-.37h-.003c-.002-.012-.002-.03-.003-.045-.04-.145.006-.091.006-.224 0-.027.01-.052.01-.079-.034-.255-.083-.496-.083-.763 0-.52-.218-1.211.024-1.605l.434-.241.434.144c.114.229-.064.734-.064.936 0 .305-.112 2.519-.201 2.777zm-51.905-14.451c-.337-.037-.598-.112-.449-.336.15-.225 2.654 0 2.654 0 1.234.823 2.58 1.047 2.58 1.047s.784.374 3.027 2.656c2.47 2.513 2.018 8.416 2.018 8.416s.038 1.122-.15 2.805c-.186 1.684 1.234 1.571 1.234 1.571 1.122 1.048 1.495.636 1.495.636s.374.524.71.374c.337-.15-.037-.71-.149-1.047s-.448-7.706-.448-7.706c.112-2.319-1.346-5.723-1.346-5.723-.71-2.619-4.672-4.788-5.084-4.9-.41-.112-2.093-.9-2.093-.9.112-.262-.56-.823-.56-.823s2.168-.262 3.326-.374c1.159-.112 5.757.599 5.72-.224-.097-2.383-.05-4.852-.262-7.18-.038-.412.195-.584.224-1.273.053-1.233-.075-3.29-.075-4.638 0-4.339.15-6.771.11-13.044-.026-4.067-.019-6.325-.035-10.26l-.113-1.758c.113-.486.524-1.085 1.05-1.344.124-.04.249-.155.324-.338a1 1 0 0 0 .072-.386c0-.165-.035-.33-.105-.462-.254-.398-.219-.837-.817-.8-.375.024-.51-.19-.51-.19.809-.258.71-.815.924-1.05.213-.234.36-.025.36-.28v-.041l.017-.04c.135-.315.179-.725.106-1.016-.276-1.103-.374-1.085-.718-1.814l-.058-.066.011-.088c.045-.425.152-1.067.363-1.397l.16-.256c.087-.33.126-.638.126-.928 0-1.003-.762-1.47-1.282-2.366 0 0-.581-.764-.657-.903-.415-.149-.54-.157-.748-.037-.327.187-.32.734-.614 1.251-.395.694-.507.918-.769 1.63-.054.35-.112.363-.112.71 0 .617.127.891.127.891l.019.023c.158.206.415.902.415 1.068 0 .337-.598 1.796-.598 1.796-.113.36-.225.317-.225.673 0 .267.412.672.609.877l-.224.314-2.59-1.94c-1.27-1.645-2.467-3.478-2.692-6.502a1.6 1.6 0 0 1-.092-.48.88.88 0 0 1 .261-.654c.45-.437.852-.462 1.29-.293.508-.155.603-.645.603-1.104-.009-.181-.052-.313-.133-.383a.92.92 0 0 0-.732-.196c-.296.037-.715.158-.972.074v-.935l.598-1.084c0-.15-.005-.513-.075-.749-.112-.374-.062-.596-.374-1.122-.308-.517.45-1.197.374-2.768-.014-.308-.374-.823-.747-1.384.032-.147-.777-.883-.777-1.05 0-.769.114-1.173-.285-1.607-.084-.015-.347-.055-.508.04 0 0-.023.07-.13.117-.179.326-.135 1.18-.394 1.49-.512.612-1.12 1.87-.971 2.47.055.22.485.972.485.972.3.374.544.496.486.785-.037.187-.358.204-.822.45-.348.413-.812 1.327-.785 1.832.112 2.132 1.226 1.885 1.373 2.395l-.102.223s-.75.032-.84.032c-.504.289-2.017-.185-2.017.252 0 .098.194 1.199.614 1.55.225.186 1.757.074 1.757.074l.449.374c-.038 1.16.163 1.395-.113 2.431-.122.464-.156 1.415-.186 1.833-.124.331-.337.212-.524.524-.71 2.431-3.367 3.833-4.815 2.995l-.305.035s.224-.636.149-.786l-.224-.71c.105-.183.22-.525.223-1.027 0-.283-.705-.958-.784-1.18-.187-.524.56-.397.56-1.123 0-.981-1.184-2.423-1.494-3.366-.341-.402-.3-.935-.975-.797l-.349.36c-.47.923-1.116 1.886-1.403 2.784-.07.195-.1.383-.1.566 0 .452.584.83.77 1.276 0 0 .15.262-.448 1.31-.068.12-.299.635-.11 1.203.072.341.24.411.457.644.256.274.52.557.58 1l.008.055-.02.05c-.16.388-.632.571-1.262.489-.374.074-.673-.04-.89.39l-.091.181q-.017.101-.018.19c0 .572-.317 1.097.449 1.371.403.144.71-.449 1.046.075l.224 2.02-.298 1.87c.225 1.047.147 1.643.147 2.515 0 .335-.13 2.522-.184 2.834 0 8.154.111 14.592.111 24.238 0 1.742.328 5.329.337 7.07.486 1.234 1.675.223 2.467.449.785.224 3.208.049 3.479.028.62-.051 1.504.038 1.796.91l.064.188-.48-.003s-.673-.037-.972-.037-2.616.598-2.616.598-2.953.561-3.476.973c-.542.426.71 1.047 1.158.673.449-.374 3.327-1.16 5.121-1.309s3.327.3 4.448.673 4.41 1.571 4.523 1.87.486.749.486.749c.262.037.822.523.822.673s1.159 2.095 1.42 2.244c.262.15.412.636.412.636l.598 2.432.112 5.648.037 1.271s.075 1.609.037 1.945c-.037.337-.71.075-.71.075s.038-.336-.075-.486-.112-.935-.112-.935.038-4.825-.037-7.481-2.766-4.975-2.766-4.975-.336-.038-.336-.412-3.364-2.394-5.682-2.992c-2.317-.598-4.71.112-4.71.112l-1.308.112s-.897.524-1.906.636c-1.636.182-.56.599-.262 1.085.3.486 1.309.075 2.019-.262s3.102-.411 3.102-.411c.075 0 .636.486-.075.486-1.127 0-1.607.15-1.607.15-.486 0-1.196.374-1.196.374s-.635.224-1.27.187c-.636-.038-.412.897-.412.897-.3 0-1.72-2.693-1.72-2.693-.485-.56-.784-.898-1.382-1.646l-.412-1.421c-2.669-4.366-3.072-6.997-5.083-13.99-1.347-6.097-1.56-11.77-1.26-16.072l.139-2.48c.4-3.317.934-6.023 1.831-9.24 2.023-7.777 6.168-14.886 11.924-21.507 2.504-2.656 3.929-3.879 6.429-5.985.326-.275.915-.517 1.458-.898.232-.163.368-.445.614-.613a122 122 0 0 1 3.06-2.006c.848-.41 3.315-2.243 3.054-2.505-.3-.412-2.838 1.366-4.037 2.02-1.346 1.047-1.94 1.349-3.103 2.206-2.99 2.207-5.793 4.452-8.185 7.37-2.472 2.61-4.513 5.515-6.392 8.602-.196.323-.296.72-.486 1.048s-.613.503-.796.838c-3.329 6.09-5.538 13.192-6.493 21.717-.166 1.443-.261 2.388-.261 3.74 0 2.388-.102 4.834.013 7.258.029.624.373 1.474.436 2.094.058.564-.17.9-.075 1.459.003-.001.897 3.404.897 3.404.636 3.18 1.346 4.226 2.019 6.172 1.102 3.187 3.015 7.025 4.774 9.962 0 0 2.015 3.466 2.015 3.468.005-.001 2.178 2.635 2.178 2.635 1.442 1.807 3.827 4.606 5.61 6.115 1.383 1.534 2.202 2.04 3.813 3.068 1.12.713 1.868 1.533 3.177 2.244.486.262.475-.462.747.112.242.51 1.981 1.646 3.551 2.02.6.238 1.097.622 1.544.63.307-.312.138-.254.138-.63 0-.252-.817-.354-.86-.636 0 0-.778-.173-.784-.224-.823-.486-3.256-.776-3.178-2.282.374-7.144-.338-8.348-1.27-10.51-1.982-3.18-4-3.666-6.205-4.302-.486-.038-1.495-.224-1.832-.261zm-7.03-54.949.227-.225.488.512c-.02.04-.01.076.038.178l.056.382-.134.35s-.56.074-.822-.15c-.262-.225.147-1.047.147-1.047m.937 5.498c-.182.023-.422-.313-.523-.412-.18-.173-.017-1.161-.017-1.161l.54-.185c.551-.064.773.118.897.636v.367l-.075.19c-.069.186-.369.699-.823.565zm17.642-4.713.374-.075c.138.353.358 1.229.262 1.683l-.62.477-.115.03c-.28.074-.444-.106-.576-.25l-.095-.103-.015-.056c.71-.546.213-1.535.785-1.706m-.448 5.424c.12-.566.686-1.124 1.046-.898.598.374.703 1.28.703 1.28l-.258.246c-.272.274-.73.732-1.192.31l-.056-.05-.094-.365zm-2.916 4.75.674-.042.522.94s-.149 15.037.188 16.42-.205 6.203-.075 13.429l-.075 5.76-.451.026-.089.008c-1.795.152-3.72.079-4.02.416l-.934-.15-.396-.494c-.265-5.658.059-12.486-.016-18.134-.052-3.916.15-6.546.037-10.474l.42-2.807.026-.048c1.389-2.458 3.068-3.802 4.19-4.85zM36 35.573l.408.173.169.95c-.3.56-.432.81-.598.785-.486-.075-.368-.504-.486-.71l.147-.375c-.007-.25-.015-.627.36-.823m-.326 5.195c0-.24.108-.432.315-.546.366-.201 1-.086 1.258.226.181.324.188.741.04 1.048a.66.66 0 0 1-.46.375c-.245.202-.528.238-.767.084-.243-.156-.39-.471-.39-.796 0-.07.013-.14.028-.21a1 1 0 0 1-.024-.181m-.966 10.89.635-1.46.15-4.05.299-.176s.224-.299.598-.224c0 0 .149.075 0 .748 0 0 0 1.833-.112 2.244-.113.412-1.271 3.628-1.907 4.264-.635.636-1.906 2.207-4.522 2.88 0 0-.262-.261-.225.562 0 0-2.99.15-3.214 0s.187-.225 1.308-.45c.558-.111.598-.186 2.616-.747 2.019-.562 4.299-2.806 4.374-3.591m-.972 3.329c1.039-1.04 1.486-1.32 2.243-2.431l.336-.412.524.038.336 1.122.86.897c.914.87.716.796 1.53 1.679l.043.046-.004.819-1.308 1.72c-.299.225-.503-.088-.86.487-.248.494-.224.673-.485 1.122-.29.497-.308.073-.504.585l-.043.112-.114.011c-.627.066-1.067-.11-1.387-.554-.386-.778-.149-.903-.793-1.501-.819-.759-1.458-.75-1.944-1.572l-.245-.793zm10.257 2.228s-.112-.556.172-.471c.283.085 1.121-.224 1.121-.224s.299 0 .411.261c.112.262-.262.262-.262.262zm.172 30.689.075 2.58s.373.337.187.524c-.381.381-.142 5.336-.142 5.336l-.102.05c-.957.466-1.55-.112-2.733.022-.495.056-1.01.001-1.509-.022-.157 0-1.831.075-1.831.075h-1.495l-.86-.037-1.314.03-5.564.269c-3.513.075-2.13-.748-2.13-.748l7.662.037c.732-.13.582-1.241.635-1.983l-.149-.786v-7.63s.187-8.379-.15-8.94l.113-2.057-.038-9.875c.026-.058.076-1.228.187-1.272.187-.075.374.187.411-.112.06-.47.9-1.646.935-1.048.037.636-.785 1.31-.785 1.31s.075 6.284-.262 8.004c-.115.588.187 1.683.187 1.683l.15 10.923v6.396-.075s-.083 4.069-.07 4.39c.032.841.036.742.444.885h.037l1.944.075 1.158.112c-.252.022.269-.21.806-.184.92 0 3.322-.004 3.418-.004.446-.252.12-3.4.132-3.883.008-.385-.02-4.644.204-5.243l-.112-3.815V65.535s.037-5.012-.187-5.873c-.224-.86-.075-1.833.561-1.795l.3 1.72-.076 4.826s.411.897.449 1.496c.037.598-.598.823-.598.823l.261 1.421s-.261 7.22.038 7.63c.299.412.15 8.716-.038 8.978-.187.262.187 1.758.15 2.132s-.3 1.01-.3 1.01zM33.698 61.345s-1.356-1.129-.823-1.085c.449.038 1.197 1.048 1.197 1.048l.822.823s.374.523 0 .598c-.551.11-1.196-1.384-1.196-1.384m.448-16.87 2.542-.074s.747-.037.822.15-1.383.299-1.383.299l-2.28.15s-.523-.45.299-.524M42.48 56.26c.225.074.524.224-.523.523s-1.981 1.46-2.28 1.235c-.3-.225.635-.748 1.308-1.085s.224-.786.224-.786l-1.906-1.683s-2.221-2.88-2.623-3.728c-.255-.536-.376-1.553-.218-1.62.262-.113.748 1.383 1.16 2.43l.998 1.156.982 1.388c1.981 2.469 2.557 2.062 2.878 2.17m-15.21 1.906c-.822-.075-.523 1.87-.523 1.87s.187 2.357.187 2.581c0 .225-.15 2.207-.15 2.207s.112.823 0 .898.038 2.244.038 2.244c-.225.3.037 2.357.037 2.357-.224.449-.075 5.124-.075 5.124s.3.225.15.374c-.34.339-.113 2.207-.113 2.207-.299.524.113 1.87.113 1.87v5.275l-.038 6.62c.224.674-.075 2.17-.075 2.17s.524 1.646-.224 1.646c-.747 0-.299-1.235-.299-1.235l-.037-5.46-.075-8.492-.037-8.042s.186-5.648-.112-6.134c-.3-.487.149-.935.149-.935s0-6.584.15-7.332c.149-.748.597-.075.597-.075l2.692.075.821.673.673.038c.475.242 1.3.827 1.308 1.01.01.185-1.046-.524-.673.261 1.907 1.422 1.309 2.408 2.056 3.74l.185 2.67v.034c-.203 4.286-.13 8.482-.053 12.924.077 4.341-.28 8.499-.05 13.4v.035l-.119 1.797-4.448.487s-.896-.394-1.102-.646.168-1.823.093-3.245c-.051-.974.14-2.098.075-3.104-.337-6.77.022-13.023-.112-18.665-.07-2.924-.162-6.701-.144-9.731v-.072l.043-.054c.2-.25.473-.58.849-.953 0 0 .112-.374-1.01-.337 0 0 .076 0-.747-.075m13.942 58.766-.21.125-.613-.238c-5.083-3.291-12.447-11.484-12.185-12.157s2.13-1.234 2.13-1.234c.412.074.86.074 1.309 0 .783-.13 1.239.161 1.239.161l2.01.264c2.283.585 3.002.876 4.712 2.792 2.206 2.468 1.645 7.78 1.608 10.287m53.123-93.094c.727-.346 1.123.19 1.779.163.435.1 2.533 1.926 2.794 2.237.405.483 3.324 1.552 5.086 3.188 1.724 1.601 4.303 4.139 7.17 6.936 5.884 6.488 9.803 13.888 11.832 21.643 1.05 3.134 1.108 5.977 1.509 9.284l.223 2.125c.302 4.29-.157 9.133-1.509 15.213-2.017 6.972-3.967 11.968-6.538 16.442l-.198.47c-.026.48-1.146-.298-1.532-.5l-.21-.116c-.881-.512-1.864-.852-2.813-1.182l-1.576-.489V99c-.145-.362 1.306-.757 1.929-.706.271.02.527.04.721 0 1 .055 2.996-.356 3.674-.343 1.443.026 1.192.073 1.481-.795.008-1.736-.25-3.887-.25-5.624 0-9.177.112-11.796-.111-19.075-.011-.35-.314-.711-.325-1.084-.07-.07.21-.264.253-.651.144-1.302.171-7.469.072-7.703-.506-1.193-.366-1.449 0-2.459l.253-.144.018-.036c.3-.253.72-.403 1.125-.547.769-.273 1.187-.321 1.187-.891 0-.06 0-1.255-.663-1.326-.638-.095-1.527-.042-1.687-.428l-.021-.05.008-.056c.06-.441-.09-.871.54-1.313.237-.165.608-.442.681-.783a1.1 1.1 0 0 0 .085-.421c0-.668-1.372-1.5-1.503-1.694-.132-.194.43-1.102.43-1.102.188-.445.355-.805.383-1.29.01-.183-.03-.37-.1-.564-.288-.896-1.607-1.366-2.053-2.627l-.35-.358c-.403-.092-.471.082-.813.483-.237 1.16-.828 1.956-.828 2.935 0 .724.45 1.018.733 1.68l.213.758-.804.64c-.353.387-.44.87-.44 1.219 0 .152.045.313.15.495l.074.136c.095.17.28.47.28.699 0 .041.066.246-.078.282s-.65-.145-.65-.145l-1.489-1.053c-.788-1.84-1.112-1.042-2.058-2.77-.03-.417-.875-2.32-.922-2.935-.083-1.067-.686-2.606.118-3.598 0 0 1.01-.14 1.35-.115.546.041.605-.118.826-.24.042-.115.165-.153.165-.25 0-.436-.212-1.1-.78-1.234-1.159.276-1.42-.268-1.49-.434s.331-.686.331-.686c.147-.509-.402-.124-.402-.616 0-.505.351-.888.237-1.444-.379-.355-.781-.816-.781-1.326 0-.294.461-.795.461-.795l.02-.027c-.032-.124.087-.513.087-.74 0-.472-.29-1.023-.805-1.633-.259-.31-1.088-.687-1.103-1.136l-.286-.122c-.162-.095-.419-.084-.503-.068-.782.529.284.379-.97 2.273-.092.139-.032.73 0 .875.196.347.47 1.27.568 1.563.142.426-.53.159-.84.674-.312.525-.613 1.029-.613 1.594 0 .245.057.502.192.779l.997 1.188-.227.073c-.258.083-.566.044-.863.008-.319-.042-1.333-.177-1.486-.042-.08.07-.124.202-.133.383 0 .207.296.33.56.551.213.758.636.621.915.706.575.265 1.14.043 1.592.478.134.13.071.228.071.545 0 .135 0 .994-.307 1.586-.001 2.612-.13 3.614-1.539 4.915 0 0-.108.977-.723 1.338-.614.362-1.084 1.05-1.084 1.05-.072.071-.867-.117-1.012.108-.325.506-.737 1.385-1.047.397 0 0 .406-.427.397-.47-.036-1.916-.115-1.612-.284-1.79-.198-.207-.988-.684-.988-1.02 0-.166.116-.336.116-.336l.289-.868c.494-.342.47-.506.542-1.338.022-.252-.109-1.048-.036-1.23-.831-.83-.96-1.033-1.12-1.807-.12-.58-.106-1.333-.434-1.519-.208-.12-.77-.11-1.187.039l-.525.951c-.521.894-.986 1.912-.986 2.912 0 .29.039.596.127.926l.16.254c.211.33.712.921.712 1.03s-.325.18-.325.18l-.361.904c-.614.543-.867.579-1.12 1.953-.055.294.46.587.595.901l.018.04v.041c0 .254.274.398.398.69.073.172-.166.462-.036.787 0 0 .253.325.253.47s-.598.355-.975.362c-.382.004-.63-.131-.884.265a1 1 0 0 0-.106.46c0 .135.023.27.073.386.076.183.432.694.555.733 1.003 0 .999-.238 1.463.512l.031.048v.059c-.017 3.924.057 8.49-.048 12.544-.12 4.554-.036 9.108-.036 13.596 0 3.94.397 7.269.217 10.994l1.002.803h6.985s.685.064.685.39c0 .325-.535.265-.535.265-3.54.734-6.367 1.651-8.318 4.062-.748.8-1.614 1.712-1.707 2.782-.935 2.157-1.151 4.589-1.208 7.03-.031 1.343.003 3.247-.145 4.701-.102 1.01-.41 1.787-.41 2.073 0 .7-.384 1.495-.384 1.495-.049.265-.036.363.072.578.167.336-.578.193-.205.777 1.024.188 4.47-2.07 5.085-2.74.484-.529.112.223 1.677-.896 1.557-1.112 6.91-4.576 8.104-6.207a39 39 0 0 0 5.085-5.202s.057-.111 1.956-2.572 4.527-7.439 4.527-7.439c.32-.7.331-1.124.697-1.865.243-.492.578-1.289.97-2.288.15-.382.516-.632.698-1.128.709-1.933 1.14-3.83 1.827-5.68 0 0 .723-3.357.726-3.355.602-3.547.782-4.307 1.006-7.886.084-1.347.263-5.159.112-6.6-1.51-14.373-5.98-23.434-13.022-31.879-1.12-1.52-4.133-4.916-8.238-8.326-1.584-1.315-2.66-1.629-3.834-2.635-1.173-1.79-2.97-2.502-4.239-2.755l-1.238-.769c-.39.056-.4.822-.4.822.051.037-.54.66-.485.693zm22.36 26.021h.19s.371.228.23.606c-.143.38-.446.493-.59.507s-.451-.269-.451-.269l.055-.38c.048-.102.058-.138.039-.178zm-.739 5.002c.125-.516.618-.845 1.171-.781 0 0 .579.055.531.623-.022.268-.345.595-.524.767-.102.099-.83.51-1.013.488-.455.133-.191-.453-.26-.64l.081-.393zM105.438 44.54l1.662-.073 1.551-.117c.241.186 1.072.078 1.05.262l-.325.253-1.048.145c-.074-.025-1.853.15-1.915-.036-.063-.193-1.12-.109-.975-.434m8.223 12.767c.044-.184.581-.11.752-.11.173 0 .667.18.714.394.048.213-.141-.048-.307.047s.07.64-.071.616-1.088-.947-1.088-.947m3.785 1.562s.567-.307.59-.047-.449.284-.449.284-.047.284-.52.19c-.473-.095.379-.427.379-.427m-3.885 2.46.032-.005c.484-.063.844.077 1.136.439l.042.054.001.072c-.3 3.226.116 5.86.097 8.903-.036 5.641-.538 11.514-.036 17.647-.066 1.004.087 2.03.144 3.001.077 1.29.278 2.424.074 3.603l-.027.163s-5.322.248-5.503-.04c-.18-.29 0-1.086 0-1.086l-.108-3.471c-.192-4.255.216-5.605-.073-9.185-.02-.257.219-.49.224-.773.051-2.94.21-7.436-.224-8.557-.013-1.085.113-2.275.073-3.363-.013-.346.098-1 .098-1l.01-.034c.644-2.246 1.771-4.788 4.012-6.355l.029-.014zm-5.963-24.22.08-.191.353-.017c.376.195.194.681.188.93l-.003.151-.185.174c-.12.206-.173.213-.284.236-.165.034-.221.005-.379-.118l-.094-.757zm-.656 4.29c.258-.311.757-.379 1.16-.355.236.014.449.236.686.568.033.047.153.22.14.281.014.07.027.14.027.21 0 .323-.62.472-.864.627-.24.154-.523.118-.768-.084a.66.66 0 0 1-.462-.373c-.15-.306-.1-.551.081-.874m.308 9.398.166-.876s.023-3.48.283-3.314.45.047.497.497c.048.45-.118 1.657-.118 1.657l.011.948.367.283s.142.142.213 1.042c.07.9 1.112 1.751 1.112 1.751l.023.427 1.041 1.373s.071.189-.213-.048-1.585-1.515-1.656-2.178-1.064-1.988-1.064-1.988-.237-.663-.544.663c-.308 1.325-.757 2.485-1.727 3.314 0 0-2.105 2.557-2.957 2.817 0 0 .071.308-.686.52 0 0-1.632.9-1.798.332a.58.58 0 0 1 .213-.663s.142-.023.166.166c0 0 .212.473 1.608-.379s.525-.346 1.183-.71c.098-.054-.62.447.213-.142.833-.59 2.648-2.79 3.028-3.788.378-.994.638-1.704.638-1.704zm5.126 8.677c-.46.705-.902.84-1.482 1.375-.646.595-1.275 1.212-1.662 1.988-.321.442-.759.977-1.77.796 0 0-.181-.326-.326-.796-.157-.511-.619-.519-.867-1.012-.359-.573-1.225-1.214-1.735-1.627l-.759-.724s-.56-.881-.044-1.561c.514-.68.043-.047.043-.047 1.086-.778 1.974-2.37 2.892-3.237l1.193-1.085s.506-.217.94.325c.433.543.577 1.049.903 1.374.325.326.903.724 1.698 1.628l1.662 1.193c-.078.316-.253.976.506 1.157 0 0 1.12-.506 1.373-.615s.398.037.47.145c.072.109 1.012.868 1.012.868s.144.253-.072.253c-.217 0-.542-.398-.615-.18-.072.216-.036.686.325.722.362.037-.072.362-.072.362s-.325 1.23.109 1.302c.433.072.47.723.397 1.012s-.217 8.788-.217 8.788v15.55l.217 5.026-.072 3.507s.361.868-.542.796c-.904-.073-.596-.266-2.457-.145-1.663.109-4.12-.072-4.12-.072l-4.228.108-2.53.181-2.637.073s-.795.433-1.193-.434c0 0-.397-2.387-.18-2.64s0-2.712 0-2.712l-.109-8.354V61.753l-.072-1.302s-.325-.868 0-1.23c.325-.361.18-.795.18-.795s.145 1.048.145 1.338c0 .289.181.542.181 2.097v10.161l.18 14.031.073 9.113s.217 1.048.831.94l6.504-.109s1.085.073 1.12-.253c.037-.325-.035-2.965-.035-2.965l-.145-6.798-.18-10.343.108-6.075s.397-3.146-.506-4.339c0 0-1.626-3.29-2.421-3.833s-3-2.314-4.264-2.423-.253-.325-.109-.29c.145.037 2.385.399 2.891 1.158 0 0 2.494 2.061 2.674 2.387.18.325 1.41 2.314 1.41 2.314s.289.578.541.108.29.254.29.254-.073 1.265.505.217c.579-1.05 1.952-3.074 2.24-2.785.29.29-2.023 2.025-2.24 3.906l-.433.904-.072 8.642V85.8l.36 9.474s.037.76.796.832 3.83.18 4.661-.036c.831-.217 1.843.144 1.843.144s.615.29.506-.759c0 0 .253-1.7-.036-3.254l-.217-6.184s.217-1.447-.18-2.459c0 0 .397-3.87.18-4.448l-.036-5.207s-.036-8.643-.108-9.185c0 0 .361-4.05-.325-4.195 0 0-.832.145-1.59-.434 0 0-1.048.253-1.59.832l-.76.615s-.83.506.29-.507 1.3-1.23 1.3-1.23.507-.976-.541-.325M98.488 48.48l.078-.207.066-.172.193-.306c.575.17.604 1.374.578 1.483l-.285.167-.095.103c-.132.144-.297.323-.578.25l-.115-.03-.025-.119c-.097-.453.045-.817.183-1.17zm-.081 5.658.31-.376.36.108c.181 0 .651.181.976.579l-.108.687-.306.777-.057.051c-.463.42-.628-.085-.902-.358l-.433-.325zm2.644 41.065-.09-.008s-.438.116-.546-.354.325-.977.325-.977c-.289-7.051-.104-12.659-.117-19.238 0-.459-.244-.88-.244-1.338 0-.224.072-.542.204-.853l-.022-.882-.218-10.306s0-.29.433-.507c.434-.217 1.012.036 1.012.036 1.807 1.121 2.53 2.46 4.047 4.738l.697 1.353v.055c-.041 3.876-.059 10.49-.155 14.394-.072 2.93.23 1.157-.036 6.799l.18 5.062-.039 1.76c-2.056.013-3.682.048-5.431.265zm-1.373 22.25-.203-.915.024-1.88.12-2.29c-.168-1.254.218-2.917 1.326-4.942 1.29-2.358 3.974-2.663 6.354-2.916l1.613-.029 1.24.192c.843.13 1.547-.032 1.621.374.096.52.492.665.996.832 0 0 1.061-.727.838-1.454-.136-.44-2.403-.95-2.403-.95-.112-.336-2.404-.616-2.404-.616-1.508-.838-4.526.224-5.085.224s-1.345.827-1.345.827c-1.38.168-1.305 1.066-1.45 1.129-.144.063 0 .057-.167-.054-.168-.112-.503 0-.503.167 0 .168-.462.803-.462.803-1.445.916-1.92 6.24-1.92 6.24s.314 4.758.314 5.597-.335.671-.335.671-.168-1.454-.168-1.734c0-.279-.224-5.704-.224-5.704.168-.336.67-3.244.67-3.244.448-.392.39-.896.448-1.119.324-1.238 2.251-2.467 2.251-2.467.458-.386.376-.497.376-.497.861-.862 2.892-1.424 4.394-1.624.839-.113 1.663-.024 1.663-.024 2.168.024 2.55.418 2.55.418.39.223 4.359 1.51 4.359 1.51 1.453-.895.223-1.398.223-1.398-3.856-1.846-7.88-1.734-7.88-1.734-.503 0-1.509-.224-4.247.895s-5.03 4.474-5.03 4.474c-.727.391-.017 1.28-.168 1.454-.648.745-.503 1.958-.503 1.958s-.434 2.765-.335 6.487c.027 1.012-.224 2.685-.224 2.685-.335.894-.782 1.006-.39-.28.39-1.287.055-3.635.055-3.635-.224-.336-.056-.671-.056-.671.503-.672 0-1.846 0-1.846-.503-2.517 1.453-7.103 1.453-7.103.615-.503.503-.447.503-.447.224-.783.95-.951 1.789-1.958.838-1.006 2.738-1.901 2.738-1.901.503-.168 3.13-.783 3.13-.783 1.565.224 2.123-.168 2.123-.168.224.112 1.286.224 1.454.168l.838-.28c1.677 1.119 3.13 1.063 3.13 1.063 1.006.95 2.459 1.23 2.459 1.23.558-.056.447.28.447.28s-2.404 3.523-2.85 3.97l-1.174 1.175-3.297 3.859c-.13.044-2.843 2.61-7.854 6.234l-1.94 1.386-.277.416-.935.312s-.935.381.035-.277c0 0 .484-.104.623-.416 0 0 .45.034.693-.382 0 0 1.335-.819.98-1.293zM17.283 89.37c.506 1.743 1.197 3.594 1.867 5.414-.91 1.198-1.293-.767-2.394-.288-1.656.707-3.255 1.581-4.835 2.156-.265.131-.747.395-1.005.527-.336.48 1.005 1.15.239 1.533-1.293.767-.998-1.882-1.403-2.497-.404-.615-.607-1.332-.81-2.05.557-.82 1.125.708 1.782.81.711-.205 1.101-.43 1.963-.862.974-.091 1.876-.377 2.733-.758.49-.218.953-.056 1.432-.727.608-.852-.972-1.734-1.771-2.06-1.293-.527-2.442.096-2.873-.767-.552-1.106 2.346-.91 4.26-1.724.517-.22.815 1.293.815 1.293m.527 7.139c.627-.21 1.231-.923 1.627-.527.479.48 2.011 4.216 3.495 6.467.191.096-.048 1.15-1.197-.095-2.008 0-1.033.576-2.92 1.341-.093.104-.362.169-.622.288-.284.13-.394.425-.766.575-1.137.457-2.341.889-2.155 1.58.144 1.198-.316.87-.67.767-.43-1.39-1.649-2.495-2.154-3.929.202-.359.409-.67.814-.67.191 1.15.885 1.799 1.34 1.389 2.023-1.127 3.87-1.724 5.793-3.21 0-.512.058-.737-.144-1.197-1.197-1.294-4.165-1.15-3.973-2.06-.026-.234.383-.336 1.532-.72m7.516 9.678c.202.36 1.005.719.383 1.246-1.053.24-.814-1.006-1.724-.623-.91.87-4.282 3.38-5.027 4.072-.67.623 1.82 2.683.048 2.3-1.062-1.435-4.069-4.695-3.111-4.935.574-.527 1.353 1.003 1.77.959.958-.336 1.616-1.03 2.203-1.773 1.293-.767 3.323-1.578 3.351-2.156.144-2.875 1.437-.192 2.107.91m6.319 8.097c.034 1.508-.957 2.827-2.346 4.312-.586.517-1.291.83-1.915 1.245-.766-.047-1.303-.011-2.01-.143-1.12-.608-1.772-1.964-2.25-3.067-.304-1.127-2.373.046-1.868-1.389 2.25-.767 2.059-1.82 2.538-1.533.052.912.088 2.32.335 3.21.207.746.55 1.031 1.292 1.293 2.011.336 4.398-2.083 4.453-3.018.048-.814.383-1.677.144-2.3-.315-.818-1.248-1.451-2.06-1.389-.621.048-1.774 1.445-1.723 2.108.048.623.83 1.295.192 1.486-.479.143-2.587-2.572-3.447-3.546.05-.307.22-.516.575-.67.606-.308.888.847 1.292.335.708-.461 1.489-1.133 2.298-1.39 1.867-.383 3.974 2.875 4.5 4.456m3.065 1.533c.505.872 2.76 1.316 2.154 2.443-.76.308-1.261-.744-1.868-.335-.957 1.82-3.542 4.36-3.542 5.653-.05.615 1.197.863.622 1.677-1.265-.359-2.957-1.962-4.07-2.73-.19-1.87.782.061 1.39-.144 1.507-1.222 2.92-3.546 4.212-4.983.23-.517-.024-.826-.096-1.198-.718-.335-.236-.564-.287-.718.67-.863.725.233 1.484.335m8.378 6.516c.479.143 1.06-.4 1.516-.298.506.155.546.459.495.92-.506.462-1.389 1.821-1.724 1.821s-1.915-4.216-3.699-4.302c-.705.182-1.471.326-.657 2.194 2.729 3.114 3.435 3.842 3.16 6.468-.709.87-1.68 1.316-2.777.91-2.202-.815-2.873-2.779-3.782-3.353-.355.153-1.703.31-1.724.047-.033-.431.375-.705.527-.91.506-.461.814-1.006 1.149-.814 1.293.739 1.88 3.626 3.59 3.88.108.272.289-.155.48-.191.15-.092.404.351.574.24.398-.264.68-1.127.574-1.486-1.315-1.998-4.493-3.314-3.734-6.133.303-.973 1.385-1.814 2.346-1.916 2.68.623 3.207 2.78 3.686 2.923m84.359-32.78c.214.522-.267 1.253-.906 1.357-.535-.365-.37-.434-.85-.956-.054-.732.1-.315.313-.941.68-.314 1.176-.087 1.443.54m4.147.924c.16.313-.134 1.217-.561 1.53-.427.21-.484.247-1.163.247-.747-.626.161-1.15-.052-1.83.64-.47 1.349-.627 1.776.053m-6.008-55.738c.26.942-.653.871-.813.506.053-.418-.328-.767-.755-.976-1.207.46-2.351 1.568-3.605 2.823-.89.892-2.014 1.242-2.038 1.83-.024.603.523 1.307 1.097 1.464 1.039.284 2.713.322 2.77.576.054.245-.51.495-1.046.836-.49.311-.935.715-1.343.915-1.493-1.41-2.022-3.113-3.463-4.418-.053-.418-.366-.837.313-.941.93-.143 2.482-1.988 3.71-2.72.907-.626 2.874-1.306 2.037-2.614.268-.365.568-.313.889-.052zm5.225 9.882c-.786-2.356-3.501-7.32-3.971-7.058-.47.261-.162 2.04.104 2.666-.218.164-.46.117-.68.262-1.869 1.243-3.685 2.098-5.12 3.921-.23.823.075 1.252.366 1.883.319.69.665 1.568 1.306 2.196.641.104.563.836 1.15.366 2.299-.941 4.334-3.19 6.897-2.98.907-.105.268-.733-.053-1.256m-2.678.968c-1.285.662-2.592 1.827-4.063 2.17l-.888-.21s-.836-.784-.836-1.62c.166-1.334 1.445-1.682 2.456-2.144.688-.315 1.86-1.19 2.239-1.365l.586-.248.06-.025.72-.088c.695.453 1.277 1.352 1.567 2.556l.018.103zm4.559 3.32c-.533-1.045.331-.472-.47-1.36-.533-.209-.82.438-.927.752-1.548 1.096-4 1.916-5.708 2.7-.96 1.096-1.289-1.15-2.142-.314 2.13 4.536.313 2.928 3.344 5.96 2.455.053 4.877-.735 6.478-2.876.107-.992.627-3.346-.574-4.862m.354 3.023c-.458.637-1.66 1.369-2.875 2.034-.543.297-1.576.882-2.128 1.165-.57.14-1.1.167-1.62-.21l-.452-.359-.593-.895.365-.732c1.149-.783 2.929-1.422 4.233-2.04 0 0 1.782-1.04 1.829-1.054.536-.065 1.097.793 1.097.793s.602.662.144 1.298m3.146 13.342c.418.157 1.097 3.66.157 3.399-1.358-1.726-1.515-.157-2.77 0-.907 0-3.51 1.432-3.395 2.196.156 1.046 3.674.942 5.33 1.516 1.013.366.399-1.672 1.253-1.36.68.576-.627 1.778.522 2.197-.267.104.21 1.568-.417 1.62-.68-.052-.408-1.15-.889-1.411-2.188-.522-5.807-1.204-7.942-2.196-.32-.418-.17-.585-.115-1.16 2.78-1.977 6.908-3.65 7.43-3.65.105-.21.418-1.308.836-1.15m-7.053 11.241c2.016.37 4.545.104 6.426.366.538-.073-.052-1.412.993-1.15.587 1.149.104 2.77-.105 4.705-.267.052-.467.104-.627-.157-.679-.052.053-1.359-.679-1.673-2.456.053-4.546-.522-6.531-.209.052.785.162 1.756-.373 2.069-.212 0-.525-.034-.587-.261-.503-1.86.542-4.422.333-5.207.96-.94.67 1.1 1.15 1.517m6.531 6.797c.733 1.246 0 2.824-.784 4.183-.149.54.627.941.209 1.516-.24.33-1.515-.627-1.515-.627l-2.456-.052c-.32-.419-.058-.785.209-1.046 1.933.261 1.985.575 2.978-.627.509-.616.737-1.78.523-2.406-.534-.887-1.915-.889-2.77-1.045-1.494.156-3.217-.887-4.232.784-.213.731-1.097 1.83.053 2.614.373.052.47.314.992.575.053.523-1.212.282-1.586.23-.534-.105-.918-1.014-1.026-1.589.366-1.621.47-3.451 1.65-4.156 3-.55 3.733.078 6.083.234.574.314 1.084.576 1.672 1.412m0-23.477s.574-.627-.262-1.359-3.03-1.412-4.702-.784-4.493 1.725-3.657 5.385 5.538 1.883 5.538 1.883 3.906-1.105 3.344-4.34c-.209-1.203-.888 1.255-.888 1.255s-1.829.836-1.933 1.255c0 0-2.56.731-2.822.94 0 0-2.873.576-2.612-2.509 0 0 3.762-2.51 5.33-2.562 1.566-.052 1.619-.262 2.141.47.523.733.523.366.523.366M124.93 93.932c.1.354.405.506.708.607 1.819 1.012 4.892 2.75 5.455 2.823.564.074 1.265-1.078 1.594-.89.328.187-.522 1.866-1.078 2.625-1.406.328-3.638.3-5.154.047-.151.152-.896.264-.328.704 1.03.796 2.619 2.255 3.327 3.47-.708 1.061-1.545 2.983-2.304 3.895-.303.1-.742.371-.976-.332-.094-.891 1.358-1.595.677-2.175-1.719-1.466-3.91-2.541-5.831-3.452-.657-.101-.562 1.5-1.453 1.22-.234-.657 1.365-3.14 1.968-4.174.354-.151.556.263.656.516-.375 1.407 1.678 1.401 2.436 2.11 0 0 2.562 2.25 3 1.922.374-.281-1.523-1.847-2.53-2.954-.337-.368-.139-.92-.329-.938-.515-.046-1.182-.763-1.506-1.078-1.352-1.313 1.037-.797 1.037-.797 1.365.456 4.498.563 4.78.563.28 0-3.187-2.016-4.639-2.438-.24-.005-.274.436-.469.515-.354 0-.702-.093-.702-.562.656-1.36.702-2.251 1.218-2.298.607-.152.443.565.443 1.071m-15.483 21.294c.256-.255 1.412.13 1.968.282.937.328 2.062.14 2.546.175.046 1.097.335 2.606.36 3.904-.376 1.079-.216 1.664-.235 2.157 0 0-.422-.281-1.03.516 0 0-.75.468-1.547-.657s-2.25-2.625-2.39-2.907c-.14-.281 0-1.313-.843-1.782 0 0 .703-.375.234-1.078 0 0 .515-.188.937-.61m-1.171.329c-1.171.281-1.471 1.558-2.44 2.053 0 0-.878.348-.606.666.282.328 1.172-.562 1.265.094.76.546 1.36 1.782 1.36 1.782 1.543 1.416 1.311 1.266 2.904 3.798.035.238-.608.708-.609.937 0 .19 0 .422.328.422 1.359-.984 3-2.22 4.264-3.282.983-1.782 3.233-2.344 2.782-3.214-.768-1.1-1.34.524-1.845.12-.125-.373-.188-.891-.047-1.266-.562-.563-.831-1.042-.703-1.454 2.202-.422 2.67-.094 3.374.188.86.303-1.36.75.14 1.735.937-.282.89-1.641 2.624-2.533.152-.303 1.468-1.652 1.063-1.855-.252 0-.818.098-.97.402-.561 0-.45.687-.842.703-1.219-.844-3.408-.432-4.92-.469 0 0-.047-3-.656-3.891-.61-.89-.61-.938-1.546-.14-.937.796-.802 1.285-.802 1.285.145.683 1.05-.005 1.504-.208.328-.375.864 2.1.188 2.814-.506.534-.516-.61-2.53-.329-.375-.421 1.077-.328 0-1.453-1.315.506-1.219.938-2.202 1.875 0 0-1.031.657-1.078 1.22m6.98-5.814c1.032-.891 3 .14 3.983.516 2.484.703 4.358 1.688 4.686 1.547.328-.14 1.452-1.735 1.312-2.204s-4.857-5.5-4.857-5.5c-.202-.557-.86-1.72-1.094-1.346-.234.375-2.126 2.12-1.64 2.532.61.516 1.125-.093 1.125-.093 1.03-.235 1.333.442 1.687.797-.506.607-1.453 2.391-2.25 1.97-.239-.206-1.546-.282-.515-1.126 0-.328-.234-.47-.562-.47-1.517.254-1.383 1.29-2.343 2.252-1.405 1.64.192 1.364.469 1.125m4.6-1.074-.14-.09.126-.111c.113-.098.362-.787.428-.976.095-.27.594-.267.844-.375.164-.07.526.205.796.328.842.633 1.873 2.199 1.757 2.53s-2.939-.742-3.81-1.306m-15.049 11.905c.909 1.467 2.212 2.507 2.717 4.126.303.606.795 1.108 1.453.703.796.14.703.375.515.75-.949.212-1.033.91-1.64.657-1.171-.563-2.836-1.39-4.1-2.25-.202-.05-.354.102-.455.254.245 1.855.342 2.96.292 4.528-.91.202-2.484 1.97-3.046 1.078-.281-.61.562-1.078.421-1.406-.609-1.423-1.672-2.879-3.139-4.97-.431-.616-1.687.515-1.265-.563 0 0 2.684-1.553 3.076-1.69.392-.139.602.177.485.565-.095.316-1.078.843-.328 1.453.422.422.02.657.235.985.983 1.219 1.393 2.78 2.201 3.235.89-2.72-.453-4.188-.655-5.908.808-.455.589.426 1.499.375 2.343.891 2.779 1.984 3.233 1.782-.454-1.062-1.874-2.813-2.905-3.845-.01 0-1.104.41-1.312-.14 0-.335.094-.423 1.03-.704.337-.1.57-.599.938-.844.562-.375.75 1.829.75 1.829m-63.8-106.498c1.17 1.715 2.491 3.693 3.712 5.407.751.565.99-.437 1.55-.282 1.222 1.082-.094.703-.705 1.223-.66.364-2.005 1.942-2.819 1.787-.282-.47.402-1.066.376-1.317-.115-1.1-.847-1.84-1.691-2.727-.425-.446-.858-1.46-1.316-1.928-.564-.575-.713-.998-1.222-1.505-.407.052-.964.762-1.269.658a.58.58 0 0 1-.516-.705s.936-.722 1.644-1.223c.8-.564 1.974-.987 1.974-.987 1.174.282-.176 1.079.282 1.599m-5.874 1.646c.517.893 1.222 2.069.984 2.925-.138.496-3.38-.198-4.79 1.072-.287.506-.767.63-.564 1.41.865.988 1.536.189 2.502.397 1.881-.572 4.705-1.852 6.332-.397.509.416.666 1.404.564 1.975-.384 1.628-1.182 1.891-2.35 2.633-.27.172-1.087.301-1.362.47-.27.166-.254.952-.516 1.131a8.5 8.5 0 0 0-1.364 1.22c-.235.236-1.033.377-.563-.987.281-.752.234-1.41.375-2.163.752-.752 1.88-.282 3.149-.376.892-.239 1.48-1.076 1.174-2.351-3.101-1.923-5.215 2.727-9.022.235.051-1.04-.485-2.94.33-3.668 1.474-1.611 3.267-.514 4.181-3.01.458-.051.94-1.088.94-.516m-5.122 11.755c-.94-.094-1.456.423-1.691.282-.235-.14.329-1.928 0-3.01-.329-1.08-1.645-1.08-3.383-.94-.197.15-.22.553-.423.753-1.128.517-1.864 1.733-2.679 2.774-.406.727-2.114 1.223-.94 2.351.8-.094.623-1.144 1.335-1.04l3.966 3.69c.483.494 1.306 1.072 1.466 2.005.042.246-.846.518-.235 1.129.846.188 1.645-2.163 3.132-2.968 0 0 .155-.415 0-.52-.548-.368-.687.446-1.111.62-.893-.518-.893-.047-.893-.047-1.175-.283-.937-1.238-1.598-2.07-.188-.705.596-.816.799-1.128 1.068.051 2.114.423 3.383.987.966.365 2.509-.687 2.444-1.598-.047-.659-2.068.094-3.572-1.27m-3.806 1.458c-.36.42-1.044.12-1.541-.324-.15-.25-.205-.452-.432-.617-.358-.26-.47-.282-.611-.752.042-.51.11-1.065.893-1.599l.714-.204c.427.032 1.19.224 1.541.862 0 0-.02 1.802-.564 2.634M14.79 41.017c0 .565 1.136.99 2.255 2.446.05.468 1.973 1.74 1.456 2.257-.516.517-6.202-.518-6.202-.518-.763-.26.61-1.034-.235-1.504-.966-.104-.757 1.22-1.316 1.74-.05.727-1.362 1.44-.752 2.116 1.374-.26.47-.565 1.645-.282 2.034 0 8.436 1.2 8.693.235s.019-1.099-.235-1.411c-1.055-1.55-2.292-3.286-3.242-4.279-.515-.539-1.128-.658-1.128-.94 0-.388-.94-2.265-.94.14" style="fill:#000;fill-opacity:1;fill-rule:nonzero;stroke:none" transform="scale(4)"/><path d="M14.742 39.795c-.305.26-.952 1.858-1.41 1.599-1.033-.706.564-2.822 1.175-3.15.235-.8.891-1.567 1.247-2.243.585-1.27 1.432-3.354 2.465-3.824.473-.215.47-1.043.739-1.114.518-.135 1.235-.014 1.987 1.02.429.59 1.268.47.986 1.082-.378.821-3.853-.8-4.51 1.316-.255.624-1.368.631-1.034 1.646.763.624 1.759 1.73 2.725 1.834 1.678-.467-1.14-3.012.893-2.492.305.727 2.396 1.27 2.255 2.022-.56.208-2.067.235-1.88 1.27.51 1.04 1.815 1.318 2.68 1.786.711-1.144 1.315-1.928 1.174-3.291-.56-.313-.408-1.79-.611-2.257 1.119-.936 1.994 1.083 2.96 1.551.051.677-1.078 1.547-1.41 2.21a22 22 0 0 1-3.054 4.562c-.508-.052-.184-.61-.235-1.129-2.136-1.456-4.229-3.15-6.842-4.112 0 .311-.38.206-.347.962 0 0 .188.235.047.752m-4.322 9.828c1.728.623 4.621 1.66 6.249 2.492.813.52.893-1.787 1.691-.612-.203 1.144-.845 1.176-1.209 3.758-.153.208-.294.286-.61.104-.671-.805.263-.726-.906-1.557-1.13-.178-3.76-1.74-6.014-2.305-.413.028-.33.706-.846.894-.517.188-.705-.235-.705-.235-.051-1.404 1.152-2.965 1.457-4.42 1.503-.33-.328 1.725.892 1.88M8.728 53.29c-.153.78-.42 1.437.188 1.6 2.114.563 7.283 1.88 7.47 2.162.189.282-.215 1.77-.469 2.445-.893.706-5.323.298-6.9.922-.559.156-1.17.156-1.678.52 1.648.432 4.631.627 6.746.91.406-.118.348-.628.657-.847.33-.188.692-.253.846.141s-.527 3.414-.799 3.339c-.845-.236-.282-1.035-.751-1.27-1.286-.689-3.453-.598-4.793-.94-.814.26-2.867-1.129-2.632.752-.508.312-.881.331-1.034-.188.026-.312.351-.551.377-.894.075-1.027-.085-2.213.563-2.915 2.187-.78 8.27-.611 8.505-1.082.235-.47-6.484-1.833-6.86-1.786s-.423.94-1.039.807c-.989-.213.099-1.936.099-1.936l.423-2.022c.61-.208.826.022 1.08.282m5.51 12.525c1.07-.299.693 5.673.465 6.097-.113.21-.813.623-.813.623-2.645 0-4.94-.107-7.229-.107-.762.104-.186.516-.845 1.176-.142.14-.47.376-.8 0 .112-.845.298-1.63.33-2.351-.141-1.599-.072-2.452.282-2.351.704-.236.538 1.193.94 1.175 2.114-.094 4.493.641 6.578.33 1.068-.676.987-1.646.81-2.946l-.407-.78c-.732-.224-4.585-.507-6.955-.467 0 0-.355.76-.872.807s-.235-2.728.14-3.292c.611-.624.695 1.098 1.363 1.129 4.088.188 5.263.188 7.013.957m94.275-41.253c.417-2.017 1.116-3.708 1.668-5.287-.15-.5-.711-.993-1.112-1.043-2.016 1.043-4.796 3.687-7.02 5.287-.3-.35-.606-.278-1.322-1.044-.4-.15-.98-.551-.83-1.052.67-.99 1.327-2.247 1.873-3.54.07-.695.624-1.945 1.251-2.573 2.225.626.617 3.333 1.738 4.035.556.348 1.947-2.644 1.808-2.992-.088-.217-3.07-2.014-5.145-3.2-1.237-.707-1.955-1.147-2.085-1.043-.348.278-2.086 3.06-1.32 3.13.238.022.63-.612 1.25-.904.974.139 1.92-.453 2.434-.14-1.252 2.088-2.294 4.662-3.198 6.54-.651.15-2.572-1.043-2.572-.487 0 1.671 3.474 1.887 4.588 3.34 1.112.765 2.92 2.295 3.128 1.738s-1.599-1.739.904-2.365c.695.696 1.585 1.15 2.085 1.6.2.701-.398 1.278-.347 1.878-.3.301-.974-1.113-1.252-.278-.764.487 2.585 3.036 2.85 2.505.487-.974-.625-1.183-.556-1.461.1-.4.736-1.393 1.182-2.644m-1.46-.904c-.163.142-.436-.073-.436-.073s-1.163-.623-1.51-1.04c-.348-.418 1.738-1.74 1.738-1.74l1.599-.834c.208.626-.957 3.31-1.39 3.687m12.025 2.992c.07.556-1.832 1.502-2.432 2.504-1.53.347.258-2.394.208-2.644-.278-.835-.487-1.322-.834-1.67-1.952 1.453-4.102 4.453-4.866 5.635.2.3 1.017.99.967 1.39-.967 1.463-.675-.257-1.176-.207-.087-.25-.278.278-.765-.417-.903-.905-2.37-1.433-1.807-2.296.55-.15 1.03.659 1.53.209 1.3-1.804 3.492-3.954 5.144-5.357-.348-.243-.798-.247-1.182-.417-.385-.171-.704-.51-1.112-.487-.626.347-.904.695-1.577.772-.25 0-.55.05-.701-.25.679-1.149 1.34-1.72 1.94-2.42h.551zm-23.336 99.326c.202.461.446.738-.304 1.066-.75.75-1.406.343-1.72-.452-.303-.563-.23-.932.174-1.189.556-.153 1.596.114 1.85.575m1.957 4.03c.202.563.318 1.192-.34 1.397-.505.103-.963.577-1.33-.168-.263-.535-.586-1.162-.029-1.52 1.312-.516 1.396-.017 1.699.29m19.221-98.206s-1.682-1.401.188-1.515c1.56-.094 1.372.19 1.42.568.046.379-.38 1.183-.616 1.278s-.993-.331-.993-.331m-2.648 2.981s.289.869 1.324-.236c.71-.758-.008-1.08-.19-1.23-.567-.474-1.985.283-1.701.993.283.71.567.473.567.473M14.655 83.901s1.954.073 1.087 2.11c-.735 1.728-1.79-.031-1.79-.031s-1.15-1.887.703-2.079m-3.451 1.216s2.013.223 1.598 1.47c-.416 1.248-2.365 1.311-2.46.192-.096-1.119.35-1.694.862-1.662" style="fill:#000;fill-opacity:1;fill-rule:nonzero;stroke:none" transform="scale(4)"/></svg>