<svg xmlns="http://www.w3.org/2000/svg" xml:space="preserve" width="54.25" height="54.25"><defs><clipPath id="a" clipPathUnits="userSpaceOnUse"><path d="M0 0h595.276v841.89H0z"/></clipPath></defs><g clip-path="url(#a)" style="fill:#4d4d4d;fill-opacity:1" transform="matrix(1.25 0 0 -1.25 -49.499 67.467)"><g style="fill:#4d4d4d;fill-opacity:1"><path d="M0 0c0 11.937-9.677 21.614-21.614 21.614S-43.228 11.937-43.228 0s9.676-21.614 21.614-21.614C-9.677-21.614 0-11.937 0 0m-.238 0c0-11.806-9.57-21.377-21.376-21.377S-42.991-11.806-42.991 0s9.571 21.377 21.377 21.377S-.238 11.806-.238 0m-.446 0c0 11.56-9.37 20.93-20.93 20.93S-42.545 11.56-42.545 0c0-11.195 8.79-20.338 19.845-20.903a6 6 0 0 0-.647.378c-10.564.88-18.864 9.733-18.864 20.525 0 11.376 9.221 20.597 20.597 20.597 11.375 0 20.597-9.221 20.597-20.597 0-10.792-8.3-19.645-18.865-20.525a6 6 0 0 0-.646-.378C-9.473-20.338-.684-11.195-.684 0m-29.311-17.255c.074.193.181.399.276.595.099.204.169.432.302.605.036.046.112.024.161.037.013.071.048.193.048.222 0 .054-.551.582-.746.741l-.564-.177.689-.622a9 9 0 0 1-.169-.31h-.931c-.151-.21-.175-.179-.175-.344l-.057-.84c.035-.06.081-.117.118-.166l.704.209c.253.015.213.017.3-.001a.2.2 0 0 0 .044.051m-.11.877-.405-.858c-.061.01-.129-.002-.191 0 .034.154.071.315.098.464.003.015.032.396.126.394zm.556-1.79.932.286a.15.15 0 0 1 .072-.01c.209.462.387.936.614 1.381.039.076.145.113.216.163l-.832.558-.604-.247c.198-.132.609-.356.609-.385v-.229l-.488-1.104a4 4 0 0 1-.17.562l-.605-.175c.034-.107.07-.211.098-.314.046-.169.06-.333.158-.486m3.553-.093-.639-.337a9 9 0 0 1 .36-.628c.211.116.43.231.628.349zm-.729 1.509c.078.146.305.158.446.231a.7.7 0 0 1-.131.145l-.621-.268h-.222l-.858-2.202c-.052.145-.11.305-.158.47a5 5 0 0 1-.537-.082c.046-.212.08-.418.13-.616.115-.048.329-.129.358-.129s.208.061.3.078c.09.016.185.047.276.069.03.007.13.006.149.052.298.744.495 1.545.868 2.252m-4.483 1.837-.151.686-.709-.139v-.062l.139-.624h.084zm-3.117 29.589h-.603v-.604h.309c.32-.321.657-.599.924-.952.062-.082.049-.205.074-.3h.039c.161.045.33.087.473.153.033.016.037.064.037.093s.069.465.069.494-.015.028-.015.028c-.107-.034-.278-.103-.306-.103-.029 0-.397.398-.597.596-.041.04-.403.414-.404.445zm-3.951-3.799.216-.71c.002-.076-.009-.197-.009-.226s0-.025.004-.034c.263-.132.526-.263.78-.392.145-.073.315-.111.443-.233.033-.033.014-.088.017-.136a.6.6 0 0 1 .176-.095l.74.676-.235.587-.519-.574-.229.135v.848c-.018.055-.183.212-.218.212l-.953.069c-.102 0-.076 0-.209-.097-.004-.011-.004-.03-.004-.03m.265-.323c.293-.056.592-.113.878-.175a.5.5 0 0 0 .017-.095c0-.028 0-.194-.002-.313l-.878.408c-.004.033-.016.083-.015.112zm-.43-.998-.558-.222c.08-.184.142-.381.233-.547.096.046.243.103.272.103a8 8 0 0 0 1.094-.519c.089-.055.136-.191.209-.285l.443.336c-.046.199-.092.394-.142.594-.097-.07-.243-.195-.272-.195-.028 0-.151.074-.233.111-.319.145-.673.273-.973.462-.051.034-.036.114-.073.162m-1.446-3.276c-.192-.173-.432-.298-.641-.45l.451-.995c.188.034.532.08.56.08s.529-.116.762-.232c.12-.061.171-.192.244-.262l.511.711-.359.908c-.073-.011-.193-.045-.221-.045-.029 0-.208.063-.309.1-.311.119-.618.072-.934.416-.027-.084-.011-.182-.064-.231m-.261-.82.504.362 1.253-.383c-.069-.094-.188-.29-.275-.329l-1.247.35zm1.175-1.384-2.266.504v-.04c-.001-.029.08-.334.127-.492.635-.144 1.281-.286 1.91-.423.059-.011.126-.031.182-.045.055-.11.113-.236.163-.343l.386.604c-.093.152-.208.313-.304.465-.074-.083-.131-.163-.198-.23m-2.267-1.453.642-.89c.181.057.518.172.547.172l.465-.058c.029 0 .208.014.303-.025.103-.042.194-.158.291-.216l.371.782-.544.838c-.151-.057-.132-.08-.237-.08-.029 0-.271.025-.499.046-.161.012-.327.021-.482.061-.11.029-.205.11-.304.156V3.24c-.002-.102-.487-.551-.553-.619m.46-.29c.038.052.346.433.436.433l1.274-.129c-.028-.091-.174-.388-.205-.388l-1.304.115c-.029 0-.103-.023-.201-.031m-.678-1.399c.148-.156.52-.506.68-.786l1.542.011c.079-.035.17-.092.256-.138.003.324.128.659.187.961l-.49.452c-.015-.062-.038-.144-.038-.173s-.035-.338-.061-.508c-.075-.044-.205-.123-.234-.125h-1.222c.147.118.308.244.448.375a14 14 0 0 1-.407.465zm.184-2.356.569-.396.395.559-.569.383zm2.109-.131.395.546-.558.396-.407-.546c.013-.015.013-.027.013-.027zm-1.949-1.995.786-.74c.325.104.647.196.966.301.018.06.025.118.029.176.017.206.035.356.035.385s-.001.043-.006.053c-.1.061-.305.165-.305.194 0 .023.065.209.111.221.157.046.441.084.47.084s.018.001.029-.008l-.127-.843c.007-.081.151-.148.232-.219.076-.069.227-.194.256-.194s.118.058.167.097c-.06.051-.116.095-.15.151l.149.925c-.081.1-.179.211-.273.319-.088.098-.249.289-.278.289-.028 0-.627-.104-.94-.166-.07-.183-.139-.378-.208-.566.111-.076.379-.198.379-.245a.6.6 0 0 0-.067-.261 11 11 0 0 0-.594-.176c-.029 0-.132.104-.132.132 0 .01.156.373.248.385.181.028.215.012.245.004l-.777.651c.02-.144.066-.321.066-.35s-.218-.411-.311-.599m2.849-1.495c.024.163.046.335.081.499l-.525.359c-.026-.107-.038-.211-.052-.312-.441-.135-1.324-.4-1.353-.4s-.107.058-.169.08l-.279-.524.547-.268c.049.083.096.165.121.233.009.011.03.033.041.041.413.117 1.198.335 1.227.335.028 0 .298-.057.327-.057s.021.001.034.014m-1.399-1.852h.129c.028-.001.255.034.374.06-.023.074-.034.142-.057.207l1.045.422.401-.184c.007 0 .024.015.024.015l.047.755a.2.2 0 0 1-.006.055c-.17.082-.354.151-.531.22-.038-.153-.072-.314-.111-.462a.1.1 0 0 0-.027-.028 40 40 0 0 1-.96-.372 28 28 0 0 1-.172.551c-.199-.01-.256-.012-.417-.022-.023-.001-.062-.015-.074-.039l.184-.622v-.042l-.759-.29c.187-.098.383-.178.58-.259l.298.115a.13.13 0 0 0 .032-.08m.033-1.56c.304-.003.634-.138.939-.255-.009.072-.124.235-.124.31 0 .028.035.275.035.304s.011.207.013.295c.385.136.776.274 1.15.412l.17-.407-1.184-.679.546-.213.833.46a5 5 0 0 1 .446-.056l-.068.717c-.011.047-.011.092-.016.129l-.467.138.116.57c0 .013-.011.024-.013.039a8 8 0 0 0-.674.185 16 16 0 0 1-.001-.427c-.423-.158-.859-.307-1.283-.461-.051-.137-.094-.284-.14-.425-.066-.205-.089-.438-.278-.636m1.6-1.749c.176.046.325.08.478.129-.022.074-.057.154-.08.219l.972.559c.135-.045.274-.08.44-.113l-.092.824-.582.126c.027-.05-.002-.281-.002-.394 0-.023.005-.063-.014-.076a9 9 0 0 0-.909-.528c-.089.17-.169.342-.253.506-.164-.046-.325-.069-.478-.105v-.04l.287-.617-.7-.401c-.001-.015.013-.026.013-.026.162-.04.326-.067.472-.112.036-.011.088-.043.117-.043s.198.115.286.161c.02-.022.03-.043.045-.069m.997-.837c.3.3.735.496 1.075.726.114.019.24.03.359.056-.022.176-.057.349-.085.512-.194.059-.389.117-.588.186-.014-.013-.015 0-.015-.029 0-.028.034-.196.057-.285l-1.187-.769c-.038-.052-.078.003-.134.003-.029 0-.033-.013-.045-.026-.024-.186-.047-.369-.08-.557.199-.037.394-.06.593-.094.026.096-.015.212.05.277m4.776-4.518-.709-.151.139-.686h.061l.648.139v.074zm-1.554.771c.314.358.65.793 1.037 1.17.052.051.147.048.22.075l-.647.776-.639-.084.471-.52c-.023-.077-.022-.18-.072-.248-.239-.324-.547-.62-.781-.894v.576c-.298-.003-.58.047-.645-.001v-.816h.985c.029 0 .045-.022.071-.034m-1.993 1.479c.011-.084.011-.521.013-.542-.002-.011.001-.019-.012-.032h.629v.259c.001.029-.011.035-.008.045.363.343.679.698 1.075 1.018.094.075.229.071.347.12-.069.165-.115.326-.174.489l-.629.068c.034-.109.068-.213.114-.301-.366-.342-.776-.692-1.102-1.05-.087-.096-.185-.039-.253-.074m-.564 1.241v.351l1.03.824a.03.03 0 0 0 .017-.01l.16-.466a12 12 0 0 0-.389-.372c-.197-.175-.382-.366-.608-.516-.058-.038-.148-.027-.22-.04v-.641h.063l.51.127c.053.145 0 .145 0 .229 0 .044.515.468.637.58.036.033.102.081.142.115.227.179.2.247.456.247.029 0 .027-.01.04.004-.115.314-.218.624-.339.922-.297.039-.861.096-.89.096-.125 0-.905-.689-.971-.689-.028 0-.099.034-.128.033h-.077v-.974l.694.095c-.037.029-.083.052-.127.085m-3.228 20.219.149-.506c-.147-.112-.425-.277-.425-.306 0-.068.16-.514.211-.597.13.046.352.126.381.126s.717-.271 1.066-.428c.082-.036.094-.202.164-.227l.453.326c-.093.165-.173.326-.269.478-.084-.046-.219-.138-.248-.138s-.739.236-1.045.447c-.088.061-.07.203-.087.307-.009.004-.017-.017-.017.012v.03l.383.181a.6.6 0 0 1 .082-.121c.331-.143.683-.245.997-.421.063-.036.067-.133.117-.205l.443.378-.199.53-.29-.242c-.181.08-.363.158-.537.227-.112.044-.248.055-.331.132-.105.1-.149.248-.219.365h-.039zm2.631 4.381c0-.029.069-.322.069-.351s-.009-.041-.02-.048c-.172-.061-.344-.119-.508-.179.011-.028.027-.038.029-.05.044-.179.128-.415.18-.598.01-.013.026-.038.039-.038.07.047.188.115.217.115s.715-.401.991-.676c.093-.094.083-.251.132-.381l.559.278v.05l-.14.544c-.085-.022-.21-.068-.239-.068s-.059.025-.094.049c-.198.141-.928.593-.928.646 0 .029-.012.218-.012.247s.008.04.032.056c.135.086.371.254.399.254s.028-.175.091-.228c.268-.23.635-.343.877-.586.084-.083.061-.227.087-.334l.639.313-.071.525c-.109-.046-.273-.138-.302-.138s-.731.406-1.015.699c-.099.102-.082.273-.12.415-.234-.126-.465-.25-.682-.359-.051-.024-.21-.081-.21-.157m3.169-.233-1.963 1.719c.339.019.408.019.466.016a.1.1 0 0 1 .024.017v.594h-.069c-.029.001-.284.011-.395-.049-.269-.148-.256-.266-.256-.433 0-.029-.023-.494-.023-.523q-.001-.041.004-.06c.182-.162.386-.34.573-.503.545-.478 1.068-.923 1.614-1.395.004.017.009.022.025.024zm.381 3.065c0 .029.045.124.066.179.02-.001.043-.013.419-.012.056-.079.113-.171.177-.242l.208.964c-.109-.069-.286-.229-.315-.229h-.645l-.312-1.012.722-.699c.193.08.4.161.598.243.004.105-.011.257.021.355.066-.001.187.022.215.022.029 0 .237-.285.351-.407l-.02-.019c-.148-.045-.296-.099-.436-.145-.123-.04-.429-.129-.429-.176 0-.029-.057-.372-.103-.559q.09-.055.168-.107c.015.062.001.153.05.185.188.123.446.164.639.226.089.028.232.022.29.101.157.21.3.694.3.723s-.588.764-.62.764c-.029 0-.398-.058-.596-.106-.001-.038-.013-.095-.013-.124s0-.178-.004-.268a.47.47 0 0 0-.254-.1c-.048 0-.156.118-.2.16-.103.093-.277.254-.277.283m3.54.92c.344 0 .586.236.586.603 0 .322-.236.615-.604.615-.399 0-.58-.372-.58-.655 0-.029.023-.089.031-.122.07-.32.328-.441.567-.441m2.16 1.103c.36 0 .574.267.574.603 0 .322-.234.615-.603.615a.584.584 0 0 1-.58-.598c0-.317.234-.62.609-.62m8.819 1.673c-.033-.097-.1-.228-.1-.329 0-.029.053-.26.107-.353a.56.56 0 0 1 .502-.267c.347 0 .586.264.586.609 0 .313-.22.609-.591.609-.148 0-.435-.07-.504-.269m-3.435.218c-.012-.059-.042-.162-.042-.191s.019-.09.03-.133c.089-.319.26-.487.579-.487.346 0 .586.264.586.609 0 .314-.22.609-.592.609-.22 0-.501-.11-.561-.407m-.264-3.066c-.099-.194-.445-.83-.445-.893 0-.023.002-.092.075-.092.058 0 1.125.802 1.207.862.401-.288 1.114-.862 1.206-.862.05 0 .074.039.074.092 0 .029-.174.405-.268.591-.306.605-.621 1.227-.931 1.83-.023.046-.073.049-.081.049s-.06-.004-.083-.049c-.262-.503-.5-1.034-.754-1.528m-2.719 1.841c.346 0 .586.265.586.609 0 .315-.22.609-.592.609-.22 0-.501-.109-.562-.407-.011-.058-.041-.162-.041-.19 0-.029.019-.091.03-.134.089-.319.26-.487.579-.487m1.941.203v-.204h-1.605v-5.548l.698 1.36v.425c0 .029-.039.192-.074.28-.01.026-.047.049-.062.048-.014-.084-.018-.166-.029-.233-.013-.074-.074-.237-.203-.237-.168 0-.149.197-.149.305 0 .142-.025.316.206.378-.158.082-.287.295-.287.443 0 .029.009.122.026.176a.3.3 0 0 0 .098.144c.03.021.071.013.1.013.193 0 .239-.147.264-.333.026.12.082.287.213.287.139 0 .161-.153.161-.252 0-.145-.107-.372-.272-.509-.004-.013-.004.003-.004-.026s.088-.138.111-.208c.036-.108.082-.236.065-.337.191.359.387.727.566 1.095.004.011-.006.036-.006.048 0 .103.011.109.011.138 0 .192.014.302-.085.531-.008.012-.036.037-.051.036-.023-.069-.006-.481-.243-.481-.145 0-.149.222-.149.316 0 .09.014.367.194.377-.141.114-.263.28-.263.433 0 .097.043.344.218.344.185 0 .278-.203.269-.379.027.121.03.322.213.322.154 0 .15-.131.15-.23 0-.297-.276-.531-.276-.551 0-.029.085-.133.111-.192.05-.112.066-.228.077-.348l.559 1.061v.459c0 .029-.039.192-.074.28-.01.026-.047.038-.062.037-.033-.074.002-.459-.232-.459-.168 0-.149.2-.149.293 0 .131-.003.341.195.391-.103.033-.218.208-.218.287 0 .029.008.016.008.016h.762v-.037c-.068-.102-.242-.301-.242-.329s.074-.122.1-.181c.043-.097.053-.258.088-.359.017.013.029.013.029.013l.449.903c-.396-.009-.415-.01-.425-.001.015.164-.008.28-.166.28-.096 0-.145-.04-.183-.173.015.112-.137.218-.231.218-.046 0-.201-.034-.201-.13m2.436-.122c0-.029.012-.061.003-.082h-.427q.223-.457.451-.903c.009-.012.032-.013.05-.026.001.143.04.282.098.417.014.034.089.117.089.146s-.107.122-.147.181a1 1 0 0 0-.095.18h.761c-.006-.103-.129-.26-.232-.298.156-.037.219-.234.219-.402 0-.046-.013-.282-.155-.282-.213 0-.167.344-.252.471a.17.17 0 0 1-.073-.096 2 2 0 0 1-.061-.358c0-.028.003-.046.012-.241.001-.047-.005-.097.008-.128.148-.339.316-.673.49-.989.01-.02.044-.024.073-.048.004.13.036.305.109.427.019.033.078.089.078.118 0 .032-.275.256-.275.563 0 .061-.015.224.138.224.166 0 .169-.202.213-.322.026.175.068.368.269.368.139 0 .207-.148.207-.27 0-.148-.054-.393-.276-.494.226-.082.207-.249.207-.385 0-.037.024-.299-.138-.299-.201 0-.181.33-.246.483-.017-.014-.028-.013-.028-.013-.07-.105-.105-.34-.105-.47 0-.028-.025-.257.015-.364.133-.347.342-.678.516-1.013h.041c.014.119.032.234.074.347.026.069.112.169.112.197 0 .029-.115.122-.159.198-.083.144-.117.204-.117.348 0 .069.006.23.144.23.16 0 .21-.25.218-.333.002.151.069.39.259.39.155 0 .195-.148.195-.27 0-.152-.024-.384-.253-.506.194-.061.207-.241.207-.373 0-.069.025-.298-.143-.298-.221 0-.177.338-.218.422-.01.02-.035.037-.049.037-.006-.006-.107-.232-.107-.291v-.52c.116-.22.246-.443.341-.656.066-.151.244-.543.291-.543.029 0 .021.001.034.015v5.437h-1.574c.038.14-.044.303-.206.303-.105 0-.197-.086-.236-.195-.065.125-.092.161-.183.161-.115 0-.167-.096-.167-.195m5.078-.793c.345 0 .586.261.586.615a.6.6 0 0 1-.603.614c-.029 0-.163-.042-.243-.065-.217-.061-.326-.337-.326-.567 0-.298.241-.597.586-.597m2.24-1.183c.345 0 .586.264.586.609 0 .314-.22.609-.592.609-.219 0-.501-.11-.561-.407-.011-.059-.041-.162-.041-.191s.018-.09.03-.134c.089-.318.258-.486.578-.486m1.51-1.659c0-.128.023-.293.071-.442.2.022.395.057.583.093v.072c.001.028-.068.335-.093.5h-.094c-.029.001-.075-.013-.085-.026-.136-.008-.273-.042-.416-.055v-.063c0-.029.034-.05.034-.079m-2.811-31.406.183.617-.617.184-.19-.611zm.726-1.275.19.618-.638.162-.183-.59zm7.465 5.092h.042v.061a.5.5 0 0 1-.027.14c-.007.137.004.286-.046.415-.027.069-.179.1-.214.191.02.008.035.019.035.048 0 0-.27.373-.293.373-.029 0-.15-.126-.178-.126-.029 0-.542.424-.825.64-.014.136-.026.274-.05.416h-.052c-.244-.145-.705-.327-.705-.373 0-.028.046-.322.061-.484.009-.013.01-.025.024-.038.121.037.333.069.449.138l.788-.627c-.104-.1-.368-.308-.368-.379 0-.031.231-.396.27-.396.029 0 .337.312.494.471zm.422 4.014c0 .132-.065.292-.095.407l-.663-.162v-.074c-.001-.029.054-.148.071-.218.028-.113.055-.242.092-.36.223.057.441.103.663.162v.048c0 .029-.043.115-.05.152-.004.023-.018.016-.018.045m2.634 2.603c.228.06.33.152.559.231v.04c-.046.082-.126.199-.126.228s-.069.186-.106.269h-.051c-.093-.071-.17-.068-.262-.114l-.894.356c-.058.023-.149.027-.205.083-.085.085-.149.214-.231.319h-.04l-.543-.717c.058-.141.138-.279.199-.417.009-.012.025-.026.039-.026l.389.368.796-.31.018.004c.113-.05.263-.075.377-.156.05-.036.055-.11.081-.158m.771 1.681c.195-.061.413-.119.614-.176v.042c-.137.174-.232.393-.403.528-.063.049-.174.038-.251.058a.5.5 0 0 1 .058.147c0 .029-.002.027-.014.037-.139.06-.422.21-.451.21A.05.05 0 0 1-3.402-4c0-.033-.029-.078-.049-.123-.007-.012.009-.009-.02-.009s-.246.057-.36.077c-.23.061-.483.118-.722.168-.068.086-.136.189-.196.271h-.04l-.405-.884c.081-.135.185-.273.289-.401h.043c.104.163.207.335.308.482q.444-.105.892-.202l.042-.023c-.057-.146-.172-.436-.172-.464 0-.016.438-.334.455-.333h.037c.006.049.042.147.055.187.031.105.068.21.103.299.023.06.035.169.1.203.008-.023.111-.042.139-.042m.636 1.885c.058.039.138.042.197.078v.052c-.293.189-.359.396-.565.665a.1.1 0 0 1-.041.003c-.013-.096 0-.197-.044-.278-.117-.208-.29-.389-.431-.56l-1.101.228v.041q.07.19.101.375h1.189c.022-.021.049-.023.077-.023.029 0 .041.011.068.013v.04c-.08.116-.24.303-.24.332 0 .028-.035.083-.061.12l-.852.012q-.072 0-.127.064c-.069.076-.23.211-.258.211-.05 0-.222-.357-.245-.405-.065-.13-.157-.264-.226-.399l.287-.339-.437-.47c.133-.179.284-.391.455-.535.073.094.189.247.189.276q-.001.054.098.103l1.218-.252c.083.058.162.132.233.193.182.161.332.333.516.455M-2.488-.98h.763l-.394.454c-.174-.036-.281-.004-.319 0 .001.019-.01.053-.011.08-.153.036-.302.082-.456.116-.013-.076-.021-.179-.068-.229h-.972l-.31.31h-.052l-.324-.695c.116-.141.255-.268.371-.384h.04c.082.128.162.243.252.368h.971l.02-.02c-.031-.078-.028-.197-.043-.296-.01-.069-.025-.15-.024-.223.061-.013.118-.037.175-.043.08-.039.231-.097.26-.097s.021.013.034.027c.001.025 0 .05-.004.06.027.171.05.355.069.525.013.01-.007.046.022.047M-4.478.796-4.7.325l.382-.458h.041c.048.106.093.209.148.298a1 1 0 0 1 .141-.023c.029 0 .235.023.373.011.012 0 .028.014.037.024h.916c.029-.001.116-.104.145-.104.047 0 .391.411.402.431-.14.13-.379.373-.408.373s-.011.012-.04.012c-.073 0-.138-.219-.299-.219L-3.88.659c-.036-.024-.113-.023-.142-.023s-.075.011-.108.008c-.102.049-.218.106-.348.152m1.292 4.098c-.156.1-.226.28-.29.28 0 0-.087-.014-.107-.047l-1.157-.321c-.056.023-.132.092-.161.092s-.224-.092-.224-.121-.046-.574-.054-.941c-.003-.011-.015.011-.015-.018 0-.037.386-.246.486-.32h.042v.807c0 .029.01.043.032.062.079.026.221.083.25.083.047 0 .612-.63.654-.632l.199-.012c.001 0-.002.001.02.001.04 0 .442.313.464.331.078.069.381.237.381.341 0 .029.011.046.011.075 0 .099-.508.326-.531.34m-.066-.134c.028 0 .046-.011.075-.011s.028-.012.028-.04c0-.029.035 0 .035-.029s-.026-.045-.031-.049c-.007-.001-.043-.013-.051-.037-.014-.006-.038-.006-.046-.007.001-.006-.018-.011-.028-.011-.028 0 .002-.022-.009-.025-.194-.112-.508-.296-.536-.296s-.045.015-.061.037c-.049.063-.113.156-.166.186-.019.012-.023.019-.049.037.04.004.086.027.115.027.009 0 .011.009.011.017 0-.018.022-.005.041-.005.028 0 .344.114.373.114.008 0 0 .009 0 .018 0 .028.063.005.092.005.008 0 0 .009 0 .018 0 .028.178.051.207.051m-1.215 3.423c-.047-.1-.035-.24-.138-.298l-1.238-.536c-.022.007-.058.008-.326-.001v-.529l.543-.255c.013 0 .029.014.029.014v.299l1.351.629c.044-.011.091-.034.175-.045.071.175.175.472.175.5v.071c-.199.06-.383.106-.571.151m-4.189 3.891a.3.3 0 0 1-.001.092c-.007.022-.015.09.003.117h-.123c-.001-.015-.001-.021-.03-.021-.135 0-.326.006-.464-.036-.002-.096.01-.119.01-.131q.02-.154.026-.311c.01-.013.02-.004.02-.033 0-.016-.036-.109.04-.109.029 0 .167.034.196.034s.115 0 .161.005c.057.006.115.007.162.012.013.007.016.009.036-.015v.141c.002.028-.032.139-.032.168s.01.066-.004.087m-1.881 3.327c-.011.096-.034.182-.034.21 0 .029-.002.031.012.047-.035.022-.046.049-.046.091a1 1 0 0 1-.037.224h-.071c-.004 0-.413-.072-.523-.094l.104-.571h.095c.028-.001.335.056.5.093m.737-1.711c.011-.067.034-.164.034-.193s-.251-.225-.361-.327c-.137.257-.22.521-.354.777a7 7 0 0 1-.359.036 2 2 0 0 1-.225.037c-.028 0-.115-.102-.114-.13v-.052c.017-.002.017-.013.045-.013a.6.6 0 0 0 .14-.025q.187-.425.382-.854c.252-.074.708-.224.736-.224.08 0 .405.319.499.408.061.059.137.11.214.18.005.013.005.038.005.05l-.128.556h-.239c-.029.001 0-.022-.029-.022a.6.6 0 0 0-.146.026c-.033.063-.101.186-.101.215 0 .004.362.448.419.448a.3.3 0 0 0 .144-.065c0-.17.023-.314.023-.343 0-.028-.135-.121-.217-.169v-.041q.143-.021.28-.032.308-.058.694-.106c-.04.129-.251.259-.251.315v.177c0 .029-.023-.012-.023.017s0 .299-.002.394l-1.04.232-.659-.717c.081-.187.185-.383.282-.553a.6.6 0 0 1 .172.006c.149 0 .168.002.179-.008m1.774-.957.556.06c.001.015.013.004.013.032 0 .029-.012.087-.017.133-.01.005-.018-.006-.018.022 0 .114.006.279-.037.396-.209-.018-.378-.051-.58-.046-.014-.025-.014-.045-.014-.074s.045-.281.045-.31 0-.138.002-.199c.016-.002.021-.014.05-.014m1.706-1.597c0-.028 0-.03.003-.039-.014-.021-.004-.066-.028-.089-.341-.328-.665-.523-1.049-.825-.132.094-.281.09-.281.247 0 .029-.023.15-.035.216l1.166.915c.008-.009.007-.022.036-.022h.083c-.023.158.071.257.055.407.004.01.016.018.016.046 0 .029.011.094-.003.131-.186.024-.37.047-.593.081-.002-.074-.024-.154-.024-.183s-.012-.085-.016-.118a18 18 0 0 0-1.12-.867c-.027-.018-.084.009-.112.008h-.326v-.041l.333-.734c-.01-.031.015-.075.036-.103.036-.017.073-.013.107-.013.023 0 .046-.016.075-.016.08 0 .2-.001.261-.055l.007-.065c.011-.006.019.017.019-.012 0-.172.04-.346.071-.522a.2.2 0 0 1 .049.003c.172-.038.344-.061.545-.095v.061c.001.029-.028.071-.038.095-.011.026-.03.129-.041.136l.79.65c.13.072.431.332.468.332.029 0 .029-.022.057-.022.029 0 .028.001.04.014.024.186.058.37.08.569-.176.025-.51.083-.539.083a.1.1 0 0 1-.068-.015c-.001-.048-.024-.129-.024-.158m1.138-1.476c0 .013.04.006.018.092.016.114.05.356.05.385l-.001.124-.548.034c.047-.117-.002-.102-.002-.152 0-.029-.023-.115-.027-.158-.051-.033-.109-.068-.154-.113l-1.106-.62a1 1 0 0 1-.143.035c-.029 0-.094.011-.132-.002v-.086c0-.028.034-.24.05-.354.01-.006.018.017.018-.012 0-.059-.022-.077.017-.184.172-.04.479-.109.508-.108h.053v.018c-.003.032.008.079.008.107 0 .029.024.132.025.187.271.159.53.318.777.462.086.05.221.133.25.133s.251-.081.376-.118c.011-.008.02-.003.02-.032 0-.028-.057-.241-.057-.27a.27.27 0 0 0-.043-.151c-.054.008-.119.022-.161.004-.097-.04-.197-.123-.288-.172-.264-.145-.721-.422-.749-.422s-.109.013-.166.02c-.026.003-.041.026-.07.026s-.023-.011-.039-.013v-.132c-.001-.028.034-.096.034-.125 0-.139-.022-.233.027-.367.182-.097.355-.166.539-.269h.062c-.008.223.003.257.003.45.09.067.204.138.296.185.125.065.25.141.379.207.088.045.18.123.273.122.23-.006.289 0 .349.013.013.06.009.109.02.152.079.277.154.563.21.844-.054-.009-.135.05-.198.068-.091.024-.186.044-.264.075-.059.025-.214.02-.214.117m1.265-3.276c.034-.037.079-.078.079-.107a.8.8 0 0 0-.103-.278c-.038-.053-.124-.056-.181-.09l-.919-.333a.14.14 0 0 0-.091-.003v.454c.119.055.245.101.36.17l.831.321c.05-.011.137-.034.166-.034.036 0 .038-.008.058.037.059.134.096.276.15.414a.05.05 0 0 1 0 .035c.014.009.039.043.038.072v.06c-.2.013-.395.036-.582.059a1 1 0 0 1-.071-.255l-1.219-.48a1 1 0 0 1-.206.058c-.029 0-.022-.002-.034-.015v-.936c.105-.06.232-.119.347-.171.159-.073.45-.223.479-.223s.09.024.135.058l.927.287c.055-.034.15-.103.179-.103s.021.001.034.014l.298.902c-.13.026-.269.042-.394.069l-.281.059zm1.479-3.752c-.117.06-.232.117-.332.16.08.156.195.317.276.482l-.567.325H-3.1c-.068-.117-.064-.182-.138-.283-.4-.072-.802-.153-1.202-.233-.078.068-.227.172-.256.172h-.048l-.094-.884c0-.094.225-.195.267-.225.034-.024.112-.097.141-.097s.028.014.028.014c.012.083.012.163.019.23.014.01.016.026.016.055 0 .096.025.193.056.308.157.013.319.048.456.075.126.007.262.072.493.065.102-.003.169-.103.248-.156-.125-.098-.334-.258-.334-.287 0-.023.245-.308.322-.373l.688.474zm.359-1.147v-.002c-.096.071-.216.146-.302.213-.119.092-.297.284-.326.284-.028 0-.237-.174-.358-.226-.042-.017-.093-.005-.115-.018-.216-.009-.436-.029-.779-.055-.252-.018-.506-.046-.76-.072-.013-.009-.015-.02-.044-.02s-.145.104-.174.102h-.038c.092-.176.247-.336.405-.549l.819.045c.035.012.171.016.206.016.046 0 .092.007.139.012.013.008-.007.018.022.018s.028-.023.057-.023.109.035.138.035 0-.023.029-.023c.028 0 .203.007.339.023.162.018.471.103.499.103.03 0 .143-.086.161-.098-.079-.088-.207-.201-.207-.229 0-.029.014-.04.026-.047.149-.085.422-.258.451-.258.055 0 .357.311.373.325v.051zm-3.05-10.891c-.222-.057-.428-.103-.639-.162v-.074c0-.029.046-.062.046-.091 0-.139.082-.373.107-.47.011-.006.024-.018.024-.018.129.035.255.075.358.097.056.011.114.03.17.035.006.009-.016.017.013.017s.069 0 .108.003v.062l-.023.024c-.034.182-.073.427-.164.577m-1.202 1.555.809-.463c.187.081.359.185.534.278v.048c.001.029-.114.306-.114.335 0 .007.142.166.195.166.058 0 .515-.226.553-.249v-.155c-.124-.032-.335-.113-.363-.113-.049 0-.204.138-.257.136l.152-.951c.099.087.141.295.302.349.102.033.22.076.322.115.042.016.187.047.187.093 0 .029-.004.046-.011.184-.003.057-.012.115-.017.161-.01.005-.017-.018-.017.011s.002.184-.012.38c-.007.091-.023.183-.028.264-.286.119-.868.396-.897.396-.031 0-.424-.365-.465-.43l.104-.293a.6.6 0 0 0-.195-.104l-.415.236c.139.114.667.525.667.568 0 .029-.081.386-.12.569-.039.027-.139.008-.189.051v-.122c-.001-.028.01-.067.006-.099a44 44 0 0 1-.731-.586zm-1.803-2.608 1.987-1.331c-.01-.007-.024-.011-.022-.018a8 8 0 0 1-.368-.07l.022-.395c.013-.038-.016-.115.052-.119l.625.117v.163c.001.028-.034.133-.034.162s.011.072-.004.104c.004.057-.019.155-.019.183 0 .029-.011.242-.028.357-.388.257-.784.504-1.181.778-.234.161-.452.303-.666.448-.036.025-.09.057-.122.109a.4.4 0 0 0-.059.135.17.17 0 0 1-.035.103c.01.008.011.028.011.028h-.052a.7.7 0 0 1-.107-.094zm-1.003-3.493c-.294.273-.562.559-.837.832a1 1 0 0 0 .053.134c.021.041.022.107.071.132.095.047.267.094.296.094.047 0 .506-.471.605-.564.121-.116.343-.344.343-.372s-.023-.017-.023-.046.011-.023.013-.05h.594c.013.21.025.371.034.583l-.06-.014c-.021.014-.052-.034-.229.015-.125.034-.223.186-.319.278-.19.183-.432.366-.583.593-.063.095-.036.227-.062.346-.292-.138-.58-.31-.855-.45-.015-.129-.016-.269-.042-.392-.009-.043-.051-.065-.061-.068-.125-.043-.264-.077-.394-.125-.024-.199-.035-.406-.045-.594.132.022.268.056.297.056s.027 0 .038-.002c.297-.284.608-.569.879-.858.028-.03-.016-.101.029-.128.358-.012.474-.023.581-.01.013.234.036.476.022.583l-.22.001c-.029 0-.097.002-.125.026m-.842-2.139c.048-.003.052-.021.052-.047 0-.028-.023-.055-.022-.084v-.098c.016-.001.029.01.042.015.035.031.107.064.124.114a2 2 0 0 1 .062.398c0 .1-.215.12-.302.146-.125.039-.27.048-.402.092-.158.053-.426.055-.561.185l-.676.845c.043.02.099.058.134.069.09.033.184.077.276.116.012.007.015.041.044.041q.042-.002.062.011l.785-.932h.206v-.309c.078.13.205.345.205.374 0 .028.092.184.092.212 0 .043-.858.967-.885 1.087-.046.201.011.24.01.267-.016.002-.027.013-.04.013l-.951-.333c-.009.01-.029.011-.029.011v-.271c-.001-.028-.299-.636-.299-.664s.547-.699.819-1.045c.025-.032.078-.085.114-.128.048-.005.093-.005.14-.017zm-2.846.715.739-1.112-.02-.156.569-.122.089.542-.272.068-.685 1.004-.013.359-.509-.067-.21-.563zm-1.119-.637.644-1.167-.048-.162.57-.15.129.543-.264.081-.584 1.051-.013.36-.509-.021-.237-.556zm-7.67-4.922c1.098 0 3.96 2.06 3.96 4.284v.614C-10.445-14.263-5.099-7.756-5.099 0c0 6.13-3.34 11.479-8.298 14.329v-2.754a.4.4 0 0 0 .202-.359c0-.177-.16-.425-.413-.425a.416.416 0 0 0-.402.419c0 .121.017.305.194.41v3.429c-.69.714-1.379 1.427-2.047 2.103-.013.003-.033.002-.049.015l-2.14-2.325v-2.259c.089.129.15.261.229.381.059.088.366.465.366.504 0 .028-.023.179-.052.275-.051-.126-.125-.253-.241-.253-.099 0-.098.119-.098.167 0 .118.059.354.15.46-.174.125-.264.215-.264.361 0 .114.048.265.224.265a.207.207 0 0 0 .212-.219c0-.029-.011-.063-.008-.091.055.057.179.149.226.149.085 0 .195-.073.195-.218 0-.137-.057-.253-.252-.383v-.142c0-.029.023-.172.051-.257.218.297.592.504.592.799 0 .028-.011.116-.026.177-.061-.032-.117-.103-.175-.103-.168 0-.212.122-.212.253 0 .102.022.235.16.28-.136.124-.172.18-.172.306 0 .099.032.322.219.322.091 0 .179-.015.195-.179.014-.159-.012-.206-.007-.246.06.096.126.08.162.08.109 0 .213-.069.213-.23 0-.117-.031-.196-.215-.324-.004-.025-.004-.032-.004-.061 0-.11.04-.241.073-.338.127.087.305.206.426.223.03.102.053.272.053.301v.288c-.013.023-.028.023-.028.023-.037-.008-.076-.02-.104-.02-.176 0-.201.145-.201.276 0 .133.033.316.274.324-.047.213-.102.25-.102.411s.021.345.281.345c.25 0 .282-.181.282-.356 0-.177-.063-.167-.102-.4.222-.008.274-.191.274-.324 0-.101-.024-.276-.213-.276-.028 0-.079.012-.121-.002l-.005-.326c.018-.069-.004-.173.045-.222.099-.099.25-.15.37-.231.075.129.096.257.13.387-.157.059-.16.199-.16.274 0 .028.002.094.025.135.023.04.055.089.084.089s.069.011.098.011.041.005.061-.002c.036-.015.069-.055.11-.065-.011.03-.038.052-.01.244.02.143.077.168.183.168.17 0 .23-.19.23-.328 0-.1-.059-.212-.172-.299.139-.069.161-.186.161-.292 0-.115-.042-.242-.219-.242-.064 0-.168.107-.225.149a2.5 2.5 0 0 1-.085-.361c0-.035 0-.075.037-.104.198-.153.302-.342.451-.511.027.025.052.036.052.065v.161a.47.47 0 0 0-.161.326c0 .069.028.229.196.229.066 0 .163-.037.225-.149-.025.218.075.299.217.299.124 0 .27-.091.27-.259 0-.135-.21-.287-.287-.345.152-.086.161-.2.161-.298 0-.124-.029-.247-.202-.247-.123 0-.171.118-.266.206-.015-.085-.05-.206-.05-.235a.15.15 0 0 1 .028-.084c.202-.25.303-.507.428-.746.051-.096.075-.207.099-.297.009-.033.031-.073.031-.102s-.019-.041-.038-.052c-.337.662-.8 1.452-1.561 1.991-.106.075-.28.192-.394.192-.284 0-.873-.666-1.013-.864-.038-.055-.071-.124-.099-.161a7 7 0 0 1-.728-1.288 2 2 0 0 1-.107-.392c0-.029 0-.025.003-.034-.014-.021-.038-.035-.037-.049a.45.45 0 0 0 .091-.256c0-.166-.129-.425-.419-.425-.23 0-.396.188-.396.425 0 .028 0 .062.003.085.007.046.054.104.054.133 0 .028-.206.475-.315.695-.184.369-.405.751-.636 1.129-.194.317-.44.703-.709 1.012-.2.229-.432.483-.651.664-.203.166-.607.463-.871.463-.105 0-.325-.107-.396-.141-.404-.2-.875-.694-1.158-1.056a34 34 0 0 1-.441-.577c-.085-.113-.164-.252-.23-.361-.059-.096-.123-.198-.184-.306a20 20 0 0 1-.403-.758c-.122-.246-.348-.736-.348-.764 0-.004.058-.185.058-.224 0-.17-.159-.419-.414-.419a.423.423 0 0 0-.402.419c0 .125.05.299.195.376v3.348l-2.198 2.267c-.162-.062-.345-.318-.465-.445-.532-.562-1.576-1.69-1.573-1.719v-2.569c.08.219.243.453.378.646.026.037.071.068.085.092.052.091.086.096.086.181 0 .028-.035.214-.063.322-.052-.126-.127-.253-.242-.253-.099 0-.098.119-.098.166 0 .118.059.354.15.46-.173.159-.264.198-.264.362 0 .113.048.264.224.264.139 0 .212-.102.212-.224 0-.029.001-.055-.009-.085.1.11.146.137.227.137.117 0 .196-.076.196-.213 0-.143-.076-.266-.253-.376v-.142c0-.029.035-.184.062-.28.176.172.443.446.553.623a.4.4 0 0 1 .028.158c0 .029-.011.145-.026.218-.063-.032-.117-.103-.175-.103-.168 0-.212.123-.212.247 0 .096.003.22.16.286-.138.123-.172.179-.172.306 0 .099.032.321.218.321.094 0 .181-.015.196-.178.016-.171-.012-.207-.008-.246.041.035.065.08.094.08.168 0 .281-.038.281-.236 0-.125-.052-.211-.214-.319-.004-.025-.004-.037-.004-.066 0-.1.041-.239.073-.333.127.087.306.207.426.224.029.102.053.271.053.3v.289c-.012.023-.028.023-.028.023-.037-.009-.076-.02-.104-.02-.177 0-.202.145-.202.275 0 .134.034.316.275.325-.068.206-.102.202-.102.405 0 .168.021.35.281.35.25 0 .282-.181.282-.356a.7.7 0 0 0-.027-.187c-.023-.059-.053-.116-.076-.213.225-.008.275-.19.275-.324 0-.1-.023-.275-.212-.275-.029 0-.08.011-.122-.003l-.005-.325c.017-.081.029-.162.044-.229.126-.063.252-.143.371-.224.076.129.096.256.13.387-.156.093-.16.181-.16.273 0 .121.047.224.207.224.029 0 .041.005.061-.002.036-.015.08-.043.109-.054-.01.03-.012.05-.009.246.001.086.112.166.184.166.192 0 .229-.219.229-.327a.35.35 0 0 0-.06-.18c-.039-.048-.088-.093-.112-.132.14-.045.161-.178.161-.28 0-.115-.042-.241-.218-.241-.065 0-.169.106-.226.149a3 3 0 0 1-.085-.367c0-.023.001-.071.037-.098.198-.153.302-.343.451-.511l.052.049v.177a.47.47 0 0 0-.161.325c0 .069.028.23.196.23.066 0 .161-.037.227-.149v.153c.003.102.139.145.215.145.124 0 .27-.09.27-.258 0-.116-.175-.277-.287-.345.152-.087.161-.201.161-.299 0-.123-.028-.247-.201-.247-.124 0-.172.118-.267.207-.015-.085-.049-.207-.049-.235 0-.029.011-.064.027-.084.194-.249.306-.508.428-.746.049-.096.075-.207.099-.298.009-.033.031-.079.031-.107 0-.029-.019-.035-.038-.046-.077.146-.139.301-.219.433-.114.187-.265.372-.368.56s-1.029 1.19-1.373 1.19c-.403 0-1.242-1.191-1.272-1.244-.227-.406-.523-.879-.617-1.288-.014-.062-.053-.145-.053-.174 0-.066.103-.126.103-.304 0-.207-.143-.425-.407-.425a.42.42 0 0 0-.408.419c0 .092.103.273.102.277v2.61c-4.743-2.902-7.907-8.13-7.907-14.097 0-7.756 5.346-14.263 12.554-16.037v-.614c0-2.224 2.863-4.284 3.961-4.284m-11.552 10.618h6.723v-4.403a15.5 15.5 0 0 0-6.723 4.403m.666 3.088c.003-.107.037-.053.001-.366l-.997.127c-.012.049 0 .073 0 .188 0 .044-.018.121.063.121.028 0 .133-.035.162-.035h.215c.029 0 .116-.042.175-.053.056-.01.16-.016.189-.016.056 0 .14-.008.192.034m-.164.173c-.091 0-.189.087-.189.161 0 .028.081.203.121.298.051-.13.166-.379.166-.408 0-.037-.098-.051-.098-.051m-1.855-1.7c0 .114.045.103.1.271a6 6 0 0 1 .256 1.463c0 .029-.023.022-.023.051v.313c0 .028-.031.051-.031.09-.003.198-.076.428-.095.643-.01.126-.012.167-.012.196 0 .217.171.62.284.807.115.189.211.379.31.585.039.082.038.183.061.274-.011.091-.009.107.001.116-.035.147-.077.293-.101.446-.089.56-.21 1.671-.21 1.699v.187c0 .029-.062.272-.08.412-.015.102 0 .125-.011.175.084.043.196.015.303.031.021.003.046.041.075.041s.423-.329.652-.467a.6.6 0 0 1 .221-.05c.322 0 .622.206.938.31a.3.3 0 0 0 .069-.107c.158-.41.299-.818.448-1.24.041-.12.032-.256.065-.38.068-.254.163-.515.245-.781a1 1 0 0 0 .028-.208c0-.176-.14-.385-.216-.577-.079-.201-.085-.464-.095-.659l-.31-1.729c0-.188-.037-.651 0-.964.007-.068.058-.18.058-.209v-.181c0-.311.617-.698.767-.831.009-.008.038-.007.057-.018.178-.108.314-.16.493-.234.098-.04.219-.062.337-.124-.081-.079-.214-.052-.292-.075l-1.173.149a4 4 0 0 1-.4-.095c-.008-.001-.298-.123-.369-.123-.029 0-.07.033-.106.043-.146.043-.176.253-.176.353 0 .029.043.195.065.289.046.204.084.611.084.64v.497c0 .029-.041.46-.084.687-.025.129-.092.254-.131.379-.027.09-.023.2-.053.287a1.1 1.1 0 0 0-.042.329c0 .55.116.96.33 1.421.038.085.049.196.068.286.014.069.039.177.039.206s.014.036-.012.171a1.3 1.3 0 0 1-.198.515c-.19.279-.482.503-.694.746-.215.248-.429.518-.506.783-.022.076.004.174-.008.266-.001.014-.083.132-.128.132a.05.05 0 0 1-.051-.051c0-.029.047-.052.053-.08.029-.134.007-.293.053-.424.146-.415.589-.858.945-1.273.07-.082.155-.34.155-.469 0-.029-.004-.211-.039-.307-.102-.283-.253-.561-.356-.838-.091-.239-.194-.478-.268-.724-.108-.35-.22-.719-.299-1.079-.035-.157-.032-.335-.053-.505-.035-.265-.111-.769-.111-.798a.4.4 0 0 1 .037-.152c.054-.086.161-.17.249-.264.122-.132.252-.341.411-.407.123-.051.264-.062.405-.111-.01-.072-.01-.129-.011-.19a1 1 0 0 0-.206-.048c-.157 0-.399.085-.547.124s-.31.099-.459.126c-.033.006-.087-.009-.116-.009h-.261c-.05 0-.28.038-.302.096a.5.5 0 0 0-.027.146m3.51 3.067c.058-.137.235-.362.235-.488 0-.029-.019-.083-.027-.117-.013-.051-.129-.107-.18-.107-.037 0-.149.09-.149.119v.187c0 .028.07.264.121.406m-1.172 12.001v.551c.041.112.114.278.226.387.271.264.376.25.607.25a.7.7 0 0 0 .284-.042c.086-.034.196-.045.273-.144a.2.2 0 0 0 .04-.107c0-.029-.092-.22-.119-.324a.1.1 0 0 1-.02-.049h-.083c-.029 0-.122.057-.151.057-.046 0-.144-.003-.144-.086 0-.045.045-.035.088-.079-.016-.094.071-.118.152-.089v-.325a.26.26 0 0 0-.038-.119c-.047-.072-.129-.145-.188-.23-.043-.063-.088-.157-.134-.214a.33.33 0 0 0-.178-.087c-.029 0-.05.021-.075.02-.202-.013-.418.293-.446.466-.007.011.004.031-.025.031q-.042.001-.04-.041c0-.028.025-.066.041-.1.029-.068.048-.141.087-.207.025-.041.237-.25.281-.251h.21v-.037a.7.7 0 0 0-.027-.162 1.1 1.1 0 0 0-.293-.052c-.253 0-.355.095-.629.234-.097.049-.095.106-.095.145 0 .099.074.057.151.118.173.133.201.342.245.486m-.376-.861c.054-.028.433-.272.55-.272h.227c.132 0 .347.138.392.138.092 0 .094-.206.097-.227-.049-.025-.091-.068-.141-.09a.6.6 0 0 0-.18-.027c-.029 0-.184.004-.272.027-.221.06-.424.137-.656.246-.142.067-.343.176-.443.35-.01.018-.051.044-.088.073l.181.015a.25.25 0 0 1 .092-.111c.076-.046.165-.08.241-.122m1.809-.908c.007-.038.043-.077.043-.106v-.711l.046-.31V3.29l.081-.483v-.148c0-.056.037-.209.078-.27-.091.076-.481.382-.481.544 0 .296.115.184.115.626 0 .201-.119.774-.189.828-.008-.01-.017 0-.017-.029s.015-.059.018-.092c.032-.382.051-.198.051-.465 0-.287-.027-.419-.154-.735a.6.6 0 0 0-.141.128c-.202.26-.401.534-.605.793-.057.072-.139.146-.199.23a6.7 6.7 0 0 0-.588 1.007c.273-.184.743-.378 1.061-.378.106 0 .29.018.365.184.192-.101.469-.257.516-.487m.376-2.472a.4.4 0 0 0-.137-.051c-.029 0-.141.09-.205.148-.519.462-.935 1.051-1.235 1.544-.128.208-.26.436-.373.674.111-.138.227-.3.371-.464.223-.253.412-.566.628-.836.195-.245.437-.501.654-.735.081-.086.192-.172.297-.28m-.413-.057c-.025-.042-.162-.123-.228-.199s-.138-.204-.141-.287c-.163-.016-.148.235-.148.325 0 .21.031.42.143.58.144-.139.284-.278.374-.419m-2.114-.597c0-.112.167-.095.214-.109l.723-.012a.8.8 0 0 0 .324-.107.63.63 0 0 0 .193-.287c.026-.08.281-.913.28-1.061V-.23c-.05-.013-.114-.002-.143-.002l-.528-.057c-.369 0-.559.275-.902.275-.313 0-.605-.241-.816-.241-.029 0-.074.012-.113.013-.036.357-.447.373-.622.473.052.273.212.606.422.868.039.048.083.129.122.183.066.092.18.181.18.273 0 .15-.23.155-.23.35 0 .063.091.18.182.217-.092-.333.833-.401 1.059-.401.291 0 .772.08 1.004.138.012 0 .028-.013.041-.026v-.177c-.074-.103-.22-.118-.327-.142l-.953-.023c-.029-.009-.11-.012-.11-.074m-1.258.155c.029-.131.086-.374.086-.402 0-.117-.096-.253-.195-.253-.096 0-.115.185-.115.201 0 .167.171.264.224.454m-.299.666c-.083 0-.12.131-.12.178 0 .098.112.265.155.351.048-.085.12-.207.12-.305 0-.077-.04-.224-.155-.224m1.308-2.512c.29.112.15.111.341.111a.7.7 0 0 0 .4-.135c.066-.045.172-.036.262-.063.058-.018.124-.052.183-.062.068-.011.195-.016.223-.016.029 0 .356.058.385.058.061 0 .19.005.19-.098 0-.029-.098-.144-.164-.184a11 11 0 0 0-.793-.426c-.098-.048-.217-.087-.333-.138a1 1 0 0 0-.227-.062c-.028 0-.04.012-.156.012-.49.148-.99.614-1.214.921-.023.032-.054.022-.053.027v.039h.118c.029.001.265-.114.294-.114.157 0 .403.077.544.13m-1.313-3.14c0 .028.119.238.18.353.028.054.038.114.066.175a.8.8 0 0 0 .082-.223c.021-.1.051-.277.051-.305 0-.132-.022-.241-.173-.241-.028 0-.045-.003-.065.004-.036.015-.089.055-.104.091a.5.5 0 0 0-.037.146m.091-3.038c.001-.219-.001-.238.012-.254-.013-.015-.04-.017-.18-.017-.115.074-.13.086-.13.178 0 .177.142.567.178.695.04-.2.074-.406.12-.602m4.676 14.705c0-.059-.064-.105-.13-.128a1.35 1.35 0 0 1-.603-.507c-.033-.053-.083-.234-.183-.201-.035.027-.049.072-.08.093-.324.199-.56.405-1.042.335-.234-.035-.497-.094-.744-.312-.173-.154-.214-.318-.271-.477-.027-.075-.026-.159-.03-.241-.008-.013-.019-.006-.019-.034v-.147c0-.234-.93-.405-.93-.697 0-.088.398-.176.49-.21.013-.004.012-.04.028-.055.185-.189.409-.462.472-.691.008-.011.02-.023.027-.035.182-.468.477-.947.758-1.404.053-.086.118-.195.191-.295.155-.208.458-.595.458-.624s-.061-.148-.078-.22c-.028-.122-.065-.274-.2-.378-.058-.043-.152-.041-.221-.054-.159-.031-.333-.054-.506-.089l-.541-.011c-.247.038-.519.002-.713.231-.036.043-.007.13-.02.187-.032.127-.063.269-.114.401a5 5 0 0 1-.173.39c-.03.062-.099.163-.099.192 0 .061.051.09.1.159.096.136.189.283.283.413.021.032.076.06.105.06s.035-.029.05-.043q.01-.012.053-.014c.062 0 .063.076.063.08 0 .065-.081.081-.097.081-.206 0-.545-.448-.609-.516-.298-.31-.684-.691-1.004-1a.34.34 0 0 1-.068-.123c-.007-.022-.002-.05-.002-.079 0-.217.237-.862.237-.908 0-.092.045-.183.057-.275.022-.159.019-.324.053-.482.022-.105.089-.282.089-.311 0-.053-.059-.074-.129-.112a.5.5 0 0 1-.135-.129l.019-.018c.065.023.182.046.211.046s.264-.006.386-.037c.052-.013.101-.051.162-.074.089-.034.185-.025.278-.122v-.042h-.153c-.028 0-.202.057-.231.057-.03 0-.109-.052-.109-.098 0-.093.483-.586.528-.643-.032-.031-.058-.04-.086-.04s-.209-.001-.301.051c-.155.089-.273.272-.369.376-.094.1-.212.154-.31.233a1 1 0 0 0-.216.238c-.242.348-.356.893-.434 1.232-.004.021-.028.054-.038.091-.012.043-.009.094-.019.138-.057.232-.18.684-.18.712v.315c0 .029-.005.003-.022.005v.304c-.001.029.012.001.018.011-.011.146.226.307.351.444.265.291.546.615.85.878.237.203.555.412.817.574.139.088.307.156.472.208.055.017.151.014.18.014s.109-.011.207-.014a.3.3 0 0 1-.253.129c-.029 0-.161.024-.19.024-.141 0-.401-.133-.525-.221-.044-.031-.101-.085-.161-.119-.615-.349-1.162-1.076-1.75-1.631a.5.5 0 0 1-.083-.106 2.6 2.6 0 0 1-.083-.412v-.204c0-.175.142-.526.168-.67.052-.293.063-.61.122-.905.033-.165.108-.319.165-.481.044-.124.068-.268.099-.391.065-.243.197-.476.303-.723.017-.042.016-.118.016-.146 0-.243-.124-.302-.381-.5-.049-.037-.122-.04-.174-.065a1.3 1.3 0 0 1-.308-.206c-.157-.147-.217-.407-.217-.573 0-.029.048-.233.065-.35a1 1 0 0 1 .267-.486c.025-.026.07-.035.102-.053.07-.038.147-.094.228-.107.195-.03.431-.046.644-.11.125-.038.153-.174.153-.256 0-.254-.49-.863-.58-.98-.136-.178-.426-.388-.52-.562a1.4 1.4 0 0 1-.14-.629c0-.16.049-.359.155-.528.037-.059.053-.143.099-.204a1.4 1.4 0 0 1 .523-.419c.098-.037.528-.107.563-.107h.226c.029 0 .039-.012.064-.027a.8.8 0 0 1-.035-.223.3.3 0 0 0-.102-.026c-.297 0-1.255.266-1.337.636-.014.068-.097.123-.13.195a1.8 1.8 0 0 0-.153.657c0 .029-.013.094.012.357.02.206.057.415.094.621.009.047.035.092.051.138.003.01.107.578.107.688 0 .028-.034.367-.045.462a.25.25 0 0 0 .12.038c.26 0 .385-.085.385-.345 0-.277-.159-.573-.287-.856.24.161.459.613.459.827 0 .029 0 .035-.011.16-.023.236-.322.328-.5.328-.184 0-.267-.048-.504-.122-.021-.005-.058.011-.093.005-.038-.006-.087-.021-.115-.021a.4.4 0 0 0-.127.017c-.017.022-.155.242-.155.311 0 .332.145.666.214 1 .049.239.096.482.119.724.022.228.013.459.018.562.02.477.04.023-.018.965l-.08 2.505c0 .028.052.294.095.427a.72.72 0 0 0 .334.391c.109.05.27.13.401.225.12.087.204.286.253.418.079.215.139.438.277.622.1.133.336.292.458.373q.309.199.618.383c-.012.031-.056.072-.078.123a.4.4 0 0 0-.014.122c0 .098.025.202.184.273a.5.5 0 0 0-.035.124c0 .192.234.371.463.484.073.036.502.152.502.319v.221c0 .028.012.036.019.046.037.263.366.779.675.847.012.001.053-.004.053.024v.22c0 .029-.054.336-.108.491-.048.143-.133.287-.201.466h.164c.143.001.319-.306.377-.404.047-.083.17-.112.17-.187 0-.051-.126-.163-.126-.258 0-.062.016-.176.088-.203.067-.026.17-.061.199-.061.13 0 .253.15.253.258 0 .029-.15.31-.15.339s.259.37.395.538a.1.1 0 0 0 .076.036c.029 0 .034-.002.041-.014.028-.081.064-.178.088-.254.043-.129.181-.364.181-.392 0-.082-.344-.187-.344-.397 0-.146.069-.287.23-.287.097 0 .194.028.26.135.056.092.019.185.099.278.095-.011.255-.034.284-.034.113 0 .498.109.524.115.014-.013.027-.023.027-.051m-5.17-13.471c-.068 0-.149.111-.149.149 0 .029 0 .053.012.167.011.117.06.247.106.369a.6.6 0 0 0 .095.165 1.4 1.4 0 0 0 .109-.487c.013-.138.011-.15.011-.179 0-.116-.131-.184-.184-.184m-.54-1.022c-.114 0-.137.1-.137.178 0 .148.122.352.175.498.088-.012.158-.326.158-.441 0-.123-.035-.235-.196-.235m.46 3.641c-.152 0-.172.148-.172.219 0 .046.072.148.076.168.019.079.052.159.069.241.016.079.027.16.044.246.065-.196.132-.427.132-.638 0-.124-.018-.236-.149-.236m6.043 4.424c0-.301-.659-.414-.742-.391l-.835.012.107-.81V.453c0-.029.045-.261.045-.29V.004l.207-2.102.058-1.161c0-.023.01-.054.034-.078v-1.551c.01-.01.023-.01.023-.038v-1.135c0-.119-.089-.428-.108-.475-.02-.05-.07-.102-.085-.149-.097-.311-.529-.586-.786-.741-.039-.023-.072-.055-.105-.062a5 5 0 0 0-.359-.073h-.062c-.011.085 0 .178.001.273.061.014.128.044.2.045.379.007 1.143.804 1.143 1.238 0 .234-.082.466-.267.697-.26.325-.434.551-.434.814 0 .211.078.243.336.405.242.153.296.408.296.589 0 .028-.024.065-.031.102-.062.317-.47.445-.7.528-.036.013-.096.172-.096.226 0 .028.091.2.111.294.083.373.108.289.108.562 0 .028.034.314.033.343v.966l-.056.942-.138 1.028c-.02.113.052.236.163.318.089.065.26.048.358.077.178.053.533.274.576.496v.757c-.029.091-.097.194-.144.287 0 .013.023.013.023.041s-.023.018-.023.047c0 .028.023.011.023.04 0 .028-.023-.006-.023.023s.023-.012.023.017c0 .028-.023-.017-.023.011v.923c-.01.01-.021.01-.031.02h-.03s-.019.005-.019-.024v-.877a.47.47 0 0 0-.141-.232c-.023-.014-.057-.027-.093-.05h-.064v1.488c-.001.043.038.384.183.384.029 0 .062-.032.099-.042a1 1 0 0 1 .148-.027c.127-.007.161-.012.189-.012.023 0 .356.032.356.132 0 .061-.057.064-.08.064-.029 0-.207-.046-.235-.046-.046 0-.339.033-.339.137 0 .046.183.214.183.477 0 .042.011.097-.027.121-.009-.01.005 0 .005-.029s-.051-.179-.086-.262a1 1 0 0 0-.173-.236c-.013-.015-.046-.036-.073-.034v.041c.136.087.202.291.252.355v.261c-.011.009-.033.02-.043.028-.108-.002-.188.228-.188.301 0 .221.135.402.38.402.028 0 .145-.035.218-.064-.017-.005-.04.005-.167.007-.116 0-.316-.16-.316-.293 0-.173.178-.224.27-.224.046 0 .144.018.144.103 0 .065-.115.072-.115.172 0 .111.138.127.161.127.145 0 .207-.118.207-.224 0-.214-.173-.145-.173-.282 0-.029.023-.092.023-.12 0-.029-.023-.121-.023-.15 0-.175.123-.325.243-.49.04-.056.132-.095.181-.149a.5.5 0 0 0 .105-.212V3.448c-.013-.013-.012-.015-.04-.015-.094 0-.194.112-.236.2-.029.679-.011.688-.016.7-.007.023-.018.048-.018.077s.002.063.011.247c.001.036.046.086.046.114 0 .077-.052.098-.092.098-.068 0-.092-.052-.092-.098 0-.028.035-.09.052-.137V3.461c-.01-.085-.144-.219-.144-.253v-.744c0-.092.032-.175.085-.252-.032.048-.09.091-.09.141l-.018-.098c.047-.152.166-.403.345-.438-.01-.006-.035-.021-.035-.05 0-.039.039-.08.092-.08.023 0 .207.02.207.12 0 .038-.044.114-.097.118-.026.003-.053.044-.081.054l-.032.01.032-.01c.028-.009.057-.021.081-.024.045-.006.258-.027.258-.13m2.181 2.93c.208.135.436.129.656.192.078.021.237.088.266.088s.086-.061.141-.089a.7.7 0 0 1 .376-.095c.349 0 .741.264.994.264.029 0 .042 0 .068-.014v-.082c.001-.029-.045-.077-.078-.12-.182-.239-.398-.347-.611-.347-.067 0-.288.079-.296.086-.029.025-.068.086-.117.086-.053 0-.15-.073-.15-.126 0-.109.207-.128.214-.129.034-.006.081-.039.127-.051.079-.021.217-.027.245-.027.299 0 .954.316.954.718 0 .118-.078.213-.201.213-.2 0-.88-.31-1.011-.31-.029 0-.058-.003-.242.011-.095.007-.407.187-.407.253 0 .029.08.149.109.149s.262-.115.393-.168a.9.9 0 0 1 .342-.073c.029 0 .207.044.309.062.022.003.06.025.09.045.129.09.26.157.377.157.028 0 .091-.011.12-.011.039 0 .143-.227.302-.33.065-.042.172-.026.261-.026.079 0 .204.005.286.027.072.018.185.099.214.099.057 0 .08-.111.08-.115 0-.029-.023-.062-.02-.085.019-.132-.207-.291-.267-.425.01-.009.012-.03.04-.03.056 0 .255.207.267.227.052.089.107.244.107.273s-.092.235-.092.264.026.071.03.104c.019.135.125.268.27.41.127.124.23.229.381.311.04.022.092-.004.144.018a7 7 0 0 1-.113-.579c0-.028.023-.24.046-.47l-.023-1.368c-.023-.253-.043-.521-.096-.771-.028-.129-.081-.266-.115-.386a.7.7 0 0 0-.058-.144c-.161-.251-.45-.507-.695-.575.307.329.417.648.461.973h.036c.009.011.008.001.008.03a.05.05 0 0 1-.052.052c-.129 0-.226-.45-.24-.491-.043-.119-.234-.367-.391-.401-.011-.001-.067-.019-.078-.061h-.052a.9.9 0 0 0-.083.395c-.012.494.022.604.022.632q0 .029-.028.029c-.076 0-.114-.253-.121-.328a1.8 1.8 0 0 1 0-.493c.052-.448.268-.89.455-1.342.034-.085.257-.83.257-1.105 0-.029.027-.101.042-.16.019-.079.023-.173.03-.254a1 1 0 0 1 .02-.16l.173-2.241.137-1.229v-.861c0-.028.024-.161.046-.414 0-.012-.011-.023 0-.449l-.059-.739-.289-.002c-.029 0-.117.004-.172-.025a.4.4 0 0 1-.123-.193c0-.029.046-.12.055-.206-.085.027-.206.068-.296.068-.211 0-.322-.197-.384-.432-.026-.099-.238-.338-.277-.338-.072 0-.166.207-.316.207-.156 0-.32-.241-.39-.241-.012 0-.047.01-.069.057l.184 1.029c.023.253.057.636.057.664v1.164c0 .129-.066.539-.046.654.002.01 0 .034-.011.171a13 13 0 0 1-.269 1.722c-.006.01-.017.032-.025.042-.022-.018-.051-.047-.051-.075 0-.297.126-.748.126-.943v-.206l.068-.585V-5.84l-.056-.988c-.012-.081-.015-.177-.039-.265a33 33 0 0 1-.162-.6c-.043-.024-.106-.054-.157-.095-.049-.041-.273-.217-.343-.217-.065 0-.188.042-.226.087a.3.3 0 0 0-.038.068c.012.026.063.041.076.082.056.178.062.367.085.551L-25.496-6v1.872l-.308 2.884c-.011.16 0 .253 0 .281s-.018.121-.027.178c-.001.013-.028.031-.05.053h-.04c-.044-.616-.035-.662-.032-.695.106-.888.057-.562.149-1.838l.046-.334.038-.804v-1.092l-.072-1.091c0-.023-.023-.057-.029-.081v-.322a10 10 0 0 1-.063-.585c0-.062-.053-.098-.081-.098s-.156.061-.225.078-.149.026-.214.038c-.081-.214-.158-.22-.158-.386 0-.028.08-.413.08-.442 0-.07-.015-.241-.133-.241h-.181c-.029 0-.138-.019-.207-.031-.068-.01-.153-.015-.217-.041-.074-.03-.147-.054-.206-.102-.159-.134-.424-.447-.453-.447h-.686a1.3 1.3 0 0 0-.225.061c.011.039.043.099.083.119.303.157.644.134.931.539.17.238.404.46.625.693.008.007.003.024.003.053s-.011.259-.011.287c0 .069-.084.075-.092.075-.029 0-.109-.023-.138-.023-.068 0-.173.036-.173.132 0 .029.083.449.118.679.009.056.016.126.023.183.005.035.006.081.012.115.006.035.005.081.011.127q.01.069.012.137c0 .103.008.219.02.333l-.059 2.223.001.603c0 .029.004.143.027.209.044.128.132.263.176.402.035.112.066.246.111.368.047.133.226.621.226.676 0 .028.084.27.118.403.068.266.158.54.22.807.056.024.128.04.183.063.043.019.134.145.134.197 0 .108-.138.158-.138.224 0 .029.044.109.054.156.034.159.042.335.064.494.012.092.032.183.037.275v.368c.006.023.029.034.029.063s-.006.034-.022.036v.247a1.8 1.8 0 0 1-.081.494c.071.049.157.074.233.111.019.009.031.042.031.071 0 .082-.178.085-.287.493 0 .197-.012.202-.012.231s.012.105.028.165c.203.08.26.195.26.335 0 .222-.207.367-.368.367-.129 0-.368-.074-.368-.27 0-.143.092-.283.092-.321 0-.029-.029-.094-.043-.14-.185-.554-.577-.577-.577-.699 0-.034.209-.222.237-.309.017-.056.016-.162.016-.191s-.024-.282-.049-.424c-.152.051-.434-.098-.434-.305 0-.108.028-.201.094-.319.022-.039.09-.066.09-.095s-.031-.226-.062-.323c-.025-.076-.124-.155-.193-.221-.041-.04-.17-.095-.17-.168 0-.032.058-.093.112-.136.074-.059.264-.1.359-.1.028 0 .154.012.366.021-.01-.04-.086-.125-.13-.101-.008-.01-.008-.021-.018-.029.045-.036.126-.029.19-.029.028 0 .213.046.242.046h.208l.026-.027c0-.013-.012-.027-.018-.036-.146-.051-.315-.092-.467-.169-.068-.034-.19-.181-.256-.181-.028 0-.082.037-.127.043-.102.014-.206.007-.309.007-.023 0-.07.01-.096.036-.055.055-.075.15-.109.227-.04.092-.093.239-.127.322-.044.114-.17.086-.248.104.11.157.138.378.138.565l-.069.729c0 .167-.004.23.123.411.013.019-.001.046.006.068.06.172.131.36.207.529.147.323.305.632.464.965.009.02.009.06.019.081.036.071.099.143.142.229.082.164.169.354.323.507.03.03.051.084.097.113m.48-.855v-.029c-.033-.033-.068-.067-.091-.098.075.04.069.086.091.127v.047l-.018.019c-.018-.021-.057-.046-.086-.046-.067 0-.126.058-.126.121 0 .034.022.036.092.105 0 .021-.022.04-.046.071h.096c.029.002.12-.066.14-.108a.3.3 0 0 0 .017-.114c0-.039-.052-.064-.069-.095m-.035-1.123c-.091-.083-.235-.142-.319-.279-.035-.056-.09-.123-.115-.194-.031-.089-.094-.258-.095-.287v-.179c.157-.038.242-.093.242-.227 0-.029 0-.042-.005-.054a.5.5 0 0 0-.123-.17c-.018-.015-.051-.008-.07-.019-.062-.036-.116-.043-.172-.057a.2.2 0 0 1-.032-.108 5 5 0 0 1-.023-.367c0-.11-.007-.193.115-.324a10 10 0 0 0-.46-.073c-.067 0-.262.037-.287.111.094.072.211.14.296.232.042.046.053.111.068.17.03.125.073.355.073.383 0 .068-.12.084-.148.122a.26.26 0 0 0-.059.183.4.4 0 0 0 .05.175c.029.041.208.083.231.083.029 0 .07-.023.123-.035.03.188.09.411.09.604 0 .029-.006.178-.035.178-.028 0-.011-.006-.017-.023a.47.47 0 0 1-.143.258c.059.062.145.123.209.17.074.056.118.131.166.201.075.111.137.277.167.392h.075c.014-.025-.011-.061.003-.395a.85.85 0 0 1 .195-.471m-.092-1.402c-.004-.139-.063-.288-.089-.426-.03-.153-.055-.382-.208-.52.012.02.01.01.01.039 0 .069-.195.164-.195.362 0 .029.026.239.049.351.008.043.089.057.126.078.157.086.25.24.25.352 0 .113-.058.307-.241.312v.097c0 .029.012.025.019.035a.64.64 0 0 0 .242.417c.01-.127.073-.198.037-1.097m6.055 6.537c0 .029-.081.339-.081.368 0 .059.075.2.084.212.07-.012.073-.152.08-.199.01-.071.04-.152.057-.23.011-.043.17-.313.17-.392a1 1 0 0 0-.027-.162c-.035-.115 0-.294-.059-.392-.137-.226-.364-.38-.551-.577-.099.092-.133.275-.133.385 0 .028.092.396.092.425 0 .13-.064.238-.218.39.013.016.017.029.046.029.233 0 .176-.097.361-.241.008.009.006 0 .006.028 0 .029-.034.196-.034.225 0 .022-.003.07.038.103h.161c.01.01.008 0 .008.028m-.011-1.629c0-.029-.013-.028-.021-.037.017-.064-.095-.163-.156-.184-.304-.112-.808-.467-.908-.828-.035-.123-.263-.238-.35-.403-.074-.144-.048-.32-.071-.48l.035-1.103q0-.361-.097-.725c-.142-.549-.661-1.061-1.092-1.061-.094 0-.28.075-.339.192.119.026.237.041.348.087.083.035.167.067.24.126.165.133.31.283.385.396.019.029.025.085.053.127.125.184.193.407.233.595.044.201.062.589.062.618v1.921c0 .187.121.729.211.83a.8.8 0 0 0 .171.159c.231.142.483.267.729.394.049-.174.061-.632.32-.632.157 0 .166.026.166.173 0 .028-.023.143-.023.172 0 .016.017.051.065.08.015-.062.039-.162.039-.191zm-.602-13.165c.083-.029.247-.225.293-.299.063-.1.161-.19.2-.279.086-.196.136-.431.237-.629.067-.133.221-.274.307-.43-.201.031-.383.077-.568.089-.173.01-.259.011-.287.011-.308 0-.67-.066-.976-.129-.24-.049-.532-.227-.771-.227-.214 0-.327.092-.327.276 0 .029.023.112.051.161.146-.198.176-.333.368-.333.2 0 .236.224.236.316 0 .028-.006.068-.012.206-.004.092-.04.197-.073.297-.023.071-.068.143-.103.206-.021.039-.07.079-.096.127-.098.183-.185.405-.336.614l.804.014c.091 0 .604.104.609.104a3 3 0 0 0 .444-.095m-2.068-1.137c-.086-.043-.121-.156-.218-.211-.14-.08-.344-.256-.505-.386-.041-.033-.076-.104-.118-.146-.083-.083-.172-.174-.273-.237-.09-.057-.537-.12-.56-.12-.037 0-.195.032-.195.08 0 .029.024.067.049.092h.15c.029 0 .086.036.113.06.065.056.095.144.161.2.017.014.059.017.093.031a.5.5 0 0 1 .148.09c.133.134.244.345.312.5.059.132.201.227.257.345.057.119.061.279.144.393.196.047.356-.126.532-.126.073 0 .109.036.221.069.071-.199.21-.563.21-.591s-.024-.094-.039-.144c-.051.033-.221.126-.295.126-.028 0-.135.001-.187-.025m-.789 16.968c-.154-.166-.425-.631-.425-.841 0-.029.011-.079.034-.162-.013-.015-.022-.016-.051-.016-.022 0-.342.057-.477.057-.322 0-.796-.099-1.099-.333-.133.386-.569.681-.751.879a.4.4 0 0 0 .173.075c.152 0 .409-.253.534-.253.029 0 .113.011.197.034.014-.013.027-.017.027-.046s-.115-.161-.115-.189c0-.154.129-.224.236-.224.174 0 .27.115.27.275 0 .184-.071.296-.287.475.004.09.114.113.168.154.013.185-.003.362.092.529.004.008-.007.035.008.056.021.015.042.039.071.039.057 0 .206-.259.219-.291.023-.053.019-.124.052-.171.059-.085.196-.041.297-.118-.036-.05-.104-.09-.136-.141-.075-.119-.128-.207-.128-.325 0-.13.103-.252.224-.252.214 0 .281.378.273.453a.3.3 0 0 0 .047.164c.067.114.384.187.496.187.028 0 .034-.012.051-.015m.094-2.205c.106-.13.237-.229.365-.334v-.162c.001-.043-.288-.259-.296-.269-.016-.02-.027-.048-.05-.066-.022-.016-.038-.04-.067-.04-.028 0-.166.092-.195.092s-.058-.023-.086-.023c-.217 0-.225.266-.255.391-.046-.047-.052-.174-.089-.25-.096-.192-.098-.106-.098-.238 0-.098-.015-.123.08-.242-.071-.066-.326-.235-.425-.235-.161 0-.344.082-.517.129.068.14.08.134.08.215 0 .052-.023.173-.069.173-.028 0-.069-.023-.097-.023-.031 0-.42.156-.42.264 0 .037.184.332.184.5 0 .169-.115.436-.115.614 0 .029.001.157.038.216.026.042.094.045.137.075.187.128.716.215.968.215.029 0 .334-.034.447-.038.265-.218.297-.517.4-.77.025-.059.034-.138.08-.194m2.968 4.728.002-.03c.318-.332.651-.676.986-1.027l-1.321.077c-.029 0-.039 0-.048-.002-.217-.397-.447-.811-.67-1.228-.177.351-.31.732-.457 1.095-.008.011-.026.009-.042.009l-1.192-.184a.05.05 0 0 0-.015.035l.563 1.17-.77 1.063c.014.026.043.052.064.052l1.235-.207c.028 0 .054-.006.064.02.117.296.337.888.337.917s.024.037.031.048c.039.103.085.206.109.324.015.001.032-.001.039-.013.2-.38.382-.76.571-1.138a.4.4 0 0 1 .074-.1l1.198.192zm3.186-7.699c-.159.018-.369.149-.363.273.028-.012.043-.022.072-.022s.051.034.08.034c.103 0 .208-.26.211-.285m.588-1.03c0-.029-.013-.044-.038-.058-.054-.032-.12-.033-.172-.065-.09-.056-.08-.127-.075-.199.002-.034.008-.072-.008-.107-.097-.056-.164-.048-.259-.048a.46.46 0 0 0-.204.055 1 1 0 0 0-.182.107c-.018.016-.016.062-.016.09 0 .029.023.242.023.27 0 .077-.055.121-.121.121-.157 0-.089-.034-.323-.092-.117.104-.008.257-.138.357a.1.1 0 0 1-.036-.02c-.014-.068-.014-.182-.014-.21 0-.115-.036-.311.144-.311.028 0 .237.104.265.103h.061a19 19 0 0 0-.071-.492c-.177.057-.351.123-.522.187-.068.026-.17.099-.198.099-.045 0-.081-.056-.081-.086s.076-.081.113-.118c.007-.007.035.002.053-.006a.8.8 0 0 0 .23-.185c.267-.299.432-.621.477-.932 0-.011-.011-.023 0-.311-.029-.148-.044-.348-.119-.499-.156.128-.133.311-.206.475-.046.104-.107.222-.15.321-.046.105-.117.234-.172.356a3 3 0 0 1-.229.39c-.002.001-.23.273-.284.273-.029 0-.038-.011-.058-.018.324-.384.566-.894.742-1.321.075-.179.143-.579.143-.608 0-.032-.115-.195-.115-.304 0-.059.06-.069.075-.069.109 0 .107.195.224.195.063 0 .162-.118.214-.134.112-.033.263-.176.403-.253.131-.072.27-.146.413-.183.1-.026.239-.016.371-.02-.047-.052-.111-.093-.135-.142-.03-.062-.221-.494-.221-.642v-.273c0-.029.011-.01.019-.022.004-.014.1-.273.205-.273.095 0 .273.204.277.282 0 .023.005.063.005.092s.011.034.013.06h.147c-.013-.018-.034-.021-.034-.05v-.193c0-.178-.257-.294-.356-.294-.144 0-.287.153-.36.314-.067.147-.298.326-.43.42a5 5 0 0 1-.574.332c-.243.124-.516.206-.759.341-.067.037-.117.12-.148.193-.038.088-.034.19-.065.276-.174.468-.396 1.076-.714 1.329l-.018-.019c.069-.168.167-.356.244-.536.104-.242.2-.483.269-.724.066-.23.085-.494.349-.748-.093-.115-.405-.293-.54-.293-.149 0-.216.056-.302.255-.007.012-.014.021-.042.021-.067 0-.104-.08-.104-.11 0-.069.109-.139.147-.171.017-.014.033-.06.069-.084.148-.105.209-.13.341-.13a.7.7 0 0 1 .204.061c.151.081.317.387.371.387.029 0 .162-.057.246-.084-.294-.482-.688-.697-1.045-.697-.263 0-.459.161-.562.51a4 4 0 0 0 0 .289c.037.219.195.374.195.396 0 .078-.217.524-.227.567-.042.181-.06.368-.101.552v.898c.018.115.061.24.089.368.016.073.21.242.276.284.024.014.058.046.092.062.032.014.824.312.824.503 0 .075-.124.072-.169.091-.011.004-.024.031-.049.059.085.05.115.177.115.241a.7.7 0 0 1-.061.204c-.091.169-.235.197-.362.278-.133.084-.255.286-.255.402 0 .132.101.33.169.451.261.471.736.6 1.1.6.048 0 .339-.02.339-.114 0-.144-.374-.206-.394-.207-.009-.01-.009-.022-.019-.029 0 0-.006-.017.023-.017h.142c.029 0 .125.024.183.05.153.068.234.212.287.348q.013.034.034.072c.075.005.147-.157.147-.235a.4.4 0 0 0-.04-.164c-.023-.037-.087-.083-.087-.111 0-.065.299-.325.299-.397 0-.028-.003-.033-.015-.041-.034-.016-.075-.005-.102-.029-.064-.056-.159-.183-.159-.211 0-.328.529-.354.529-.466 0-.058-.15-.134-.15-.201 0-.031.007-.063.052-.063.075 0 .142.153.171.184.131-.048.149-.221.17-.303a.7.7 0 0 1 .092-.228c.053-.077.205-.193.205-.221M-17.889.8v.428c0 .29-.284.65-.447.933h.05a1 1 0 0 0 .21-.025c.174-.054.384-.322.458-.494.057-.128.12-.41.12-.567V.548l-.057-.356c.011-.229 0-.264-.003-.304-.154.09-.342.247-.511.299-.013.013-.015.005-.015.034s.078.12.1.18c.046.123.095.37.095.399m2.321.053c0-.14-.556-.218-.558-.218h-.273c-.055 0-.065-.061-.065-.075 0-.092.177-.063.184-.063.205 0 .395.037.59.084.056.013.112.067.164.122.023-.154-.169-.369-.343-.511-.044-.037-.129-.025-.168-.084-.031-.048-.025-.141-.025-.17v-.181c0-.029-.011-.082-.016-.131-.115-.088-.112-.199-.252-.239-.035-.01-.145.008-.145-.068 0-.05.103-.086.126-.086.099 0 .296.123.265.251h.053c.025-.023.05-.067.05-.096 0-.109-.138-.154-.212-.267-.006-.01-.033-.014-.052-.02.03-.006.091-.04.12-.04.046 0 .465.123.465.246 0 .074-.103.136-.103.167 0 .038.066.126.097.126.084 0 .064-.049.154-.146.062-.067.177-.049.254-.049.13 0 .227-.025.353.136.016.02.038.059.038.088s-.081.373-.081.402.07.287.07.316c0 .115-.127.206-.127.322 0 .122.246.377.324.451.037.036.087.133.145.134.034-.101.186-.295.186-.298 0-.033-.121-.115-.141-.128-.064-.043-.144-.19-.186-.256-.013-.02-.041-.035-.041-.064 0-.046.15-.279.15-.419 0-.029-.023-.276-.023-.305s.034-.442.034-.471c0-.099-.047-.172-.178-.172-.149-.002-.195-.012-.224-.012s-.178.035-.207.035-.201-.046-.23-.046a.5.5 0 0 0-.178.057.13.13 0 0 1-.06-.076c-.039-.141-.211-.287-.34-.333-.054-.018-.115-.027-.174-.039l-.798.037v.039c0 .164.124.468.221.507.091.036.225.134.327.196.003.043.015.117.015.146s-.015.103-.021.16c-.005.058.009.162.009.19 0 .101-.162.144-.251.225-.076.067-.223.167-.234.274a1 1 0 0 0-.078.208c0 .029.011.112.038.164.04.078.149.109.231.126.159.033.284.061.426.061.094 0 .695-.062.695-.207m1.528-1.764c0-.028.023-.184.023-.212 0-.115-.037-.322-.218-.322-.23 0-.531.299-.718.299-.029 0-.138-.035-.167-.035-.083 0-.207.045-.207.161 0 .065.143.115.15.115.075 0 .057-.081.149-.081.029 0 .174.035.202.035h.159c.028 0 .106-.02.149-.007.06.018.122.097.122.15 0 .141-.069.357-.069.523l.023.42c0 .201-.115.211-.115.344 0 .046.185.339.293.339.029 0 .125-.101.186-.134a.9.9 0 0 1 .297-.073l.257.009c-.092-.25-.389-.261-.389-.48 0-.028.091-.31.091-.339 0-.238-.218-.647-.218-.712m.276 2.103c0 .049-.144.126-.157.146a1 1 0 0 0-.107.2c.013.014.011.027.04.027.09 0 .067-.153.335-.26.095-.038.219-.012.321-.03.103-.019.245-.127.371-.184 0 0 .001-.016-.004-.029-.212-.179-.436-.288-.656-.267-.057.005-.143-.023-.172-.023-.413 0-.66.592-.728.825.016.002.027.025.056.025.112 0 .103-.324.467-.462.045-.018.102-.043.131-.043.053 0 .103.021.103.075m-.598 5.899c.029 0 .23-.022.329-.049.108-.029.221-.101.323-.154.038-.02.256-.104.256-.205 0-.059-.305-.512-.326-.545a1.04 1.04 0 0 1-.484.149c-.138.009-.149.011-.178.011-.139 0-.293-.05-.444-.091l-.406.569c.24.21.666.315.93.315m4.297.959c0-.028-.004-.034-.011-.218a1.6 1.6 0 0 0-.028-.265c-.014-.074-.058-.138-.096-.209-.041-.073-.025-.171-.123-.233-.049.036-.114.08-.151.129-.041.053-.084.128-.134.196-.033.043-.364.379-.364.474 0 .029.021.15.03.23.014.13.05.254.077.381.009.013.02.012.027.023.027.08.06.164.099.242.017.034.072.076.108.127.022.03.049.088.049.117 0 .046-.041.07-.055.104h-.133c-.032-.001-.409-.117-.409-.236 0-.046.062-.052.069-.052.029 0 .141.069.217.09-.034-.064-.109-.123-.134-.19-.078-.193-.175-.398-.175-.566 0-.157-.102-.244-.282-.241-.172.003-.218 0-.459 0-.104 0-.22-.015-.321-.037-.15-.035-.3-.071-.447-.127a.9.9 0 0 0-.272-.066c-.24 0-.324.136-.594.285-.121.067-.264.106-.382.17.028.004.045.024.072.035a.6.6 0 0 0 .192.027c.273 0 .194-.115.379-.115.125 0 .145.119.245.206h.041c.001-.016-.01-.011-.01-.039 0-.125.31-.026.31-.219 0-.061-.019-.074-.058-.074-.053 0-.11.055-.135.115h-.029c-.033-.033-.077-.087-.077-.115 0-.072.068-.157.145-.18a.4.4 0 0 1 .096-.016c.104 0 .308.153.329.237a.5.5 0 0 1 .016.114c0 .056-.125.252-.147.268-.043.03-.091.003-.136.018-.029.008-.107.03-.107.093 0 .103.195.121.195.207 0 .028-.046.212-.046.241 0 .031.054.442.161.442.028 0 .097-.069.126-.069.039 0 .069.032.069.064 0 .145-.214.178-.253.178-.069 0-.142-.092-.177-.176-.044-.111-.11-.224-.11-.337v-.181c0-.029-.022-.169-.051-.245-.007-.02-.046-.023-.065-.047-.025-.031-.038-.08-.063-.1-.069-.058-.206-.097-.285-.201a.6.6 0 0 1-.288.103c-.031 0-.592-.083-.592-.241 0-.072.093-.107.146-.13.106-.046.228-.077.334-.15.176-.122.404-.258.559-.423.187-.199.124-.451.311-.676.007.01.017 0 .017.029s-.046.189-.046.218c0 .088.128.343.175.37.032.019.083.032.116.042a.4.4 0 0 0 .105.019c.239 0 .512-.148.515-.396a.3.3 0 0 1 .034-.124c.04-.098.107-.2.183-.298.066-.084.239-.164.239-.245 0-.133-.05-.198-.108-.346-.004-.012-.036-.033-.05-.059-.085-.155-.175-.399-.293-.48-.057-.038-.192-.039-.221-.039-.133 0-.158.116-.25.267-.071.116-.181.214-.246.333-.066.122-.015.309-.101.411-.019-.022-.032-.057-.058-.069-.038.024-.069.077-.118.113a1 1 0 0 1-.158.082h-.032c-.009-.01-.008 0-.008-.029 0-.014.172-.32.218-.4v-.04c-.21-.082-.431-.152-.646-.234-.028-.01-.055-.052-.066-.071.067-.055.253-.418.253-.536a1 1 0 0 0-.028-.214 1.6 1.6 0 0 0-.172-.335c-.033-.051-.093-.117-.122-.117s-.055.05-.078.067a.2.2 0 0 1-.088.025c-.029 0-.041-.032-.052-.051.044-.031.102-.1.158-.164.021-.004.055-.003.093-.005.002-.05-.008-.099.016-.139.041-.072.111-.051.166-.069.061-.022.106-.124.154-.183.029-.035.087-.078.109-.116.112-.188.282-.441.272-.635-.001-.034.009-.079.012-.126.007-.08.031-.23.031-.258 0-.029-.046-.236-.046-.265 0-.178.117-.254.225-.454a1.1 1.1 0 0 0 .085-.292 1 1 0 0 0-.086-.292c-.027-.04-.066-.114-.123-.151-.08-.052-.196-.11-.219-.212a2 2 0 0 1-.348.092h-.159c-.199 0-.162.252-.386.252-.092 0-.115-.076-.115-.115 0-.099.066-.194.114-.273-.238.108-.236.446-.493.446-.029 0-.061-.011-.102-.021.11.326.549.467.697.605.06.056.072.191.098.251.038.088.121.169.165.253.046.086.096.256.096.285s-.012.034-.01.065c-.007-.002.004.009-.025.009-.09 0-.14-.26-.154-.284-.052-.081-.117-.159-.165-.241-.045-.076-.025-.196-.108-.262-.232-.186-.591-.233-.696-.507-.012-.032-.008-.088-.031-.116-.164-.212-.245-.267-.431-.267q-.044-.002-.077.005c-.009.002-.176.132-.176.196 0 .086.031.108.146.209.003.033-.008.067-.005.103.01.013.033.05.062.05h.238c.029 0 .021.01.034.02.157-.007.229.224.256.32.053.183.353.358.402.563.013.055-.023.13-.004.196.037.129.12.235.238.423-.01.008-.006.006-.034.006-.125 0-.276-.253-.296-.329-.026-.095-.002-.185-.019-.275-.02-.104-.211-.269-.288-.355-.12-.133-.128-.269-.195-.382-.023-.038-.1-.072-.129-.072h-.238c-.063 0-.179-.147-.179-.184 0-.029.022-.063.021-.09-.069-.019-.133-.131-.091-.206-.017-.003-.011-.014-.04-.014-.077 0-.132.083-.132.138 0 .123.035.151.115.246a.2.2 0 0 1-.064.004c-.062.033-.085.043-.085.089 0 .117.173.104.222.124.054.023.127.04.183.069.092.049.122.135.154.222.018.055.041.137.077.185.092.121.28.169.295.308.014.136-.019.172-.012.287.01.162.074.346.197.438.038.027.097.023.139.042.134.06.365.378.365.519 0 .06-.007.109-.081.109-.029 0-.046-.002-.055-.03-.07-.232-.104-.384-.324-.384a.4.4 0 0 0-.169.028c-.15.081-.325.232-.325.363 0 .029.046.098.046.127 0 .032-.003.044-.062.069-.074-.088-.026-.104-.116-.104-.471 0-.741.816-.741 1.068 0 .108.052.408.085.46.05-.023.106-.062.153-.088.101-.053.218-.096.336-.145a1.1 1.1 0 0 1-.103-.422c0-.207.004-.356.264-.356.101 0 .102-.007.221.084.042.031.079.102.138.142.014.01.051-.023.096.025-.007.059-.055.048-.076.048-.156 0-.268-.161-.39-.161-.099 0-.104.164-.104.172 0 .171.144.374.185.51-.204.145-.461.162-.667.357.081.136.179.338.339.454.169-.163.352-.438.518-.643.122.085.25.087.378.115.184-.012.191-.013.205 0 .129-.023.272-.028.405-.061.053-.013.12-.111.148-.111.046 0 .092.077.129.135.019.028.36.496.36.617 0 .116-.105.145-.228.245-.047.039-.114.066-.171.092-.173.077-.319.167-.495.18a.5.5 0 0 1-.067.104c-.013.016-.085.36-.085.436 0 .029.012.184.012.213 0 .181.1.587.141.674.116.252.32.568.607.815q.465.402.957.479c.044.006.103.023.149.028.058.005.162-.009.19-.009.029 0 .132.023.161.023.15 0 .565-.115.629-.141.185-.078.436-.164.64-.323.317-.244.454-.534.61-.814.055-.098.166-.487.166-.681m-3.216-2.734c0 .139-.07.31-.196.472.155.102.379.157.57.223.057-.035.085-.333.085-.419a2 2 0 0 0-.039-.312c-.013-.059-.306-.762-.599-.762-.031 0-.097.01-.097.063 0 .029.148.263.203.393.047.11.073.313.073.342m3.371-.356c-.001-.063-.054-.075-.103-.075-.124 0-.461.112-.53.209-.107.151-.234.324-.223.487.002.036-.008.08-.015.113-.015.059-.039.117-.058.172-.048.137-.091.292-.16.436-.069.142-.231.17-.35.254-.119.087-.368.264-.424.424-.062.178-.112.456-.356.545-.194.07-.268.117-.417.117a.6.6 0 0 1-.187-.048c-.047-.026-.091-.077-.166-.123-.003.016-.015.022-.015.051s.054.055.083.078c.087.071.197.095.3.131.043.015.106.009.162.019.219.043.478.088.713.088.518 0 .68-.185 1.145-.818.032-.043.097-.085.146-.141.159-.184.22-.216.22-.385 0-.029-.035-.265-.035-.293 0-.265.152-.343.26-.584a.5.5 0 0 0 .01-.238zm1.998-10.851h-5.707c-.091 0-.111.185-.111.201 0 .076.071.224.18.224h5.631c.014-.026.057-.045.078-.083a.4.4 0 0 0 .04-.141c0-.016-.043-.201-.111-.201m-5.368.576.058 2.077h5.015c.013-.013.038-.024.038-.052v-2.025zm4.081-3.678h-.273c-.028 0-.077-.023-.106-.021h-3.897l.034 2.834h5.192v-1.496c0-.029-.353-.596-.546-.89-.069-.106-.154-.211-.23-.321-.073-.105-.112-.106-.174-.106m-.261-.527h-4.1l-.434.894c.035.078.081.158.121.23l.361-.772c.01-.01.022-.01.031-.022h4.254c-.069-.097-.125-.24-.233-.33m-7.326-.797h6.723a15.5 15.5 0 0 0-6.723-4.403zm-.436 2.45c0 .139.23.424.23.907 0 .029-.035.223-.056.344.084-.028.101-.048.154-.128.076-.116.085-.272.156-.402.054-.098.158-.172.228-.256-.043-.055-.287-.139-.287-.287 0-.168.148-.259.27-.259.268 0 .373.299.373.46a1 1 0 0 1-.061.256c-.012.026-.042.058-.053.097a.5.5 0 0 0 .126.026c.029 0 .086-.023.115-.023.028 0 .141.202.244.261.139.079.311.129.467.186v-.038c.001-.028-.056-.058-.056-.087 0-.055.074-.081.086-.081.096 0 .12.12.12.167 0 .106-.09.167-.161.167-.099 0-.504-.185-.537-.195-.014.061-.004.143-.004.172l.071.971.149.936c-.012.085-.016.167-.028.246-.015.108-.144.542-.144.696 0 .433.567.859.669 1.282.011.047.043.131.043.16s-.02.052-.04.063c-.077-.081-.122-.204-.185-.31-.102.244-.189.272-.189.471 0 .028.04.208.084.295.043.085.391.463.508.463.029 0 .198-.081.304-.143-.256-.195-.293-.484-.31-.725-.016-.23-.034-.432-.035-.461v-1.026l-.045-.753-.07-.537c.021-.009.023-.024.026-.037-.003-.024-.01-.206-.011-.231a4 4 0 0 1-.014-.281c0-.028-.058-.277-.058-.306v-.215c.011-.022.029-.042.058-.042.056 0 .067.137.072.157.027.105.038.208.057.31.006.037.017.094.02.148.013.242.046.401.058.552.021.276.022.494.022.551 0 .011-.009.03-.022.044l.079.405v1.506c.001.142.14.623.171.646.019.013.013.057.029.09.024.049.121.118.151.118s.15-.034.178-.034c.177 0 .38.136.38.303v.188c.318.137.667.216.98.294.232.057.472.157.709.211-.041.06-.14.049-.173.049-.029 0-.21-.043-.315-.064-.148-.031-.296-.079-.448-.104-.238-.039-.482-.06-.729-.14a.46.46 0 0 0 .107.192c.088.073.223.129.319.2.18.132.384.238.576.288.012.003.034.025.058.027.069.009.202.038.231.038.214 0 .836-.588.958-.733.056-.068.22-.094.248-.094.029 0 .054.021.075.041-.024.086-.174.092-.225.149-.061.064-.078.168-.134.237-.141.173-.329.321-.503.496.015.029.075.076.11.076.298-.007.43-.035.459-.035s.08.018.126.021c.081.007.174.005.251.029.861.272 1.484 1.394 1.516 2.093 0 .025.043.063.043.092 0 .03-.03.109-.069.109-.023 0-.103-.056-.103-.087v-.17c0-.029-.136-.482-.247-.705-.081-.165-.17-.372-.311-.53-.119-.133-.279-.188-.432-.317a1 1 0 0 0-.232-.128 2.1 2.1 0 0 0-.656-.157c-.035-.001-.077-.02-.106-.02h-.227c-.028 0-.076-.023-.105-.023s-.162.023-.246.052c.229.084.521.293.732.51.026.025.046.082.064.113.118.187.197.367.229.55.04.228.089.47.112.7l.034.77c.023.184.036.371.061.552.02.15.112.417.112.446v.102l-.019.02c-.132-.103-.158-.286-.185-.41a9 9 0 0 1-.107-.816v-.272c0-.029-.031-.327-.061-.485-.061-.311-.234-.626-.415-.933-.156-.265-.547-.554-.813-.744a.4.4 0 0 0-.181-.04c-.132 0-.315.038-.425.086.282.183.517.598.531.794.004.068-.003.148-.001.222h.21c.132.001.386.127.447.158.02.01.057.005.092.019.069.03.15.065.218.092.007.003.226.154.226.209 0 .053-.062.063-.069.063-.028 0-.14-.102-.214-.149-.049.095-.094.189-.145.278-.061.104-.14.202-.178.312-.08.231-.233.705-.233.978 0 .408.271.746.491 1.174a.4.4 0 0 1 .028.162s-.001.014.027.014c.029 0 .104-.023.132-.023.204 0 .538.215.683.363.028.028.144.125.144.177 0 .06-.083.069-.091.069-.041 0-.101-.079-.144-.125-.095-.101-.418-.323-.574-.323a.8.8 0 0 0-.19.072v.165c0 .084.087.197.205.267v-.038c.002-.044-.113-.094-.113-.179 0-.076.073-.115.126-.115.029 0 .153.06.233.1.078.039.164.068.24.133.104.09.217.155.217.25 0 .053-.036.126-.087.126-.146 0-.092-.224-.127-.252a1.3 1.3 0 0 0-.324-.161.45.45 0 0 1-.243.348c.058.097.099.204.152.303.052.098.171.22.172.331 0 .023-.003.059.012.097.354-.176.427-.599.493-.843.016-.057.052-.121.062-.175.039-.214.211-.373.347-.461.088-.057.228-.048.317-.11.027-.019.033-.083.055-.114.127-.176.287-.326.406-.517a1.4 1.4 0 0 0 .158-.438c.01-.059.035-.114.05-.172.018-.079.027-.231.027-.26l-.046-.489v-.205c0-.029-.027-.394-.05-.588-.022-.172-.076-.512-.076-.541V.935c0-.288.195-.415.195-.467 0-.125-.184-.31-.184-.374 0-.028.108-.346.141-.521.034-.18.049-.368.066-.552a2.5 2.5 0 0 0 0-.484c-.007-.103-.033-.209-.055-.311-.023-.103-.07-.216-.103-.322-.13-.418-.698-.498-.979-.498a3 3 0 0 0-.328.016c-.059.007-.128.045-.185.062-.056.016-.149.063-.231.104a.3.3 0 0 1-.101.025c-.028 0-.192-.089-.286-.11a2 2 0 0 0-.449-.039l-.425-.012c-.029 0-.15.012-.221.017-.031.04-.072.259-.194.26h-.063c.001-.007-.01-.007-.01-.036 0-.032.109-.07.117-.201.003-.045-.012-.095.011-.135.065-.113.156-.081.235-.123l2.204-.012c.337.043.758.052 1.06.469.085.116.191.243.264.378.115.21.219.438.237.653 0 0 .019-.019.019.01v.175c0 .029.035.241.058.367l.06 1.045v1.792l-.083.884v.277c0 .029-.023.194-.035.39 0 .011-.008.029-.019.035-.038.274-.096.809-.096.838s.01.104.023.253a.47.47 0 0 0 .131.243c.075.058.237.055.237.176 0 .085-.276.11-.276.333 0 .326.287.188.287.694v.198c0 .029.035.09.029.119v1.614c-.017.045-.024.093-.033.137-.027.145-.189.119-.27.197a.25.25 0 0 0-.059.131c0 .084.079.184.178.184.029 0 .115-.057.144-.057s.046.023.046.052c0 .054-.138.106-.138.264 0 .074.075.27.224.27.126 0 .224-.196.224-.27 0-.029-.08-.207-.08-.236 0-.054.076-.057.08-.057.029 0 .098.046.126.046.11 0 .173-.132.173-.184 0-.247-.401-.198-.374-.43V6.867c.006-.154.125-.839.135-.872.023-.078.092-.136.141-.184.036-.034.086-.112.086-.14v-.204c0-.032-.149-.189-.176-.198a.6.6 0 0 0-.161-.016c-.009-.01-.008-.012-.008-.04 0-.029-.002-.032.021-.049.022-.016.062-.014.081-.03.047-.039.119-.076.146-.116.099-.145.132-.242.132-.374 0-.029-.039-.412-.066-.604a47 47 0 0 1-.279-2.539L-8.376.123v-.872c0-.028.029-.127.03-.185.023-.465.154-.947.232-1.443.18.004.22-.217.22-.309 0-.118-.056-.31-.234-.333l-3.298-.017-1.735.006c-.189.028-.373.239-.373.408 0 .203.043.269.279.308.011.007.032.017.043.026-.029.105-.111.085-.184.085-.206 0-.379-.252-.379-.419 0-.029.021-.059.018-.093-.019-.165.094-.358.279-.491l-.045-2.096c-.013-.013-.037-.014-.05-.022-.246-.003-.294-.253-.294-.395 0-.168.033-.296.286-.37.001-.026-.002-.049-.011-.176-.026-.355-.108-.759-.169-1.115-.068-.385-.149-.831-.385-1.222-.06-.001-.13.01-.187.015-.032.003-.339.104-.339.145 0 .029.041.121.053.18.02.089.039.182.043.277.068.037.136.071.203.114-.011.019-.069.061-.069.09s.036.106.042.161c.073.609.222 1.796.222 1.825v.209l.058.7.057 1.758c.012.07.035.172.035.201a.3.3 0 0 1-.044.116c-.035.006-.064-.032-.068-.065-.016-.102-.054-.218-.069-.322-.006-.044.017-.107.004-.15a1.7 1.7 0 0 1-.05-.515c0-.046-.026-.111-.026-.14v-.709c0-.029-.046-.216-.046-.244.024-.51-.177-1.278-.161-1.812 0-.029-.029-.073-.031-.106a2.3 2.3 0 0 0-.158-.618c-.034-.083-.19-.197-.19-.226s.01-.036.019-.046c.159 0 .194-.011.232-.013.002-.015.013-.039.012-.053-.202-.087-.466-.217-.668-.315-.499-.243-.419-.653-.801-.653-.108 0-.183.074-.249.101-.011.003-.035-.008-.046-.004-.389.114-.854.497-.854.834m-.235-.153c.008-.022.005-.06.004-.098-.209-.058-.348-.305-.426-.467-.06-.017-.141-.04-.17-.04-.065 0-.31.114-.333.19.112.128.224.307.267.426.034.095.093.184.131.276.04.101.079.218.115.321.042.126.084.263.114.402.061.273.131.796.131.825v.899c0 .028-.023.238-.043.36-.047-.036-.049-.14-.061-.213l-.023-1.045c-.063-.508-.152-1.061-.395-1.577-.088-.186-.161-.428-.369-.583-.061-.045-.525-.385-.672-.385-.029 0-.246.048-.352.097-.071.032-.111.13-.145.181-.035.052-.096.088-.131.138a2.5 2.5 0 0 0-.329.737c-.054.18-.152.36-.241.539-.065.131-.279.306-.421.367.002.045.128.09.166.09.668 0 .765-.642 1.38-.743.067-.01.156-.013.23-.042.042-.016.085-.077.113-.077.046 0 .075.031.075.063 0 .029-.057.114-.123.141-.097.042-.207.061-.31.104-.011.002-.035.002-.047.007-.058.042-.123.06-.17.104-.135.127-.29.283-.43.413.012.026.025.062.05.087.096-.035.272-.081.3-.081.029 0 .127.024.191.016.077.062.079.038.079.099 0 .077-.025.081-.08.081-.029 0-.167-.034-.195-.034-.072 0-.146.014-.191.07-.049.059-.037.182-.088.253-.078.11-.238.321-.238.45v.152l.091.648c-.032.15-.026.281-.084.417-.089.214-.289.451-.429.635-.062.084-.054.227-.099.331a.64.64 0 0 0-.054.289c0 .336.075.37.238.795.046.12.061.36.061.388 0 .2-.132.38-.161.597-.018.148-.011.207-.006.259.029-.084.082-.175.105-.248.076-.231.398-.432.585-.43.138.002.195-.011.224-.011.201 0 .309.113.52.199.065.026.132.09.183.126.176.128.305.291.461.456.171-.038.4-.15.566-.279.004-.048.016-.123.016-.152s-.037-.171-.043-.253c-.026-.323-.143-.687-.272-1.024-.07-.184-.19-.44-.303-.633-.013-.021-.014-.056-.019-.075-.03-.04-.087-.111-.087-.14 0-.062.059-.063.081-.063.043 0 .071.009.1.054q.192.31.367.644c.089.167.165.356.263.531.028-.189.051-.534.051-.563s-.004-.213-.016-.317c-.011-.105-.052-.218-.073-.333-.012-.068-.005-.14-.019-.207-.019-.082-.04-.174-.069-.265-.05-.159-.168-.446-.168-.475 0-.057.059-.069.081-.069.028 0 .045.001.053.02.091.2.167.406.276.62.076.153.108.333.167.496.107.019.249-.112.373-.155.182-.064.389-.081.563-.157.165-.072.149-.247.176-.369 0-.013-.011-.024 0-.3-.023-.093-.043-.2-.074-.3-.037-.127-.09-.267-.126-.386-.1-.328-.23-.671-.326-1.004-.006-.022.008-.057.005-.08-.007-.046-.031-.103-.046-.165-.045.028-.178.149-.243.149-.044 0-.121-.028-.121-.081 0-.028.059-.085.076-.13.006-.016.074-.313.074-.392 0-.029-.007-.081-.023-.276-.006-.081-.042-.177-.074-.266-.063-.171-.244-.388-.184-.559m-8.281-2.297h8.246v-3.771h-8.246zm1.762-8.783c-.076.079-.143.166-.216.249l.388.497-.695.856-.358-.459c-.071.125-.116.25-.171.375l.329.421-.559.688v.902l.483.609-.422.522h.441l.193-.244.194.244h.443l-.396-.505.695-.878.684.861-.423.522h.455l.193-.244.193.244h.43l-.396-.505.695-.878.684.861-.423.522h.482l.193-.244.193.244h.403l-.396-.505.695-.878.684.861-.423.522h.441l.193-.244.194.244h.429l-.396-.505.696-.878.177.223v-1.013l-.23.275-.649-.821.545-.663c-.061-.119-.149-.233-.222-.35l-.57.708-.684-.856.588-.723c-.087-.093-.162-.195-.253-.283l-.57.713-.672-.845.441-.526c-.119-.084-.224-.133-.338-.203l-.35.425-.649-.821.016-.022c-.013 0-.035-.013-.047-.013-.109 0-.244.036-.389.086l-.679.836-.251-.322c-.08.056-.16.136-.241.198l.265.34-.695.856zm-.283 1.913.695-.856.614.787-.695.856zm1.545-.319-.672-.857.695-.879.683.862zm.885-1.157-.649-.821.672-.902.672.878zm.247.304.706-.844.649.833-.683.856zm.907 1.138.695-.856.672.862-.683.85zm.931 1.16.695-.844.649.833-.695.832zm-1.143-.902.683.862-.706.873-.672-.856zm-.236-.293-.706.868-.661-.833.707-.879zm-1.582.293.684.862-.707.873-.672-.856zm-1.844 0 .683.862-.706.873-.672-.856zm-.44 5.232c-.195.132-.311.394-.525.465.193-.258.401-.73.403-1.013v-.65c.089.086.423.172.557.172h.399c.135 0 .469-.086.557-.172v.705c.002.028.036.082.036.11 0 .186.26.749.379.848a.8.8 0 0 1-.306-.229c-.076-.104-.257-.312-.369-.275a4 4 0 0 1-.025-.321c0-.136.033-.346.115-.485-.09-.009-.215.049-.327.069-.056.01-.114.003-.168.011.186.232.161.432.253.712-.365.281-.204.676-.315.988-.007.013-.024.027-.038.026-.119-.361.026-.716-.336-1.038.123-.216.074-.499.265-.688-.099-.008-.206-.013-.306-.034-.059-.012-.131-.055-.16-.055s-.018.009-.018.009c.071.279.093.3.093.503 0 .029-.012.195-.013.291-.049.013-.112.025-.151.051m-.158-1.416c0-.166.532-.24.568-.242.196-.014.279-.021.449 0 .158.019.331.057.473.124.027.013.107.087.107.118 0 .228-.753.252-.799.252-.045 0-.798-.017-.798-.252m3.049 1.365c-.267-.001-.42.442-.681.504.069-.087.122-.162.168-.235.018-.031.21-.494.21-.56 0-.029.034-.223.036-.252v-.604c.12.099.415.172.545.172h.4c.135 0 .468-.088.557-.16v.612c.001.313.203.755.414 1.039-.284-.097-.407-.509-.687-.516-.013-.176-.013-.268-.013-.297 0-.164-.013-.158.049-.364.013-.046.054-.101.054-.13 0-.027-.105.024-.234.054-.077.019-.173.015-.249.023.181.221.144.464.251.674v.027c-.358.326-.224.681-.321 1.024h-.042c-.097-.36.034-.715-.324-1.025.093-.219.095-.489.265-.7-.145-.025-.316-.015-.47-.089-.014.021-.01.029-.01.029.064.156.089.33.082.471zm-.315-1.36c0-.171.481-.237.568-.247.183-.021.266-.011.449 0 .015 0 .569.059.569.247 0 .221-.724.247-.793.247-.039 0-.793-.018-.793-.247m2.96 1.377c-.198.058-.33.403-.604.499.136-.166.413-.718.415-.944v-.719c.056.087.439.172.557.172h.388c.156 0 .424-.074.568-.172v.671c.002.279.242.776.414.992-.099-.05-.206-.095-.282-.195-.096-.128-.282-.341-.404-.321-.002-.096-.014-.257-.014-.286s.006-.205.026-.305c.013-.07.078-.166.078-.194 0-.029-.008-.018-.008-.018a2.4 2.4 0 0 1-.487.089c.192.211.149.48.276.699-.387.294-.23.701-.338 1.024-.007.012-.026.015-.026.015-.014-.05-.015-.097-.019-.142-.006-.01-.018-.022-.023-.035.004-.036-.019-.064-.019-.093 0-.24-.026-.579-.287-.78.106-.165.108-.499.265-.688-.099-.008-.206-.013-.306-.034-.059-.012-.131-.055-.16-.055s-.018.008-.018.008c.032.057.116.361.116.492 0 .029-.02.103-.023.241 0 .059-.063.073-.085.079m-.225-1.377c0-.188.531-.244.58-.247.171-.011.253-.011.437 0 .015 0 .568.059.568.247 0 .21-.658.247-.81.247-.046 0-.775-.026-.775-.247m3.681 5.294c-.007-.022-.042-.059-.042-.088s.008-.139.038-.192a.2.2 0 0 1 .069-.067.6.6 0 0 1 .18-.063c.143 0 .321.146.301.325.123.09.324.102.492.141l-.155.017c-.023 0-.057-.023-.086-.023s-.112.025-.271 0a.3.3 0 0 1-.139-.072c-.004-.024.011-.193-.078-.193-.076 0-.098.071-.098.133 0 .179.223.212.322.212.028 0 .097-.023.126-.023.06 0 .069.058.069.126 0 .085-.023.368-.207.368-.029 0-.055-.001-.08-.026v-.039c.016-.018.115-.211.115-.239 0-.029-.009-.018-.009-.018h-.053c-.182.001-.393-.009-.494-.279m.701.728a.07.07 0 0 1 .027.057c0 .007-.003.058-.052.058-.054 0-.042-.043-.063-.076.013-.015.025-.039.053-.039zm4.694-3.441h-5.885v-3.77a15.2 15.2 0 0 1 5.885 3.77m-.799-.414c-.651-.902-2.143-2.021-3.066-1.302-.054-.943-.922-1.607-1.817-1.607-.081.854.332 1.594 1.037 1.756-.434.095-1.098.563-1.18 1.303.95.291 1.771-.184 1.96-.889.712 1.18 2.598 1.024 3.066.739m-.522-.115c-.584.136-1.838.068-2.381-.943.678-.583 1.851.333 2.381.943m-2.774-.875c-.102.455-.495 1.085-1.404.95.271-.658 1.017-.95 1.404-.95m-.055-.339c-.461-.047-1.268-.339-1.261-1.268 1.031.237 1.234.956 1.261 1.268m3.573 21.124c0 .029-.035.063-.063.063-.029 0-.04-.023-.069-.023s-.19.046-.219.046a.7.7 0 0 1-.139-.014c-.037-.01-.086-.055-.115-.055h-.133c-.036.051-.066.058-.112.058a.12.12 0 0 1-.069-.04c.055-.142.163-.02.218-.148a.45.45 0 0 1-.172-.329c0-.101.077-.287.252-.287.239 0 .299.241.299.396 0 .029-.058.14-.092.205l.02.019c.032 0 .078.011.107.011.074 0 .113-.057.143-.057.039 0 .144.077.144.155m-.529-.437c0-.047-.031-.132-.109-.132-.069 0-.132.061-.132.115 0 .066.129.15.168.173.046-.051.073-.09.073-.156m-.433.524c.06.012.089.065.089.097 0 .029-.063.167-.138.167-.029 0-.029-.012-.045-.013v-.042c.071-.07.062-.13.094-.209m-1.824-4.114c.016 0 .109.046.109.104 0 .037-.065.057-.118.057-.01.01-.01.021-.02.031v.203c0 .072-.118.276-.151.302-.029.023-.09.027-.119.027-.073 0-.085.001-.177-.107v-.041l.143-.004c.066-.002.155-.109.155-.162v-.222c0-.09.079-.188.178-.188m-.471.23c-.03 0-.236-.09-.236-.144 0-.03.075-.143.133-.143 0 0 .12.006.12.074 0 .029-.012.049-.023.068l.068.033v.074c-.024.025-.034.038-.062.038m-.322-.586c.036 0 .063.042.063.081 0 .068-.056.333-.253.333-.021 0-.115.007-.115-.069 0-.009.047-.127.098-.127.029 0 .06.024.08.035.062-.073.017-.174.069-.224.017-.016.029-.029.058-.029m.01-.141c-.013-.009-.027-.025-.027-.039.036-.036.069-.05.098-.05.081 0 .077.056.143.098-.026.017-.04.029-.069.029-.028 0-.098-.035-.145-.038m.157-.112c-.029 0-.057-.014-.069-.04l.027-.028c.038.011.076.026.088.052-.014.015-.017.016-.046.016m1.85 2.482c-.029 0-.058-.04-.058-.065a.4.4 0 0 1 .149-.073c.04 0 .137.054.149.135-.07.019-.104-.043-.154-.043-.029 0-.058.046-.086.046m.268.034-.05-.58c0-.014.03-.086.08-.086.029 0 .04.029.053.032.033.007.08.003.116.007.012.008.026.013.026.042 0 .013-.026.049-.067.066l.021-.026-.018-.018c-.091.025-.101-.011-.125-.011q-.03.002-.029.034c0 .029.035.339.035.368 0 .048.006.113-.042.172m.068-.773c-.027-.011-.061-.048-.06-.074a.2.2 0 0 1 .08-.026c.028 0 .121.012.179.016l.045.023a.15.15 0 0 1 .166.073c-.075.003-.189.026-.218.026a.7.7 0 0 1-.192-.038m.253-.134c-.06-.05-.123-.035-.21-.037.025-.049.09-.09.132-.09.016 0 .132.026.132.104 0 .029-.017.023-.054.023m.226 1.034c0 .029-.002.021-.017.034-.018-.016-.215-.138-.259-.138-.028 0-.074.012-.112.01-.017-.086.11-.125.164-.125.046 0 .224.15.224.219M-16.608.52c.029 0 .05.024.063.037v.04c-.026.014-.039.026-.068.026-.012 0-.044-.006-.069-.052.012-.025.046-.051.074-.051m-.79 2.378c.032.032.095.099.095.12 0 .029-.037.051-.064.063-.049-.059-.118-.105-.165-.154l.026-.029zm-.102.193c.064.043.137.071.196.096v.064q-.057.004-.101.003c-.028 0-.042 0-.064-.004-.027-.02-.071-.03-.106-.045a2 2 0 0 1-.141-.187c0-.028.023-.074.051-.074.029 0 .081.019.104.048.023.028.023.075.061.099m-.653.847c.022.031.058.074.058.103s-.04.063-.069.063c-.023 0-.368-.197-.368-.264 0-.029.023-.029.025-.057h.039c.048.023.109.08.137.08.03 0 .02-.115.144-.115.008 0 .08.037.08.092a.14.14 0 0 1-.046.098m-.487-.389c-.033.083-.133.228-.133.256 0 .029.092.098.133.164.051.085.051.182.051.284 0 .007-.015.265-.104.265-.007 0-.057-.002-.057-.046 0-.029.03-.086.023-.213-.003-.069-.006-.157-.049-.215-.138-.181-.25-.151-.25-.302 0-.179.196-.378.196-.54 0-.029-.023-.069-.023-.097 0-.038.017-.104.086-.104.099 0 .189.192.189.276 0 .029-.028.184-.062.272m-.328-1.042c0 .022-.028.115-.098.115-.086 0-.132-.106-.132-.167s.037-.074.097-.074c.078 0 .133.026.133.126m-2.547 8.85c-.012.007-.032.025-.032.035q.016.014.031.034h.552l.691.914-1.379-.849c-.004 0-.027.012-.034.01v.041l.311.736-.398.844v-1.62h-.031c-.057.023-.119.035-.171.062-.454.238-.899.467-1.351.695l.645-.915h.824l-1.286-.929c.305.065.647.04.904.208.213.14.277.434.413.628h.061V9.55a69 69 0 0 1 .447 1.007l-.001.001q.03.063.057.128c.009.001-.003.001.025.001l1.08-.111zm-2.284-5.323c.036 0 .128.053.144.11-.119.149-.285.287-.331.426-.049.15-.103.444-.224.59v-.098c.026-.128.095-.339.095-.367 0-.078-.024-.075-.086-.075-.076 0-.029-.014-.121.065v.158c0 .127-.15.577-.178.627a.12.12 0 0 1-.017-.075c0-.028.062-.276.088-.414.007-.045-.007-.118-.007-.147v-.187c0-.179.215-.138.303-.133.06-.017.206-.48.334-.48m-.891 1.049c.098-.015.131.013.138.074a.7.7 0 0 1-.143.026c-.046 0-.362-.043-.362-.132 0-.029.002-.027.016-.04.061.023.133.057.162.057s.019.002.029-.008c-.012-.113.019-.118.075-.118.035 0 .109.02.109.086 0 .029-.014.05-.024.055m-.286-.546c-.097-.06-.207.008-.207-.078 0-.028.011-.028.013-.044.05-.002.079-.013.107-.013.002 0 .167.033.167.103 0 .029-.059.101-.097.149l-.03-.028c.024-.038.046-.069.047-.089m-.314.509a.13.13 0 0 1 .072.014c-.01.069-.076.077-.086.077-.029 0-.178-.013-.254-.038-.029-.008-.038-.057-.049-.086.063.009.096.021.125.021.019 0-.024-.161.08-.161.038 0 .104.036.104.097 0 .029-.012.045-.009.055zm.371-.977c-.023 0-.115-.015-.115-.075 0-.029.025-.05.039-.063q.056.016.107.039c.012.008.013.031.026.046-.012.026-.028.053-.057.053m-.178.023c.029 0 .07.029.105.043.081.033.206-.001.257.077l-.027.029h-.207a.6.6 0 0 1-.118-.026c-.036-.012-.06-.056-.085-.083.025-.027.046-.04.075-.04m-.41.63h-.055V6.59a2.4 2.4 0 0 1 .06-.356.4.4 0 0 1 .07-.14c.059-.073.141-.124.2-.196.043-.053.058-.119.099-.172.023-.028.172-.06.191-.06.062 0 .243.051.251.137-.075-.022-.194-.068-.222-.068a.6.6 0 0 0-.142.1c-.017.043-.032.099-.065.14-.07.084-.185.147-.234.229-.093.156-.094.343-.153.518m1.923-6.617c-.013-.025-.037-.045-.037-.074s.061-.185.076-.265c.018-.089.048-.182.058-.275.011-.115.02-.245.041-.357.012-.059.025-.125.039-.184.019-.079.027-.222.027-.251l.069-1.385V-3.98c0-.028-.046-.326-.046-.355s.003-.401-.004-.539c-.003-.069-.03-.173-.03-.201s-.002-.318.011-.489c.022-.266.026-.525.262-.796.024-.028.06-.082.089-.082.031 0 .12.047.12.097 0 .053-.129.155-.147.164a4 4 0 0 0-.082.424v.331l-.046.5c0 .029.034.116.035.145v1.354l-.024 1.69c-.077.546-.061 1.251-.349 1.794-.013.024-.047.049-.062.048m1.026 3.103c-.069 0-.109-.063-.109-.115 0-.024.024-.115.103-.115.024 0 .138.025.138.109 0 .053-.086.121-.132.121m-7.014-1.551a.13.13 0 0 1 .074.059c-.014.015-.023.022-.025.039h-.06c-.029.001-.024-.022-.053-.022l-.614.011a3 3 0 0 0-.344.068v-.075a.4.4 0 0 1 .264-.108h.629c.029 0 .094.022.129.028m-.517 2.941c.041 0 .091.016.091.098 0 .037-.045.109-.103.109-.062 0-.103-.091-.103-.121 0-.046.06-.086.115-.086m-3.252-3.164c.015 0 .132.057.132.126 0 .049-.053.104-.138.104-.06 0-.126-.059-.126-.127 0-.057.087-.103.132-.103m1.476 5.618a.16.16 0 0 1-.079-.026v-.087c.037-.013.082-.012.114-.032-.063-.086.061-.142.126-.142.029 0 .083.022.113.052.014.014.033.052.053.063l.034-.035.029.026c.026.111-.282.181-.39.181m.121-.77c-.016-.013-.041-.017-.041-.046 0-.038.046-.129.096-.145a1 1 0 0 1 .203-.027c.029 0 .114.043.114.089-.125.089-.263.012-.372.129m.115-.252c-.028 0-.057-.003-.087-.053.036-.038.075-.063.104-.063s.057.027.068.051v.039a.2.2 0 0 1-.085.026m.16.287s.087.019.109.049v.04c-.072.025-.195.083-.224.083s-.048-.012-.073-.025c-.008-.112.144-.147.188-.147m-1.158-16.878a15.2 15.2 0 0 1 5.886-3.77v3.77zm.8-.414c.468.285 2.353.441 3.065-.739.19.705 1.01 1.18 1.96.889-.081-.74-.746-1.208-1.18-1.303.705-.162 1.119-.902 1.037-1.756-.895 0-1.763.664-1.817 1.607-.922-.719-2.414.4-3.065 1.302m.522-.115c.529-.61 1.702-1.526 2.38-.943-.542 1.011-1.797 1.079-2.38.943m2.774-.875c.386 0 1.132.292 1.403.95-.908.135-1.302-.495-1.403-.95m.054-.339c.027-.312.23-1.031 1.261-1.268.007.929-.8 1.221-1.261 1.268" style="fill:#4d4d4d;fill-opacity:1;fill-rule:nonzero;stroke:none" transform="translate(82.913 32.244)"/></g></g></svg>