<svg xmlns:dc="http://purl.org/dc/elements/1.1/" xmlns:cc="http://creativecommons.org/ns#" xmlns:rdf="http://www.w3.org/1999/02/22-rdf-syntax-ns#" xmlns:svg="http://www.w3.org/2000/svg" xmlns="http://www.w3.org/2000/svg" xml:space="preserve" id="svg2" version="1.1" viewBox="59.06 29.35 667.25 118.93"><metadata id="metadata8"><rdf:RDF><cc:Work rdf:about=""><dc:format>image/svg+xml</dc:format><dc:type rdf:resource="http://purl.org/dc/dcmitype/StillImage"/></cc:Work></rdf:RDF></metadata><defs id="defs6"/><g transform="matrix(1.3333333,0,0,-1.3333333,0,177.64)" id="g10"><g transform="scale(0.1)" id="g12"><path id="path14" style="fill:#2494ca;fill-opacity:1;fill-rule:nonzero;stroke:none" d="m 3419.46,495.582 c -5.12,8.875 -11.38,12.742 -20.5,12.742 -12.99,0 -22.77,-8.644 -22.77,-20.261 0,-8.43 5.12,-14.696 15.59,-19.137 l 2.39,-1.028 2.4,-1.023 2.51,-1.027 c 1.93,-0.797 3.87,-1.821 5.58,-2.961 3.42,-2.391 5.24,-5.696 5.24,-10.024 0,-7.293 -5.24,-12.644 -12.42,-12.644 -4.67,0 -9,2.277 -10.94,5.922 -1.14,1.937 -1.59,3.757 -2.16,8.316 l -11.61,-2.621 c 2.05,-14.234 11.04,-22.426 24.6,-22.426 13.78,0 24.02,10.465 24.02,24.594 0,10.137 -5.57,16.973 -17.76,22.098 -10.82,4.328 -9.8,3.875 -12.19,5.582 -2.51,1.711 -3.65,3.875 -3.65,6.379 0,5.355 4.79,9.457 11.06,9.457 5.24,0 7.86,-1.707 11.39,-7.52 z m 63.25,0.457 v 10.805 h -41.9 v -75.953 h 41.9 v 10.808 h -30.41 v 25.297 h 29.5 v 10.805 h -29.5 v 18.238 z m 32.64,10.805 h -11.49 v -75.953 h 11.49 z m 43.96,-10.805 h 17.43 v 10.805 h -46.34 v -10.805 h 17.43 v -65.148 h 11.48 z m 80.65,0.113 v -65.261 h 11.49 v 75.953 h -18.32 l -6.26,-10.692 z m 70.84,0 -37.92,-62.07 9.11,-5.809 47.93,78.571 h -56.59 v -10.692 z m 45.46,-29.961 c 4.67,-0.113 6.38,-0.343 8.54,-1.253 4.21,-1.708 6.72,-6.153 6.72,-11.735 0,-7.519 -5.47,-13.101 -12.76,-13.101 -7.4,0 -12.07,3.988 -13.21,11.394 h -11.05 c 0.46,-4.898 1.03,-7.293 2.51,-10.254 3.87,-7.168 11.96,-11.601 21.07,-11.601 14.58,0 24.7,9.55 24.7,23.109 0,8.316 -3.18,14.469 -9.33,18.227 5.58,3.871 8.19,9.226 8.19,16.406 0,12.07 -9.32,20.715 -22.53,20.715 -13.22,0 -20.28,-6.368 -22.67,-20.602 h 11.39 c 1.59,7.516 4.67,10.254 11.05,10.254 6.95,0 11.61,-4.559 11.61,-11.168 0,-4.215 -2.27,-8.199 -5.58,-9.566 -1.93,-0.914 -3.64,-1.028 -8.65,-1.028 z m 79.52,29.961 -37.92,-62.07 9.11,-5.809 47.94,78.571 h -56.59 v -10.692 h 37.46"/><path id="path16" style="fill:#2494ca;fill-opacity:1;fill-rule:nonzero;stroke:none" d="m 3388.02,630.844 h -11.49 v -75.953 h 11.49 z m 23.82,-75.957 h 11.49 v 53.187 l 55.35,-57.859 v 80.637 h -11.49 v -52.735 l -55.35,57.86 z m 136.43,30.871 h 5.35 c 15.73,0 25.74,8.758 25.74,22.543 0,6.949 -3.19,13.785 -8.3,17.773 -4.9,3.641 -9.69,4.77 -21.31,4.77 h -12.97 v -75.953 h 11.49 z m 0,10.578 v 23.926 h 3.76 c 10.94,0 16.3,-3.871 16.3,-11.621 0,-8.317 -5.13,-12.305 -15.85,-12.305 z m 58.48,34.508 h -11.49 v -48.856 c 0,-16.402 11.95,-28.578 28.13,-28.578 16.06,0 28.01,12.176 28.01,28.578 v 48.856 h -11.49 v -45.781 c 0,-6.719 -0.57,-9.911 -2.4,-13.098 -2.73,-4.785 -8.2,-7.746 -14.12,-7.746 -6.04,0 -11.51,2.961 -14.25,7.746 -1.82,3.187 -2.39,6.379 -2.39,13.098 z m 68.42,-75.953 h 17.42 c 10.25,0 15.03,1.367 20.04,5.461 4.9,4.093 7.63,9.906 7.63,16.402 0,8.887 -5.01,16.172 -12.97,19.016 4.2,3.753 6.13,8.199 6.13,13.554 0,7.067 -3.41,14.016 -8.64,17.66 -3.99,2.731 -9.12,3.86 -18.24,3.86 h -11.37 z m 11.49,43.265 v 22.106 h 3.99 c 7.75,0 11.97,-3.871 11.97,-10.938 0,-7.293 -4.22,-11.168 -12.43,-11.168 z m 0,-32.457 v 22.906 h 5.81 c 11.06,0 16.53,-3.875 16.53,-11.738 0,-7.066 -5.47,-11.168 -15.27,-11.168 z m 64.63,65.145 h -11.49 v -75.953 h 33.82 v 10.808 h -22.33 z m 53.76,0 h -11.49 v -75.953 h 11.49 z m 77.41,-4.09 c -7.06,4.094 -12.3,5.57 -20.39,5.57 -21.41,0 -39.5,-17.98 -39.5,-39.285 0,-22.328 17.3,-39.629 39.5,-39.629 7.07,0 13.67,1.82 20.39,5.688 v 13.777 c -7.29,-6.152 -13.1,-8.656 -20.16,-8.656 -16.06,0 -28.24,12.301 -28.24,28.476 0,16.067 12.3,28.825 27.79,28.825 7.63,0 13.44,-2.391 20.61,-8.317 z m 63.55,-53.41 7.97,-18.453 h 12.52 l -36.21,80.738 -37.58,-80.738 h 12.3 l 8.54,18.453 z m -4.67,10.804 h -23.01 l 11.73,25.743 z m 130.74,42.606 c -7.06,4.094 -12.3,5.57 -20.38,5.57 -21.42,0 -39.51,-17.98 -39.51,-39.285 0,-22.328 17.3,-39.629 39.51,-39.629 7.06,0 13.66,1.82 20.38,5.688 v 13.777 c -7.29,-6.152 -13.1,-8.656 -20.16,-8.656 -16.06,0 -28.24,12.301 -28.24,28.476 0,16.067 12.3,28.825 27.79,28.825 7.63,0 13.44,-2.391 20.61,-8.317 z m 54.56,5.57 c -22.1,0 -39.85,-17.754 -39.85,-39.738 0,-21.988 17.52,-39.176 39.85,-39.176 21.76,0 39.52,17.758 39.52,39.403 0,21.757 -17.76,39.511 -39.52,39.511 z m -0.11,-10.804 c 15.95,0 28.14,-12.418 28.14,-28.825 0,-15.718 -12.53,-28.476 -28.14,-28.476 -15.72,0 -28.25,12.531 -28.25,28.476 0,16.293 12.3,28.825 28.25,28.825 z m 51.79,-66.633 h 11.85 l 8.2,45.898 21.86,-49.43 22.43,49.317 7.29,-45.785 h 11.73 l -14.35,81.66 -26.99,-58.996 -26.07,58.996 z m 100.24,0 h 11.84 l 8.2,45.898 21.87,-49.43 22.43,49.317 7.29,-45.785 h 11.73 l -14.35,81.66 -26.99,-58.996 -26.08,58.996 z m 136.41,77.437 c -22.1,0 -39.85,-17.754 -39.85,-39.738 0,-21.988 17.53,-39.176 39.85,-39.176 21.76,0 39.52,17.758 39.52,39.403 0,21.757 -17.76,39.511 -39.52,39.511 z m -0.11,-10.804 c 15.95,0 28.14,-12.418 28.14,-28.825 0,-15.718 -12.53,-28.476 -28.14,-28.476 -15.72,0 -28.25,12.531 -28.25,28.476 0,16.293 12.3,28.825 28.25,28.825 z m 58.55,-66.629 h 15.7 c 13.56,0 20.17,1.707 27.8,7.281 9.91,7.172 15.25,17.766 15.25,30.527 0,12.985 -5.12,23.809 -14.68,30.754 -7.4,5.344 -15.04,7.391 -28.14,7.391 h -15.93 z m 11.49,10.808 v 54.34 h 5.12 c 9.23,0 15.27,-1.594 20.29,-5.355 6.49,-4.786 10.36,-12.871 10.36,-21.758 0,-9 -3.76,-16.86 -10.36,-21.758 -5.36,-3.875 -11.06,-5.469 -20.29,-5.469 z m 106.72,7.645 7.97,-18.453 h 12.53 l -36.21,80.738 -37.58,-80.738 h 12.3 l 8.54,18.453 z m -4.67,10.804 h -23 l 11.73,25.743 z"/><path id="path18" style="fill:#231f20;fill-opacity:1;fill-rule:nonzero;stroke:none" d="m 1814.59,531.188 v -20.7 h 59.4 c -0.9,-12.3 -3,-20.101 -8.1,-28.203 -12,-20.097 -37.5,-34.199 -61.5,-34.199 -44.4,0 -81.3,36.902 -81.3,81.902 0,46.5 36.6,83.098 83.1,83.098 26.4,0 47.1,-11.699 66.6,-37.5 l 16.5,15 c -25.5,30.301 -50.4,43.5 -83.1,43.5 -58.8,0 -105.6,-45.898 -105.6,-103.801 0,-56.398 46.5,-103.199 102.6,-103.199 29.7,0 58.2,13.5 76.2,36 13.5,16.801 18.6,34.5 18.6,63 v 5.102 z m 216.06,102.898 c -57.3,0 -104.4,-46.801 -104.4,-103.801 0,-57 46.8,-103.199 104.4,-103.199 56.7,0 103.8,46.801 103.8,103.5 0,56.699 -47.1,103.5 -103.8,103.5 z m -0.3,-21 c 45.3,0 81.6,-36.898 81.6,-82.801 0,-45.297 -36.6,-82.199 -81.6,-82.199 -45,0 -81.6,36.902 -81.6,82.199 0,46.203 36.3,82.801 81.6,82.801 z m -28.5,68.102 c -8.4,0 -15.3,-6.903 -15.3,-15.301 0,-8.399 6.9,-15.301 15.3,-15.301 8.4,0 15.3,6.902 15.3,15.301 0,8.398 -6.9,15.301 -15.3,15.301 z m 57,0 c -8.4,0 -15.3,-6.903 -15.3,-15.301 0,-8.399 6.9,-15.301 15.3,-15.301 8.4,0 15.3,6.902 15.3,15.301 0,8.398 -6.9,15.301 -15.3,15.301 z m 152.1,-71.102 h 48.6 v 20.699 h -119.4 v -20.699 h 48.3 V 430.688 h 22.5 z m 136.55,0 h 48.6 v 20.699 H 2276.7 V 610.086 H 2325 V 430.688 h 22.5 z m 99.03,20.699 h -22.5 V 430.688 h 22.5 z m 51.23,-200.097 h 22.5 v 154.199 l 155.7,-163.199 v 209.097 h -22.5 V 475.688 l -155.7,163.5 z m 332.34,100.5 v -20.7 h 59.4 c -0.9,-12.3 -3,-20.101 -8.1,-28.203 -12,-20.097 -37.5,-34.199 -61.5,-34.199 -44.4,0 -81.3,36.902 -81.3,81.902 0,46.5 36.6,83.098 83.1,83.098 26.4,0 47.1,-11.699 66.6,-37.5 l 16.5,15 c -25.5,30.301 -50.4,43.5 -83.1,43.5 -58.8,0 -105.6,-45.898 -105.6,-103.801 0,-56.398 46.5,-103.199 102.6,-103.199 29.7,0 58.2,13.5 76.2,36 13.5,16.801 18.6,34.5 18.6,63 v 5.102 z m 226.71,78.898 v 20.699 h -103.5 V 430.688 h 103.5 v 20.699 h -81 v 78.301 h 78.9 v 20.699 h -78.9 v 59.699 z m 39.51,-179.398 h 22.5 v 154.199 l 155.7,-163.199 v 209.097 h -22.5 V 475.688 l -155.7,163.5 v -208.5"/><path id="path20" style="fill:#231f20;fill-opacity:1;fill-rule:nonzero;stroke:none" d="m 3913.97,970.785 h -22.5 V 842.086 c 0,-21.898 3.6,-35.098 13.2,-47.398 12.9,-17.102 35.1,-27.602 58.2,-27.602 22.8,0 44.7,10.5 57.9,27.602 9.6,12.3 13.2,25.8 13.2,47.398 v 128.699 h -22.5 V 848.086 c 0,-20.699 -1.5,-29.699 -6.6,-38.398 -7.8,-12.602 -24.9,-21.602 -42,-21.602 -17.4,0 -34.5,9 -42.3,21.602 -5.1,8.699 -6.6,17.699 -6.6,38.398 z m 171.29,-200.097 h 22.5 v 154.199 l 155.7,-163.199 v 209.097 h -22.5 V 815.688 l -155.7,163.5 z m 252.39,200.097 h -22.5 V 770.688 h 22.5 z m 51.21,0 h -24.6 l 81,-211.797 81.3,211.797 h -24.3 l -56.7,-152.398 z m 268.11,-20.699 v 20.699 H 4553.46 V 770.688 h 103.51 v 20.699 h -81.01 v 78.301 h 78.91 v 20.699 h -78.91 v 59.699 z m 91.7,-90 c 30.9,3 50.4,24.301 50.4,55.5 0,18 -8.7,35.102 -22.2,44.402 -11.4,7.797 -25.2,10.797 -48,10.797 h -32.4 V 770.688 h 22.5 v 87.597 h 5.7 l 60.3,-87.597 h 27.3 z m -29.7,18 v 72 h 13.2 c 29.4,0 45,-12 45,-34.5 0,-24.598 -15.3,-37.5 -44.1,-37.5 z m 227.91,64.801 c -12,20.699 -29.1,31.199 -51.6,31.199 -31.8,0 -56.1,-22.199 -56.1,-51.301 0,-22.5 11.7,-36.597 40.5,-49.5 l 6,-2.699 6,-2.699 6,-3 c 6.6,-2.699 12.3,-5.699 17.4,-9 11.1,-6.899 16.5,-16.199 16.5,-28.5 0,-22.199 -17.7,-39.301 -40.8,-39.301 -21,0 -34.8,12.602 -40.2,36.602 l -21.6,-6 c 7.8,-33 30,-51.602 62.1,-51.602 35.4,0 63,27.301 63,61.801 0,24.898 -13.2,40.801 -45.3,54.898 l -6.3,2.703 -6.3,2.7 -6.3,3 c -5.7,2.398 -10.8,5.398 -15.6,8.398 -8.4,5.699 -12.6,12.902 -12.6,21.602 0,17.699 14.4,30.898 33,30.898 15.6,0 24.3,-5.398 34.5,-21.598 z m 69.69,27.898 h -22.5 V 770.688 h 22.5 z m 98.28,-20.699 h 48.6 v 20.699 h -119.4 v -20.699 h 48.3 V 770.688 h 22.5 z m 173.51,-122.699 23.7,-56.699 h 24.6 l -90,209.699 -92.1,-209.699 h 24.3 l 24,56.699 z m -8.7,20.699 h -67.5 l 34.2,80.102 z m -60.6,173.104 c -8.4,0 -15.3,-6.9 -15.3,-15.3 0,-8.402 6.9,-15.304 15.3,-15.304 8.4,0 15.3,6.902 15.3,15.304 0,8.4 -6.9,15.3 -15.3,15.3 z m 57,0 c -8.4,0 -15.3,-6.9 -15.3,-15.3 0,-8.402 6.9,-15.304 15.3,-15.304 8.4,0 15.3,6.902 15.3,15.304 0,8.4 -6.9,15.3 -15.3,15.3 z m 122.7,-71.104 h 48.6 v 20.699 h -119.4 v -20.699 h 48.3 V 770.688 h 22.5 v 179.398"/><path id="path22" style="fill:#231f20;fill-opacity:1;fill-rule:nonzero;stroke:none" d="m 1814.59,871.188 v -20.7 h 59.4 c -0.9,-12.3 -3,-20.101 -8.1,-28.203 -12,-20.097 -37.5,-34.199 -61.5,-34.199 -44.4,0 -81.3,36.902 -81.3,81.902 0,46.5 36.6,83.098 83.1,83.098 26.4,0 47.1,-11.699 66.6,-37.5 l 16.5,15 c -25.5,30.301 -50.4,43.5 -83.1,43.5 -58.8,0 -105.6,-45.898 -105.6,-103.801 0,-56.398 46.5,-103.199 102.6,-103.199 29.7,0 58.2,13.5 76.2,36 13.5,16.801 18.6,34.5 18.6,63 v 5.102 z m 226.71,78.898 v 20.699 H 1937.8 V 770.688 h 103.5 v 20.699 h -81 v 78.301 h 78.9 v 20.699 h -78.9 v 59.699 z m 131.25,24 c -57.3,0 -104.4,-46.801 -104.4,-103.801 0,-57 46.8,-103.199 104.4,-103.199 56.7,0 103.8,46.801 103.8,103.5 0,56.699 -47.1,103.5 -103.8,103.5 z m -0.3,-21 c 45.3,0 81.6,-36.898 81.6,-82.801 0,-45.297 -36.6,-82.199 -81.6,-82.199 -45,0 -81.6,36.902 -81.6,82.199 0,46.203 36.3,82.801 81.6,82.801 z m 196.1,-93 c 30.9,3 50.4,24.301 50.4,55.5 0,18 -8.7,35.102 -22.2,44.402 -11.4,7.797 -25.2,10.797 -48,10.797 h -32.4 V 770.688 h 22.5 v 87.597 h 5.7 l 60.3,-87.597 h 27.3 z m -29.7,18 v 72 h 13.2 c 29.4,0 45,-12 45,-34.5 0,-24.598 -15.3,-37.5 -44.1,-37.5 z m 224.01,-6.898 v -20.7 h 59.4 c -0.9,-12.3 -3,-20.101 -8.1,-28.203 -12,-20.097 -37.5,-34.199 -61.5,-34.199 -44.4,0 -81.3,36.902 -81.3,81.902 0,46.5 36.6,83.098 83.1,83.098 26.4,0 47.1,-11.699 66.6,-37.5 l 16.5,15 c -25.5,30.301 -50.4,43.5 -83.1,43.5 -58.8,0 -105.6,-45.898 -105.6,-103.801 0,-56.398 46.5,-103.199 102.6,-103.199 29.7,0 58.2,13.5 76.2,36 13.5,16.801 18.6,34.5 18.6,63 v 5.102 z m 113.25,-2 v -19.2 h 54.3 v 19.2 z m 199.2,-41.801 23.7,-56.699 h 24.6 l -90,209.699 -92.1,-209.699 h 24.3 l 24,56.699 z m -8.7,20.699 h -67.5 l 34.2,80.102 z m 97.23,122.699 h -22.5 V 842.086 c 0,-21.898 3.6,-35.098 13.2,-47.398 12.9,-17.102 35.1,-27.602 58.2,-27.602 22.8,0 44.7,10.5 57.9,27.602 9.6,12.3 13.2,25.8 13.2,47.398 v 128.699 h -22.5 V 848.086 c 0,-20.699 -1.5,-29.699 -6.6,-38.398 -7.8,-12.602 -24.9,-21.602 -42,-21.602 -17.4,0 -34.5,9 -42.3,21.602 -5.1,8.699 -6.6,17.699 -6.6,38.398 z m 272.85,-99.597 v -20.7 h 59.4 c -0.9,-12.3 -3,-20.101 -8.1,-28.203 -12,-20.097 -37.5,-34.199 -61.5,-34.199 -44.4,0 -81.3,36.902 -81.3,81.902 0,46.5 36.6,83.098 83.1,83.098 26.4,0 47.1,-11.699 66.6,-37.5 l 16.5,15 c -25.5,30.301 -50.4,43.5 -83.1,43.5 -58.8,0 -105.6,-45.898 -105.6,-103.801 0,-56.398 46.5,-103.199 102.6,-103.199 29.7,0 58.2,13.5 76.2,36 13.5,16.801 18.6,34.5 18.6,63 v 5.102 z m 144.36,99.597 h -22.5 V 842.086 c 0,-21.898 3.6,-35.098 13.2,-47.398 12.9,-17.102 35.1,-27.602 58.2,-27.602 22.8,0 44.7,10.5 57.9,27.602 9.6,12.3 13.2,25.8 13.2,47.398 v 128.699 h -22.5 V 848.086 c 0,-20.699 -1.5,-29.699 -6.6,-38.398 -7.8,-12.602 -24.9,-21.602 -42,-21.602 -17.4,0 -34.5,9 -42.3,21.602 -5.1,8.699 -6.6,17.699 -6.6,38.398 z m 274.55,-27.898 c -12,20.699 -29.1,31.199 -51.6,31.199 -31.8,0 -56.1,-22.199 -56.1,-51.301 0,-22.5 11.7,-36.597 40.5,-49.5 l 6,-2.699 6,-2.699 6,-3 c 6.6,-2.699 12.3,-5.699 17.4,-9 11.1,-6.899 16.5,-16.199 16.5,-28.5 0,-22.199 -17.7,-39.301 -40.8,-39.301 -21,0 -34.8,12.602 -40.2,36.602 l -21.6,-6 c 7.8,-33 30,-51.602 62.1,-51.602 35.4,0 63,27.301 63,61.801 0,24.898 -13.2,40.801 -45.3,54.898 l -6.3,2.703 -6.3,2.7 -6.3,3 c -5.7,2.398 -10.8,5.398 -15.6,8.398 -8.4,5.699 -12.6,12.902 -12.6,21.602 0,17.699 14.4,30.898 33,30.898 15.6,0 24.3,-5.398 34.5,-21.598 z m 95.61,7.199 h 48.6 v 20.699 h -119.4 v -20.699 h 48.3 V 770.688 h 22.5 z m 49.44,-80.898 v -19.2 h 54.3 v 19.2 h -54.3"/><path id="path24" style="fill:#68bceb;fill-opacity:1;fill-rule:nonzero;stroke:none" d="M 1272.38,1112.14 1029.34,584.227 C 1001.31,534.277 948.352,500.25 886.98,500.25 v -90.711 c 108.129,0 200.39,67.441 237.29,162.527 h 284.62 l 111.63,-252.105 h 108.78 z m -1.7,-222.687 97.69,-223.965 h -207.16 z"/><path id="path26" style="fill:#0e5f9d;fill-opacity:1;fill-rule:nonzero;stroke:none" d="m 1093.11,940.699 42.6,91.351 c -70.96,48.07 -156.562,76.16 -248.726,76.16 -245.234,0 -444.035,-198.8 -444.035,-444.034 0,-245.235 198.801,-444.035 444.035,-444.035 213.646,0 391.996,150.906 434.406,351.925 H 1219.45 C 1179.1,426.168 1045.72,318.898 886.984,318.898 c -190.691,0 -345.273,154.586 -345.273,345.278 0,190.687 154.582,345.274 345.273,345.274 77.375,0 148.556,-25.766 206.126,-68.751 z M 886.98,572.086 h 134.48 c 2.71,3.984 5.51,7.918 7.88,12.141 l 37.47,81.402 H 886.98 v -93.543"/></g></g></svg>